<svg xmlns="http://www.w3.org/2000/svg" xmlns:xlink="http://www.w3.org/1999/xlink" width="500" zoomAndPan="magnify" viewBox="0 0 375 374.999991" height="500" preserveAspectRatio="xMidYMid meet" version="1.0"><defs><filter x="0%" y="0%" width="100%" height="100%" id="656f908cfb"><feColorMatrix values="0 0 0 0 1 0 0 0 0 1 0 0 0 0 1 0 0 0 1 0" color-interpolation-filters="sRGB"/></filter><mask id="b026d97ed8"><g filter="url(#656f908cfb)"><rect x="-37.5" width="450" fill="#000000" y="-37.499999" height="449.999989" fill-opacity="0.59"/></g></mask><clipPath id="ce97c90bc3"><path d="M 1.007812 0.609375 L 334.28125 0.609375 L 334.28125 126.820312 L 1.007812 126.820312 Z M 1.007812 0.609375 " clip-rule="nonzero"/></clipPath><clipPath id="2c12934926"><path d="M 167.597656 0.609375 C 75.59375 0.609375 1.007812 28.863281 1.007812 63.714844 C 1.007812 98.566406 75.59375 126.820312 167.597656 126.820312 C 259.605469 126.820312 334.191406 98.566406 334.191406 63.714844 C 334.191406 28.863281 259.605469 0.609375 167.597656 0.609375 Z M 167.597656 0.609375 " clip-rule="nonzero"/></clipPath><clipPath id="c12cc58d44"><rect x="0" width="335" y="0" height="127"/></clipPath><clipPath id="d43955031e"><path d="M 77 75 L 317 75 L 317 276 L 77 276 Z M 77 75 " clip-rule="nonzero"/></clipPath><clipPath id="e1dd1cc236"><path d="M 58.675781 94.761719 L 297.722656 60.433594 L 326.507812 260.878906 L 87.460938 295.207031 Z M 58.675781 94.761719 " clip-rule="nonzero"/></clipPath><clipPath id="41f93948ab"><path d="M 58.675781 94.761719 L 297.722656 60.433594 L 326.507812 260.878906 L 87.460938 295.207031 Z M 58.675781 94.761719 " clip-rule="nonzero"/></clipPath><clipPath id="b2eed48ca0"><path d="M 80 77 L 225 77 L 225 236 L 80 236 Z M 80 77 " clip-rule="nonzero"/></clipPath><clipPath id="8cfc4a4521"><path d="M 58.675781 94.761719 L 297.722656 60.433594 L 326.507812 260.878906 L 87.460938 295.207031 Z M 58.675781 94.761719 " clip-rule="nonzero"/></clipPath><clipPath id="4d00cec223"><path d="M 58.675781 94.761719 L 297.722656 60.433594 L 326.507812 260.878906 L 87.460938 295.207031 Z M 58.675781 94.761719 " clip-rule="nonzero"/></clipPath><clipPath id="5d62d429a8"><path d="M 188 144 L 277 144 L 277 161 L 188 161 Z M 188 144 " clip-rule="nonzero"/></clipPath><clipPath id="3a66d2bd91"><path d="M 58.675781 94.761719 L 297.722656 60.433594 L 326.507812 260.878906 L 87.460938 295.207031 Z M 58.675781 94.761719 " clip-rule="nonzero"/></clipPath><clipPath id="6af4c1f836"><path d="M 58.675781 94.761719 L 297.722656 60.433594 L 326.507812 260.878906 L 87.460938 295.207031 Z M 58.675781 94.761719 " clip-rule="nonzero"/></clipPath><clipPath id="1246561450"><path d="M 118 83 L 308 83 L 308 268 L 118 268 Z M 118 83 " clip-rule="nonzero"/></clipPath><clipPath id="7c840a6dae"><path d="M 58.675781 94.761719 L 297.722656 60.433594 L 326.507812 260.878906 L 87.460938 295.207031 Z M 58.675781 94.761719 " clip-rule="nonzero"/></clipPath><clipPath id="735d77f10a"><path d="M 58.675781 94.761719 L 297.722656 60.433594 L 326.507812 260.878906 L 87.460938 295.207031 Z M 58.675781 94.761719 " clip-rule="nonzero"/></clipPath><clipPath id="0bcf29f210"><path d="M 86 120 L 236 120 L 236 228 L 86 228 Z M 86 120 " clip-rule="nonzero"/></clipPath><clipPath id="6d2d04fca8"><path d="M 58.675781 94.761719 L 297.722656 60.433594 L 326.507812 260.878906 L 87.460938 295.207031 Z M 58.675781 94.761719 " clip-rule="nonzero"/></clipPath><clipPath id="c09e5babc7"><path d="M 58.675781 94.761719 L 297.722656 60.433594 L 326.507812 260.878906 L 87.460938 295.207031 Z M 58.675781 94.761719 " clip-rule="nonzero"/></clipPath></defs><g mask="url(#b026d97ed8)"><g transform="matrix(1, 0, 0, 1, 25, 203)"><g clip-path="url(#c12cc58d44)"><g clip-path="url(#ce97c90bc3)"><g clip-path="url(#2c12934926)"><path fill="#7c009f" d="M 1.007812 0.609375 L 334.28125 0.609375 L 334.28125 126.820312 L 1.007812 126.820312 Z M 1.007812 0.609375 " fill-opacity="1" fill-rule="nonzero"/></g></g></g></g></g><g clip-path="url(#d43955031e)"><g clip-path="url(#e1dd1cc236)"><g clip-path="url(#41f93948ab)"><path fill="#7c009f" d="M 313.84375 188.285156 C 310.265625 190.78125 308.660156 194.691406 306.390625 198.113281 C 305.183594 199.933594 305.25 202.195312 305.269531 204.347656 C 305.308594 208.804688 306.441406 212.898438 309.183594 216.496094 C 309.691406 217.164062 310.234375 217.535156 311.039062 217.644531 C 312.296875 217.8125 313.519531 218.121094 314.640625 218.742188 C 316.359375 219.695312 316.726562 221.066406 315.679688 222.726562 C 314.527344 224.550781 312.835938 225.765625 310.9375 226.679688 C 307.085938 228.53125 303.261719 230.433594 299.394531 232.257812 C 290.875 236.277344 282.472656 240.550781 273.902344 244.476562 C 261.609375 250.109375 250.363281 257.605469 238.761719 264.445312 C 234.292969 267.082031 230.035156 270.113281 225.679688 272.960938 C 221.207031 275.890625 216.710938 276.4375 211.769531 274.945312 C 208.933594 274.089844 206.0625 273.339844 203.359375 272.105469 C 197.382812 269.386719 190.855469 268.382812 184.746094 266.089844 C 174.84375 262.371094 164.679688 259.347656 155.097656 254.785156 C 154.011719 254.269531 152.882812 253.78125 151.722656 253.496094 C 144.824219 251.796875 138.375 248.859375 131.75 246.394531 C 127.007812 244.628906 122.328125 242.847656 118.015625 240.15625 C 116.628906 239.289062 115.425781 238.324219 114.488281 237.023438 C 114.089844 236.46875 113.777344 236.246094 113.023438 236.457031 C 105.78125 238.511719 98.519531 238.304688 91.277344 236.449219 C 89.691406 236.042969 88.15625 235.414062 86.597656 234.894531 C 82.964844 233.6875 80.4375 231.203125 78.582031 227.949219 C 77.625 226.269531 77.84375 224.46875 77.996094 222.652344 C 78.699219 214.394531 81.355469 206.589844 83.363281 198.621094 C 86.890625 184.640625 91.3125 170.886719 94.09375 156.71875 C 96.464844 144.648438 99.730469 132.8125 103.253906 121.039062 C 104.953125 115.371094 106.75 109.738281 108.675781 104.148438 C 109.738281 101.046875 111.605469 98.914062 115.0625 98.027344 C 122.277344 96.179688 129.414062 94.011719 136.5625 91.90625 C 144.761719 89.492188 153.007812 87.265625 161.285156 85.128906 C 167.96875 83.40625 174.457031 81.011719 181.003906 78.832031 C 185.269531 77.410156 189.613281 76.265625 194.03125 75.425781 C 195.496094 75.148438 197.089844 74.871094 197.871094 76.664062 C 198.664062 78.484375 198.21875 79.691406 196.425781 81.074219 C 194.175781 82.808594 194.167969 83.179688 196.410156 84.992188 C 196.789062 85.296875 197.210938 85.585938 197.660156 85.765625 C 203.257812 87.988281 209.023438 89.472656 215.09375 89.3125 C 216.097656 89.285156 217.097656 88.804688 218.078125 88.46875 C 219.757812 87.894531 221.503906 87.675781 223.253906 87.613281 C 225.070312 87.546875 225.789062 88.253906 226.097656 90.082031 C 226.4375 92.09375 226.125 93.980469 225.296875 95.847656 C 222.675781 101.765625 220.292969 107.769531 218.402344 113.972656 C 216.082031 121.582031 213.007812 128.921875 210.054688 136.300781 C 208.878906 139.238281 207.816406 142.222656 206.546875 145.605469 C 208.5 144.773438 210.066406 144.171875 211.566406 143.441406 C 212.652344 142.914062 213.726562 142.730469 214.90625 142.929688 C 227.988281 145.140625 241.277344 145.878906 254.316406 148.355469 C 262.34375 149.875 270.378906 151.320312 278.476562 152.402344 C 280.730469 152.703125 281.242188 153.203125 281.027344 155.503906 C 280.714844 158.796875 280.835938 162.074219 281.011719 165.359375 C 281.152344 167.984375 281.398438 170.605469 281.492188 173.230469 C 281.527344 174.261719 282.269531 174.019531 282.75 174.101562 C 289.71875 175.289062 296.703125 176.417969 303.472656 178.539062 C 305.984375 179.328125 308.484375 180.148438 310.90625 181.191406 C 311.972656 181.648438 312.96875 182.234375 313.828125 183.007812 C 315.488281 184.496094 315.644531 187.03125 313.84375 188.285156 Z M 313.84375 188.285156 " fill-opacity="1" fill-rule="nonzero"/></g></g></g><g clip-path="url(#b2eed48ca0)"><g clip-path="url(#8cfc4a4521)"><g clip-path="url(#4d00cec223)"><path fill="#f8eaff" d="M 183.605469 101.375 C 176.523438 104.160156 169.519531 107.253906 162.117188 109.105469 C 156.503906 110.511719 151.179688 112.644531 145.78125 114.625 C 145.128906 114.867188 144.621094 115.113281 144.5 115.914062 C 144.191406 117.9375 143.378906 119.808594 142.605469 121.683594 C 139.753906 128.574219 136.816406 135.453125 135.199219 142.765625 C 130.90625 162.160156 125.617188 181.273438 119.382812 200.132812 C 118.582031 202.546875 118.019531 205.046875 117.636719 207.617188 C 117.898438 207.601562 118.023438 207.632812 118.097656 207.585938 C 122.972656 204.378906 128.089844 201.660156 133.695312 199.960938 C 134.632812 199.679688 134.644531 199.152344 134.621094 198.371094 C 134.457031 193.226562 134.453125 188.078125 134.152344 182.941406 C 134.019531 180.625 134.90625 179.1875 136.777344 178.105469 C 141.378906 175.4375 146.015625 172.796875 150.945312 170.820312 C 157.96875 168.007812 165.015625 165.285156 171.683594 161.664062 C 174.761719 159.988281 177.972656 158.546875 181.363281 157.570312 C 184.433594 156.6875 187.289062 155.308594 190.171875 153.949219 C 194.683594 151.820312 198.617188 148.601562 203.375 146.945312 C 204.097656 146.695312 204.207031 145.957031 204.4375 145.363281 C 205.792969 141.890625 207.078125 138.390625 208.457031 134.925781 C 211.289062 127.796875 214.390625 120.765625 216.457031 113.359375 C 218.230469 106.996094 220.742188 100.933594 223.378906 94.90625 C 223.984375 93.527344 224.441406 92.152344 224.199219 90.613281 C 224.089844 89.910156 223.808594 89.597656 223.035156 89.550781 C 221.394531 89.453125 219.863281 89.871094 218.390625 90.453125 C 211.8125 93.054688 205.101562 95.230469 198.257812 97.054688 C 193.34375 98.367188 188.378906 99.496094 183.605469 101.375 Z M 185.078125 145.78125 C 183.1875 149.972656 180.246094 152.890625 176.300781 153.558594 C 173.367188 153.992188 171.265625 153.746094 169.269531 152.871094 C 167.21875 151.976562 165.925781 150.386719 165.59375 148.171875 C 165.433594 147.105469 164.960938 146.539062 163.996094 146.15625 C 163.074219 145.789062 162.132812 145.238281 162.136719 144.09375 C 162.136719 142.90625 163.152344 142.398438 164.082031 142.132812 C 165.636719 141.683594 166.753906 140.996094 167.667969 139.492188 C 168.972656 137.339844 172.5625 137.035156 174.589844 138.558594 C 175.828125 139.484375 176.125 140.738281 175.835938 142.210938 C 175.746094 142.65625 175.285156 143.1875 175.773438 143.578125 C 176.265625 143.964844 176.828125 143.628906 177.328125 143.417969 C 178.878906 142.765625 180.304688 141.785156 182.070312 141.683594 C 183.320312 141.613281 184.777344 141.191406 185.621094 142.273438 C 186.507812 143.410156 185.589844 144.65625 185.078125 145.78125 Z M 113.480469 212.144531 C 115.304688 210.078125 115.492188 207.484375 116.035156 204.988281 C 116.476562 202.953125 116.902344 200.90625 117.496094 198.917969 C 121.796875 184.527344 126.765625 170.339844 130.035156 155.644531 C 131.417969 149.441406 132.742188 143.222656 134.542969 137.113281 C 136.488281 130.515625 139.386719 124.296875 142.050781 117.984375 C 142.320312 117.351562 142.992188 116.605469 142.554688 116.023438 C 142.171875 115.511719 141.351562 116.167969 140.734375 116.113281 C 140.382812 116.164062 140.058594 116.242188 139.730469 116.25 C 138.800781 116.277344 137.867188 116.277344 136.9375 116.285156 C 129.808594 116.351562 123.53125 113.882812 117.753906 109.886719 C 116.167969 108.792969 115.816406 107.339844 116.21875 105.570312 C 116.621094 103.789062 117.992188 103.0625 119.488281 102.390625 C 126.148438 99.394531 133.34375 98.273438 140.351562 96.53125 C 148.972656 94.390625 157.589844 92.324219 165.929688 89.175781 C 171.675781 87.007812 177.777344 85.984375 183.664062 84.257812 C 187.609375 83.097656 191.609375 82.070312 195.011719 79.605469 C 195.585938 79.191406 196.53125 78.855469 196.125 77.859375 C 195.691406 76.792969 194.742188 76.941406 193.867188 77.160156 C 191.472656 77.757812 189.078125 78.351562 186.703125 79.007812 C 181.628906 80.40625 176.710938 82.277344 171.734375 83.976562 C 164.207031 86.546875 156.453125 88.3125 148.789062 90.398438 C 137.53125 93.464844 126.355469 96.835938 115.125 99.996094 C 113.546875 100.441406 112.519531 101.226562 111.839844 102.664062 C 109.628906 107.335938 108.039062 112.207031 106.5625 117.160156 C 102.34375 131.3125 98.738281 145.605469 95.9375 160.097656 C 93.933594 170.453125 90.292969 180.378906 88.058594 190.675781 C 87.234375 194.476562 86.214844 198.253906 84.996094 201.945312 C 82.6875 208.949219 80.941406 216.0625 80.136719 223.402344 C 79.996094 224.671875 79.960938 225.949219 80.648438 227.078125 C 82.222656 229.679688 84.277344 231.75 87.234375 232.761719 C 90.242188 233.792969 93.246094 234.832031 96.421875 235.265625 C 101.339844 235.9375 106.226562 236.117188 111.066406 234.683594 C 112.378906 234.296875 113.121094 233.882812 112.164062 232.417969 C 111.585938 231.539062 111.433594 230.46875 111.339844 229.425781 C 110.882812 224.296875 111.488281 219.25 112.609375 214.257812 C 112.773438 213.519531 113.003906 212.6875 113.480469 212.144531 Z M 108.632812 118.46875 C 108.808594 117.628906 109.457031 117.527344 110.152344 118.027344 C 110.507812 118.28125 110.890625 118.511719 111.207031 118.808594 C 116.808594 124.054688 123.878906 125.441406 131.113281 126.339844 C 133.105469 126.585938 133.378906 126.765625 133.234375 128.714844 C 133.042969 131.351562 131.640625 133.589844 130.890625 136.042969 C 130.664062 136.785156 129.929688 136.707031 129.351562 136.65625 C 121.648438 135.992188 114.570312 133.644531 108.4375 128.804688 C 107.34375 127.9375 107.335938 127.839844 107.164062 126.117188 C 106.585938 123.367188 108.101562 121.011719 108.632812 118.46875 Z M 109.996094 219.902344 C 109.671875 222.910156 108.398438 225.6875 107.613281 228.582031 C 107.308594 229.699219 105.878906 229.742188 104.789062 230.003906 C 101.898438 230.007812 98.988281 229.777344 96.234375 228.824219 C 93.1875 227.769531 90.121094 226.703125 87.488281 224.734375 C 85.105469 222.957031 83.761719 220.789062 84.679688 217.664062 C 85.03125 216.464844 85.148438 215.195312 85.40625 213.964844 C 85.753906 212.320312 86.402344 211.984375 87.8125 212.917969 C 92.488281 216.019531 97.800781 217.257812 103.175781 218.34375 C 104.796875 218.667969 106.410156 218.714844 108.050781 218.308594 C 109.4375 217.96875 110.144531 218.527344 109.996094 219.902344 Z M 109.996094 219.902344 " fill-opacity="1" fill-rule="nonzero"/></g></g></g><g clip-path="url(#5d62d429a8)"><g clip-path="url(#3a66d2bd91)"><g clip-path="url(#6af4c1f836)"><path fill="#ffa8dc" d="M 190.699219 156.363281 C 197.566406 152.359375 204.738281 148.957031 211.910156 145.550781 C 212.796875 145.128906 213.628906 144.660156 214.710938 144.863281 C 225.4375 146.894531 236.332031 147.730469 247.109375 149.355469 C 254.855469 150.519531 262.539062 152.097656 270.257812 153.449219 C 272.460938 153.835938 274.691406 154.082031 276.90625 154.394531 C 273.328125 156.492188 269.800781 158.363281 266.414062 160.476562 C 265.785156 160.871094 265.296875 160.773438 264.84375 160.222656 C 264.671875 160.011719 264.460938 159.828125 264.265625 159.636719 C 261.316406 156.757812 258.308594 156.394531 254.417969 158.703125 C 253.457031 159.273438 252.980469 159.417969 252.921875 158.09375 C 252.8125 155.746094 249.257812 154.695312 246.765625 155.183594 C 245.253906 155.476562 243.851562 156.601562 242.460938 156.628906 C 241.160156 156.65625 240.519531 154.667969 239.171875 153.988281 C 237.5625 153.171875 236.027344 153.082031 234.476562 153.953125 C 233.570312 154.460938 232.710938 155.058594 231.882812 155.6875 C 231.320312 156.113281 231.007812 156.226562 230.425781 155.59375 C 226.945312 151.804688 224.589844 151.488281 220.207031 154.207031 C 219.328125 154.75 218.90625 154.988281 218.339844 153.792969 C 217.261719 151.523438 215.199219 150.5625 212.796875 150.710938 C 210.496094 150.851562 208.957031 152.296875 208.300781 154.472656 C 207.972656 155.558594 207.597656 155.800781 206.511719 155.460938 C 205.21875 155.054688 203.882812 155.410156 202.648438 155.855469 C 200.617188 156.589844 200.011719 157.601562 200.027344 160.023438 C 196.269531 158.890625 192.5 158.019531 188.453125 157.753906 C 189.164062 156.90625 190.011719 156.765625 190.699219 156.363281 Z M 190.699219 156.363281 " fill-opacity="1" fill-rule="nonzero"/></g></g></g><g clip-path="url(#1246561450)"><g clip-path="url(#7c840a6dae)"><g clip-path="url(#735d77f10a)"><path fill="#f8eaff" d="M 125.921875 218.835938 C 125.726562 219.648438 126.410156 219.988281 127.074219 220.171875 C 130.191406 221.027344 133.3125 221.878906 136.441406 222.699219 C 138.355469 223.203125 140.21875 223.835938 142.019531 224.65625 C 145.679688 226.3125 149.449219 227.761719 153.355469 228.570312 C 160.359375 230.011719 166.695312 233.171875 173.308594 235.644531 C 181.511719 238.710938 189.597656 242.144531 198.046875 244.535156 C 202.09375 245.679688 206.324219 246.183594 210.121094 248.207031 C 211.066406 248.710938 211.46875 249.164062 211.164062 250.1875 C 211.054688 250.550781 211.054688 250.949219 211.011719 251.328125 C 210.679688 254.359375 210.660156 254.363281 207.792969 253.523438 C 204.203125 252.476562 200.722656 251.183594 197.402344 249.4375 C 193.203125 247.230469 188.636719 245.992188 184.128906 244.605469 C 182.082031 243.972656 180.042969 243.328125 178.109375 242.402344 C 172.195312 239.558594 165.792969 238.125 159.625 236.015625 C 158.070312 235.484375 156.515625 234.9375 155.003906 234.292969 C 145.558594 230.292969 135.875 226.917969 126.28125 223.308594 C 125.515625 223.019531 124.726562 222.753906 123.878906 222.875 C 123.480469 222.929688 123.109375 223.050781 123 223.492188 C 122.886719 223.929688 123.164062 224.21875 123.488281 224.445312 C 123.664062 224.570312 123.867188 224.671875 124.074219 224.738281 C 131.8125 227.195312 139.207031 230.585938 146.894531 233.191406 C 152.027344 234.9375 156.828125 237.585938 162.117188 238.9375 C 171.804688 241.40625 180.730469 246.113281 190.421875 248.601562 C 192.914062 249.238281 195.257812 250.371094 197.585938 251.488281 C 201.453125 253.347656 205.4375 254.875 209.707031 255.503906 C 210.339844 255.597656 210.523438 255.851562 210.550781 256.449219 C 210.609375 257.652344 210.699219 258.859375 210.863281 260.050781 C 211 261.023438 210.699219 261.25 209.800781 260.921875 C 208.875 260.578125 207.917969 260.328125 206.992188 259.984375 C 197.351562 256.394531 187.492188 253.429688 178.097656 249.125 C 172.890625 246.738281 167.144531 245.613281 161.804688 243.4375 C 154.546875 240.480469 147.054688 238.113281 139.949219 234.757812 C 135.667969 232.734375 131.058594 231.648438 126.5625 230.230469 C 126.304688 230.148438 126.03125 230.09375 125.757812 230.070312 C 125.207031 230.023438 124.578125 229.957031 124.375 230.632812 C 124.136719 231.421875 124.765625 231.703125 125.34375 231.898438 C 127.265625 232.539062 129.179688 233.21875 131.136719 233.753906 C 134.640625 234.714844 137.90625 236.265625 141.261719 237.617188 C 151.941406 241.914062 162.625 246.203125 173.632812 249.617188 C 178.882812 251.246094 183.816406 253.671875 188.839844 255.863281 C 190.453125 256.566406 192.074219 257.242188 193.816406 257.527344 C 198.027344 258.21875 201.796875 260.242188 205.839844 261.441406 C 206.996094 261.785156 208.125 262.269531 209.304688 262.46875 C 210.972656 262.75 211.75 263.671875 211.851562 265.40625 C 204.835938 264.332031 198.316406 261.867188 191.746094 259.605469 C 188.582031 258.515625 185.433594 257.402344 182.148438 256.714844 C 178.695312 255.992188 175.414062 254.6875 172.214844 253.265625 C 165.328125 250.210938 157.988281 248.441406 151.039062 245.578125 C 146.378906 243.65625 141.625 241.984375 136.761719 240.59375 C 133.210938 239.574219 130.195312 237.332031 127.046875 235.445312 C 126.292969 234.992188 125.601562 234.398438 124.796875 234.082031 C 120.367188 232.316406 119.742188 228.523438 119.773438 224.5 C 119.785156 222.769531 120.214844 221.015625 120.628906 219.316406 C 121.550781 215.535156 123.980469 213.835938 127.867188 214.226562 C 130.609375 214.503906 133.207031 215.464844 135.851562 216.160156 C 152.945312 220.660156 169.628906 226.355469 186.03125 232.972656 C 193.03125 235.796875 200.398438 237.703125 207.605469 240.007812 C 209.273438 240.542969 210.957031 241.046875 212.65625 241.472656 C 213.613281 241.714844 213.632812 242.085938 213.144531 242.816406 C 212.535156 243.738281 212.109375 244.769531 211.921875 245.851562 C 211.714844 247.007812 211.210938 246.957031 210.34375 246.503906 C 207.550781 245.054688 204.523438 244.335938 201.492188 243.535156 C 196.253906 242.152344 191.042969 240.601562 186.097656 238.308594 C 181.316406 236.089844 176.054688 235.109375 171.359375 232.6875 C 165.363281 229.589844 158.917969 227.84375 152.433594 226.183594 C 149.082031 225.324219 145.871094 224.03125 142.699219 222.648438 C 137.847656 220.53125 132.644531 219.582031 127.558594 218.257812 C 126.90625 218.085938 126.128906 217.988281 125.921875 218.835938 Z M 141.070312 190.394531 C 142.765625 190.539062 144.445312 190.769531 146.097656 191.1875 C 157.203125 193.988281 168.054688 197.691406 179.210938 200.347656 C 185.117188 201.753906 190.835938 203.941406 196.679688 205.625 C 199.84375 206.535156 199.882812 206.394531 199.898438 203.226562 C 199.902344 202.953125 199.917969 202.679688 199.898438 202.410156 C 199.859375 201.914062 199.648438 201.753906 199.089844 201.644531 C 196.296875 201.09375 193.484375 200.582031 190.765625 199.761719 C 178.542969 196.070312 166.601562 191.492188 154.171875 188.417969 C 148.761719 187.074219 143.523438 185.007812 138.234375 183.203125 C 136.90625 182.75 136.320312 182.828125 136.5 184.433594 C 136.648438 185.734375 136.574219 187.058594 136.621094 188.371094 C 136.757812 192.472656 136.574219 196.585938 137.226562 200.671875 C 137.449219 202.070312 138.089844 202.816406 139.355469 203.238281 C 144.921875 205.085938 150.359375 207.3125 156.101562 208.636719 C 168.285156 211.445312 180.425781 214.398438 192.359375 218.179688 C 195.675781 219.230469 199.019531 220.222656 202.480469 221.378906 C 202 219.9375 201.570312 218.710938 201.191406 217.464844 C 201.042969 216.984375 200.738281 216.75 200.308594 216.582031 C 198.527344 215.882812 196.78125 215.09375 194.984375 214.410156 C 188.351562 211.886719 181.332031 210.738281 174.617188 208.519531 C 165.714844 205.578125 156.8125 202.648438 147.640625 200.652344 C 145.496094 200.183594 143.351562 199.726562 141.214844 199.246094 C 140.464844 199.074219 139.789062 198.714844 140.082031 197.789062 C 140.355469 196.921875 141.054688 197.167969 141.726562 197.308594 C 152.308594 199.515625 162.742188 202.273438 172.925781 205.917969 C 179.800781 208.378906 187.101562 209.316406 193.953125 211.882812 C 196.140625 212.703125 198.355469 213.449219 200.605469 214.542969 C 200.742188 212.699219 200.4375 211.136719 200.34375 209.5625 C 200.285156 208.574219 199.917969 208.09375 198.855469 208.0625 C 196.472656 207.996094 194.226562 207.257812 191.984375 206.511719 C 189.433594 205.664062 186.855469 204.902344 184.332031 203.976562 C 178.289062 201.761719 171.90625 200.820312 165.78125 198.910156 C 160.707031 197.324219 155.636719 195.71875 150.484375 194.390625 C 147.25 193.558594 144.085938 192.445312 140.753906 192 C 140.125 191.917969 139.199219 191.808594 139.3125 190.992188 C 139.445312 190.019531 140.382812 190.335938 141.070312 190.394531 Z M 194.789062 87.054688 C 192.503906 88.148438 190.007812 88.628906 187.652344 89.527344 C 181.308594 91.953125 174.933594 94.320312 168.421875 96.230469 C 163.695312 97.617188 158.804688 98.441406 154.027344 99.660156 C 145.261719 101.902344 136.804688 105.15625 128.132812 107.714844 C 127.183594 107.996094 125.761719 108.992188 125.308594 107.503906 C 124.871094 106.085938 126.582031 105.976562 127.527344 105.664062 C 131.847656 104.238281 136.210938 102.949219 140.527344 101.523438 C 145.628906 99.835938 150.722656 98.179688 155.992188 97.058594 C 160.972656 96 166 95.070312 170.832031 93.394531 C 178.128906 90.867188 185.339844 88.097656 192.757812 85.925781 C 193.207031 85.792969 194.132812 85.753906 193.667969 84.996094 C 193.324219 84.429688 193.335938 83.070312 191.90625 83.695312 C 188.886719 85.019531 185.707031 85.878906 182.542969 86.769531 C 177.375 88.226562 172.027344 89.195312 167.035156 91.105469 C 155.148438 95.652344 142.734375 98.175781 130.453125 101.207031 C 126.8125 102.105469 123.3125 103.328125 119.882812 104.777344 C 117.976562 105.582031 117.84375 107.101562 119.492188 108.253906 C 123.644531 111.15625 128.1875 113.183594 133.222656 113.878906 C 137.332031 114.445312 141.375 114.265625 145.285156 112.480469 C 148.167969 111.160156 151.207031 110.171875 154.195312 109.097656 C 158.632812 107.503906 163.335938 106.78125 167.722656 105.007812 C 179.570312 100.210938 191.621094 96.050781 204.113281 93.222656 C 206.109375 92.769531 208.175781 92.300781 210.234375 91.070312 C 208.734375 90.839844 207.515625 90.777344 206.375 90.445312 C 204.777344 89.980469 203.324219 90.105469 201.726562 90.574219 C 198.40625 91.550781 195.292969 93.058594 192 94.097656 C 184.582031 96.441406 177.011719 98.277344 169.683594 100.914062 C 166.746094 101.96875 163.925781 103.332031 160.898438 104.160156 C 152.339844 106.5 143.6875 108.519531 135.28125 111.417969 C 134.527344 111.679688 133.546875 112.085938 133.140625 111.019531 C 132.722656 109.921875 133.773438 109.667969 134.503906 109.355469 C 138.699219 107.535156 143.199219 106.707031 147.554688 105.414062 C 153.746094 103.578125 160.164062 102.492188 166.152344 99.96875 C 170.050781 98.328125 174.097656 97.128906 178.167969 96.027344 C 185.621094 94.007812 193.03125 91.855469 200.480469 89 C 198.796875 88.289062 197.335938 87.6875 195.890625 87.050781 C 195.503906 86.882812 195.15625 86.878906 194.789062 87.054688 Z M 217.304688 156.417969 C 217.015625 153.933594 215.421875 152.34375 213.285156 152.324219 C 211.464844 152.304688 210.058594 153.796875 209.679688 156.152344 C 209.625 156.476562 209.605469 156.808594 209.550781 157.128906 C 209.3125 158.503906 208.671875 158.847656 207.738281 157.917969 C 206.566406 156.75 205.300781 156.875 203.929688 157.183594 C 202.992188 157.394531 201.949219 157.710938 201.8125 158.730469 C 201.660156 159.847656 202.707031 160.382812 203.550781 160.898438 C 203.734375 161.011719 203.957031 161.054688 204.167969 161.113281 C 210.871094 162.984375 217.554688 164.9375 224.414062 166.167969 C 231.375 167.421875 238.253906 169.042969 245.101562 170.769531 C 246.800781 171.195312 247.953125 171 249.253906 169.980469 C 251.636719 168.117188 254.289062 166.675781 257 165.34375 C 258.867188 164.425781 260.710938 163.453125 262.597656 162.574219 C 263.636719 162.09375 263.585938 161.699219 262.816406 160.957031 C 260.140625 158.378906 257.34375 158.511719 254.132812 161.453125 C 253.535156 162 253 162.832031 252.058594 162.472656 C 251.050781 162.085938 251.386719 161.117188 251.378906 160.320312 C 251.359375 157.832031 249.976562 156.550781 247.496094 156.984375 C 245.558594 157.320312 243.640625 157.90625 242.390625 159.648438 C 242.082031 160.074219 241.730469 160.417969 241.15625 160.21875 C 240.589844 160.019531 240.574219 159.53125 240.542969 159.007812 C 240.335938 155.691406 237.347656 154.164062 234.609375 155.980469 C 233.929688 156.433594 233.28125 156.953125 232.675781 157.503906 C 230.734375 159.273438 230.742188 159.285156 229.378906 157.132812 C 227.984375 154.929688 226.152344 153.886719 224.246094 154.339844 C 222.453125 154.765625 220.90625 155.6875 219.601562 157.003906 C 219.132812 157.476562 218.964844 158.453125 218.027344 158.15625 C 217.132812 157.875 217.46875 156.960938 217.304688 156.417969 Z M 213.351562 251.46875 C 213.347656 251.742188 213.253906 252.015625 213.257812 252.285156 C 213.273438 252.808594 212.761719 253.4375 213.265625 253.816406 C 213.773438 254.199219 214.289062 253.625 214.769531 253.425781 C 220.800781 250.902344 226.644531 248.007812 231.996094 244.230469 C 238.472656 239.660156 245.6875 236.390625 252.515625 232.445312 C 257.910156 229.328125 263.0625 225.734375 268.949219 223.484375 C 272.121094 222.273438 275.222656 220.863281 278.28125 219.390625 C 286.320312 215.515625 293.625 210.214844 302.101562 207.191406 C 302.664062 206.988281 302.949219 206.59375 302.9375 205.933594 C 302.917969 204.242188 302.960938 202.550781 302.980469 200.589844 C 302.402344 200.933594 301.972656 201.160156 301.566406 201.429688 C 297.304688 204.25 292.789062 206.609375 288.132812 208.683594 C 280.066406 212.269531 272.050781 215.914062 264.648438 220.800781 C 261.863281 222.636719 258.917969 224.261719 255.929688 225.742188 C 250.460938 228.445312 245.273438 231.597656 240.183594 234.945312 C 232.335938 240.101562 223.839844 244.101562 215.527344 248.414062 C 213.984375 249.210938 213.386719 249.949219 213.351562 251.46875 Z M 215.085938 261.125 C 217.457031 260.082031 219.644531 258.730469 221.792969 257.308594 C 227.054688 253.839844 232.300781 250.386719 238.09375 247.789062 C 242.183594 245.957031 246.148438 243.789062 249.984375 241.464844 C 253.644531 239.25 257.339844 237.121094 261.15625 235.191406 C 264.332031 233.582031 267.503906 231.964844 270.636719 230.269531 C 277.855469 226.359375 284.835938 222.003906 292.417969 218.765625 C 296.144531 217.175781 299.808594 215.414062 303.21875 213.191406 C 303.960938 212.707031 303.855469 209.421875 303.074219 209.03125 C 302.875 208.933594 302.535156 209.011719 302.304688 209.113281 C 298.535156 210.742188 294.710938 212.226562 291.179688 214.386719 C 285.757812 217.703125 280.234375 220.839844 274.367188 223.34375 C 268.570312 225.816406 262.835938 228.394531 257.566406 231.941406 C 254.4375 234.046875 251.144531 235.980469 247.738281 237.585938 C 242.757812 239.933594 238.054688 242.722656 233.492188 245.757812 C 228.039062 249.382812 222.296875 252.445312 216.191406 254.800781 C 212.519531 256.214844 212.5 256.164062 212.988281 259.96875 C 213.242188 261.976562 213.230469 261.945312 215.085938 261.125 Z M 303.898438 214.949219 C 301.699219 216.398438 299.324219 217.535156 296.988281 218.746094 C 292.3125 221.164062 287.28125 222.820312 282.710938 225.453125 C 274.925781 229.941406 267.175781 234.5 259.011719 238.285156 C 254.125 240.550781 249.828125 243.820312 245.03125 246.265625 C 237.179688 250.269531 229.261719 254.199219 222.066406 259.378906 C 220.019531 260.851562 217.757812 261.988281 215.425781 262.972656 C 214.824219 263.226562 213.707031 263.082031 213.992188 264.289062 C 214.261719 265.433594 215.988281 267.109375 216.882812 267 C 217.378906 266.769531 218.09375 266.566406 218.660156 266.160156 C 222.816406 263.167969 227.480469 261.0625 231.886719 258.507812 C 239.1875 254.28125 246.160156 249.480469 253.84375 245.90625 C 256.125 244.84375 258.347656 243.640625 260.550781 242.417969 C 266.875 238.90625 273.152344 235.332031 279.695312 232.210938 C 288.054688 228.226562 296.324219 224.039062 304.363281 219.421875 C 305.261719 218.90625 306.773438 218.703125 307.019531 218.003906 C 307.34375 217.09375 305.941406 216.273438 305.535156 215.265625 C 305.148438 214.308594 304.628906 214.464844 303.898438 214.949219 Z M 278.441406 160.457031 C 278.476562 159.21875 278.511719 157.980469 278.554688 156.484375 C 277.59375 156.949219 276.855469 157.277344 276.144531 157.65625 C 269.378906 161.265625 262.832031 165.289062 255.890625 168.570312 C 254.199219 169.367188 252.640625 170.40625 251.148438 171.523438 C 247.84375 173.992188 244.257812 176 240.628906 177.925781 C 237.71875 179.46875 234.867188 181.113281 232.148438 182.960938 C 228.917969 185.152344 225.542969 187.054688 222.0625 188.8125 C 218.050781 190.839844 214.171875 193.109375 210.535156 195.773438 C 208.71875 197.105469 206.859375 198.4375 204.714844 199.128906 C 202.519531 199.839844 201.5 200.890625 201.996094 203.363281 C 202.335938 205.046875 202.140625 205.167969 203.566406 204.1875 C 212.507812 198.066406 222.453125 193.757812 231.914062 188.589844 C 241.207031 183.519531 250.027344 177.699219 259.144531 172.363281 C 263.632812 169.738281 267.535156 166.171875 272.363281 164.09375 C 274.234375 163.289062 275.957031 162.222656 277.738281 161.257812 C 278.089844 161.066406 278.429688 160.925781 278.441406 160.457031 Z M 278.324219 163.300781 C 278.121094 163.382812 277.914062 163.445312 277.734375 163.546875 C 272.804688 166.382812 267.75 169.011719 263.152344 172.410156 C 259.136719 175.378906 254.613281 177.554688 250.421875 180.242188 C 242.253906 185.488281 233.753906 190.132812 225.230469 194.757812 C 218.691406 198.304688 211.789062 201.183594 205.652344 205.496094 C 202.101562 207.992188 202.015625 207.820312 202.652344 212.140625 C 202.824219 213.328125 203.191406 213.375 204.082031 212.757812 C 206.113281 211.363281 208.109375 209.882812 210.257812 208.691406 C 213.667969 206.796875 216.984375 204.785156 220.121094 202.472656 C 222.109375 201.003906 224.140625 199.589844 226.382812 198.550781 C 234.65625 194.710938 242.210938 189.609375 250.089844 185.085938 C 259.003906 179.964844 267.941406 174.816406 275.855469 168.144531 C 276.1875 167.863281 276.566406 167.632812 276.933594 167.390625 C 278.953125 166.046875 279.007812 165.898438 278.324219 163.300781 Z M 278.730469 169.136719 C 277.957031 168.773438 277.355469 169.808594 276.714844 170.265625 C 273.074219 172.882812 269.984375 176.265625 265.78125 178.097656 C 264.015625 178.867188 262.433594 179.957031 260.820312 181.003906 C 252.21875 186.578125 243.246094 191.539062 234.433594 196.757812 C 229.253906 199.824219 223.808594 202.417969 218.910156 205.996094 C 214.21875 209.421875 208.890625 211.878906 204.175781 215.292969 C 203.578125 215.726562 202.902344 216.011719 203.160156 216.957031 C 203.546875 218.039062 203.921875 219.125 204.324219 220.199219 C 204.589844 220.902344 204.921875 221.066406 205.660156 220.59375 C 214.03125 215.273438 222.160156 209.582031 230.570312 204.316406 C 239.488281 198.734375 248.128906 192.71875 256.917969 186.929688 C 259.894531 184.972656 263.042969 183.265625 265.953125 181.21875 C 269.464844 178.757812 272.949219 176.289062 276.980469 174.742188 C 278.59375 174.125 279.585938 173.210938 279.0625 171.285156 C 278.867188 170.570312 279.414062 169.453125 278.730469 169.136719 Z M 288.996094 202.53125 C 279.824219 207.320312 270.875 212.542969 261.769531 217.476562 C 249.652344 224.039062 237.152344 229.984375 225.691406 237.761719 C 222.882812 239.671875 219.988281 241.726562 216.375 242.027344 C 216.066406 242.054688 215.859375 242.21875 215.769531 242.496094 C 215.277344 243.992188 214.28125 245.3125 214.21875 247.019531 C 214.828125 247.175781 215.121094 246.863281 215.4375 246.679688 C 224.460938 241.386719 234.023438 237.050781 242.6875 231.113281 C 249.027344 226.765625 256.238281 223.925781 262.78125 219.917969 C 268.625 216.339844 274.492188 212.820312 280.804688 210.101562 C 285.984375 207.867188 291.152344 205.597656 296.085938 202.84375 C 300.621094 200.3125 305.21875 197.832031 307.164062 192.46875 C 306.800781 192.636719 306.398438 192.78125 306.039062 193 C 300.488281 196.414062 294.777344 199.511719 288.996094 202.53125 Z M 288.996094 202.53125 " fill-opacity="1" fill-rule="nonzero"/></g></g></g><g clip-path="url(#0bcf29f210)"><g clip-path="url(#6d2d04fca8)"><g clip-path="url(#c09e5babc7)"><path fill="#ffffff" d="M 223.039062 185.660156 C 227.355469 183.582031 231.070312 180.5625 235.59375 178.039062 C 233.0625 177.113281 230.859375 176.96875 228.734375 176.5 C 221.230469 174.84375 214.042969 171.992188 206.519531 170.480469 C 197.703125 168.710938 188.863281 167.109375 180.308594 164.257812 C 179.015625 163.824219 177.65625 163.574219 176.335938 163.210938 C 175.28125 162.921875 174.335938 163.0625 173.328125 163.542969 C 169.273438 165.476562 165.429688 167.84375 161.179688 169.378906 C 154.675781 171.726562 148.328125 174.425781 142.242188 177.722656 C 140.535156 178.644531 138.71875 179.394531 137.074219 180.902344 C 143.273438 182.210938 148.902344 184.546875 154.710938 186.304688 C 160.800781 188.144531 167.089844 189.234375 173.09375 191.410156 C 180.980469 194.265625 188.863281 197.160156 197.066406 199.027344 C 197.765625 199.1875 198.421875 199.414062 199.144531 199.082031 C 202.476562 197.554688 205.917969 196.253906 208.902344 194.023438 C 213.308594 190.734375 218.089844 188.039062 223.039062 185.660156 Z M 183.097656 188.554688 C 182.757812 189.519531 181.910156 189.199219 181.273438 188.953125 C 176.257812 187.007812 171.09375 185.542969 165.960938 183.976562 C 164.757812 183.605469 163.539062 183.289062 162.332031 182.929688 C 161.824219 182.777344 161.394531 182.472656 161.5625 181.863281 C 161.695312 181.382812 162.109375 181.214844 162.613281 181.230469 C 163.3125 181.351562 164.035156 181.394531 164.710938 181.605469 C 170.457031 183.398438 176.324219 184.835938 181.90625 187.148438 C 182.542969 187.410156 183.445312 187.566406 183.097656 188.554688 Z M 183.957031 144.257812 C 182.976562 147.871094 178.867188 151.496094 175.117188 152.007812 C 171.496094 152.503906 168.339844 150.910156 167.453125 148.136719 C 167.386719 147.929688 167.242188 147.699219 167.28125 147.515625 C 167.628906 145.9375 166.601562 145.402344 165.421875 144.910156 C 164.960938 144.714844 164.171875 144.703125 164.214844 144.027344 C 164.25 143.480469 164.972656 143.417969 165.417969 143.332031 C 166.972656 143.023438 168.09375 142.492188 168.742188 140.761719 C 169.339844 139.167969 172.40625 138.949219 173.671875 140.125 C 174.449219 140.851562 174.253906 141.683594 173.957031 142.550781 C 173.128906 144.953125 173.796875 145.769531 176.355469 145.558594 C 177.421875 145.46875 178.371094 145.082031 179.285156 144.570312 C 180.554688 143.851562 181.945312 143.605469 183.375 143.5 C 183.988281 143.457031 184.121094 143.648438 183.957031 144.257812 Z M 107.488281 221.773438 C 106.882812 223.53125 106.265625 225.292969 105.773438 227.085938 C 105.59375 227.746094 105.238281 227.820312 104.730469 227.84375 C 103.011719 227.976562 101.328125 227.671875 99.6875 227.269531 C 95.574219 226.261719 91.59375 224.859375 88.132812 222.332031 C 86.523438 221.152344 86.183594 217.234375 87.402344 215.671875 C 87.816406 215.136719 88.070312 215.589844 88.34375 215.75 C 94 219.089844 100.179688 220.484375 106.667969 220.667969 C 107.671875 220.699219 107.777344 220.9375 107.488281 221.773438 Z M 109.714844 127.273438 C 109.050781 126.816406 108.6875 126.25 108.863281 125.472656 C 109.21875 123.886719 109.644531 122.320312 110.0625 120.648438 C 115.59375 126.027344 122.578125 127.351562 129.671875 128.3125 C 131.089844 128.507812 131.207031 128.992188 130.847656 130.199219 C 129.503906 134.691406 129.515625 134.789062 124.988281 133.917969 C 119.417969 132.851562 114.378906 130.472656 109.714844 127.273438 Z M 109.714844 127.273438 " fill-opacity="1" fill-rule="nonzero"/></g></g></g></svg>