<svg xmlns="http://www.w3.org/2000/svg" xmlns:xlink="http://www.w3.org/1999/xlink" width="500" zoomAndPan="magnify" viewBox="0 0 375 374.999991" height="500" preserveAspectRatio="xMidYMid meet" version="1.0"><defs><g/><clipPath id="63c1afd265"><path d="M 45 149.941406 L 133.5625 149.941406 L 133.5625 238.503906 L 45 238.503906 Z M 45 149.941406 " clip-rule="nonzero"/></clipPath><clipPath id="d752f92dbc"><path d="M 89.28125 149.941406 C 64.824219 149.941406 45 169.765625 45 194.222656 C 45 218.679688 64.824219 238.503906 89.28125 238.503906 C 113.738281 238.503906 133.5625 218.679688 133.5625 194.222656 C 133.5625 169.765625 113.738281 149.941406 89.28125 149.941406 Z M 89.28125 149.941406 " clip-rule="nonzero"/></clipPath><clipPath id="43aa92eb13"><path d="M 55.546875 138 L 144 138 L 144 252.707031 L 55.546875 252.707031 Z M 55.546875 138 " clip-rule="nonzero"/></clipPath><clipPath id="e579ebb83d"><path d="M 91 122.292969 L 97 122.292969 L 97 128 L 91 128 Z M 91 122.292969 " clip-rule="nonzero"/></clipPath></defs><g fill="#004aad" fill-opacity="1"><g transform="translate(149.999715, 190.29838)"><g><path d="M 8.050781 -14.410156 C 8.050781 -16.761719 10.4375 -17.421875 12.09375 -17.421875 C 13.488281 -17.421875 14.886719 -16.910156 16.285156 -16.6875 C 16.46875 -16.6875 16.6875 -16.761719 16.796875 -17.019531 C 17.460938 -20.511719 17.605469 -21.6875 17.605469 -21.761719 C 17.605469 -21.945312 17.460938 -22.128906 17.238281 -22.238281 C 15.511719 -23.121094 13.050781 -23.453125 10.917969 -23.453125 C 2.023438 -23.453125 1.652344 -15.695312 1.652344 -15.695312 L 1.652344 -7.460938 C 1.652344 -7.460938 2.023438 0.292969 10.917969 0.292969 C 13.050781 0.292969 15.511719 -0.0351562 17.238281 -0.917969 C 17.460938 -1.027344 17.605469 -1.214844 17.605469 -1.398438 C 17.605469 -1.46875 17.460938 -2.648438 16.796875 -6.136719 C 16.6875 -6.394531 16.46875 -6.46875 16.285156 -6.46875 C 14.886719 -6.25 13.488281 -5.734375 12.09375 -5.734375 C 10.4375 -5.734375 8.050781 -6.394531 8.050781 -8.75 Z M 8.050781 -14.410156 "/></g></g></g><g fill="#004aad" fill-opacity="1"><g transform="translate(169.256722, 190.29838)"><g><path d="M 19.40625 -22.457031 C 19.40625 -22.898438 19.039062 -23.15625 18.746094 -23.15625 L 13.785156 -23.15625 C 13.453125 -23.15625 13.085938 -22.898438 13.085938 -22.457031 L 13.085938 -13.121094 L 8.160156 -13.121094 L 8.160156 -22.457031 C 8.160156 -22.898438 7.792969 -23.15625 7.5 -23.15625 L 2.535156 -23.15625 C 2.207031 -23.15625 1.835938 -22.898438 1.835938 -22.457031 L 1.835938 -0.660156 C 1.835938 -0.21875 2.207031 0 2.535156 0 L 7.5 0 C 7.792969 0 8.160156 -0.21875 8.160156 -0.660156 L 8.160156 -7.351562 L 13.085938 -7.351562 L 13.085938 -0.660156 C 13.085938 -0.21875 13.453125 0 13.785156 0 L 18.746094 0 C 19.039062 0 19.40625 -0.21875 19.40625 -0.660156 Z M 19.40625 -22.457031 "/></g></g></g><g fill="#004aad" fill-opacity="1"><g transform="translate(190.498236, 190.29838)"><g><path d="M 8.160156 -5.625 L 8.160156 -8.820312 L 14.667969 -8.820312 C 15.105469 -8.820312 15.328125 -9.1875 15.328125 -9.484375 L 15.328125 -13.304688 C 15.328125 -13.636719 15.105469 -14.003906 14.667969 -14.003906 L 8.160156 -14.003906 L 8.160156 -17.535156 L 16.246094 -17.535156 C 16.6875 -17.535156 16.910156 -17.902344 16.910156 -18.195312 L 16.910156 -22.457031 C 16.910156 -22.789062 16.6875 -23.15625 16.246094 -23.15625 L 2.535156 -23.15625 C 2.207031 -23.15625 1.835938 -22.898438 1.835938 -22.457031 L 1.835938 -0.699219 C 1.835938 -0.257812 2.207031 0 2.535156 0 L 16.246094 0 C 16.6875 0 16.910156 -0.367188 16.910156 -0.699219 L 16.910156 -4.960938 C 16.910156 -5.257812 16.6875 -5.625 16.246094 -5.625 Z M 8.160156 -5.625 "/></g></g></g><g fill="#004aad" fill-opacity="1"><g transform="translate(209.240738, 190.29838)"><g><path d="M 14.519531 -5 C 14.851562 -5 15.144531 -5.292969 15.363281 -5.660156 L 17.644531 -11.285156 L 17.644531 -0.660156 C 17.644531 -0.21875 18.011719 0 18.304688 0 L 23.265625 0 C 23.597656 0 23.964844 -0.21875 23.964844 -0.660156 L 23.964844 -22.457031 C 23.964844 -22.898438 23.597656 -23.15625 23.265625 -23.15625 L 18.269531 -23.15625 C 17.902344 -23.15625 17.605469 -22.789062 17.421875 -22.457031 L 12.902344 -11.285156 L 8.378906 -22.457031 C 8.195312 -22.789062 7.902344 -23.15625 7.535156 -23.15625 L 2.535156 -23.15625 C 2.207031 -23.15625 1.835938 -22.898438 1.835938 -22.457031 L 1.835938 -0.660156 C 1.835938 -0.21875 2.207031 0 2.535156 0 L 7.5 0 C 7.792969 0 8.160156 -0.21875 8.160156 -0.660156 L 8.160156 -11.285156 L 10.4375 -5.660156 C 10.660156 -5.292969 10.953125 -5 11.285156 -5 Z M 14.519531 -5 "/></g></g></g><g fill="#dd58aa" fill-opacity="1"><g transform="translate(235.042679, 190.29838)"><g><path d="M 13.195312 -5.808594 C 12.535156 -5.625 11.726562 -5.511719 10.992188 -5.511719 C 9.335938 -5.511719 7.867188 -6.394531 7.867188 -8.75 L 7.867188 -14.410156 C 7.867188 -16.761719 9.960938 -17.421875 11.617188 -17.421875 C 13.011719 -17.421875 14.667969 -16.945312 16.0625 -16.726562 C 16.246094 -16.726562 16.46875 -16.796875 16.578125 -17.054688 C 17.238281 -20.546875 17.386719 -21.722656 17.386719 -21.796875 C 17.386719 -21.980469 17.238281 -22.164062 17.019531 -22.273438 C 15.292969 -23.15625 12.570312 -23.453125 10.4375 -23.453125 C 1.542969 -23.453125 1.46875 -15.695312 1.46875 -15.695312 L 1.46875 -7.460938 C 1.46875 -6.136719 2.207031 0.292969 11.101562 0.292969 C 12.242188 0.292969 18.414062 -0.292969 18.414062 -1.984375 L 18.414062 -13.453125 C 18.414062 -13.894531 18.046875 -14.152344 17.71875 -14.152344 L 11.542969 -14.152344 C 11.101562 -14.152344 10.878906 -13.785156 10.878906 -13.453125 L 10.878906 -10.035156 C 10.878906 -9.742188 11.101562 -9.375 11.542969 -9.375 L 13.195312 -9.375 Z M 13.195312 -5.808594 "/></g></g></g><g fill="#dd58aa" fill-opacity="1"><g transform="translate(255.291933, 190.29838)"><g><path d="M 8.160156 -22.457031 C 8.160156 -22.898438 7.792969 -23.15625 7.5 -23.15625 L 2.535156 -23.15625 C 2.207031 -23.15625 1.835938 -22.898438 1.835938 -22.457031 L 1.835938 -0.660156 C 1.835938 -0.21875 2.207031 0 2.535156 0 L 7.5 0 C 7.792969 0 8.160156 -0.21875 8.160156 -0.660156 Z M 8.160156 -22.457031 "/></g></g></g><g fill="#dd58aa" fill-opacity="1"><g transform="translate(265.287935, 190.29838)"><g><path d="M 6.25 -17.753906 L 6.25 -0.660156 C 6.25 -0.21875 6.617188 0 6.945312 0 L 11.910156 0 C 12.203125 0 12.570312 -0.21875 12.570312 -0.660156 L 12.570312 -17.753906 L 17.421875 -17.753906 C 17.863281 -17.753906 18.085938 -18.121094 18.085938 -18.414062 L 18.085938 -22.457031 C 18.085938 -22.789062 17.863281 -23.15625 17.421875 -23.15625 L 1.398438 -23.15625 C 0.957031 -23.15625 0.734375 -22.789062 0.734375 -22.457031 L 0.734375 -18.414062 C 0.734375 -18.121094 0.957031 -17.753906 1.398438 -17.753906 Z M 6.25 -17.753906 "/></g></g></g><g fill="#dd58aa" fill-opacity="1"><g transform="translate(284.103943, 190.29838)"><g><path d="M 14.851562 -0.660156 C 14.960938 -0.257812 15.21875 0 15.511719 0 L 20.472656 0 C 20.769531 0 21.136719 -0.21875 21.136719 -0.660156 L 14.59375 -22.457031 C 14.484375 -22.863281 14.261719 -23.15625 13.929688 -23.15625 L 7.828125 -23.15625 C 7.5 -23.15625 7.277344 -22.863281 7.167969 -22.457031 L 0.550781 -0.660156 C 0.550781 -0.21875 0.917969 0 1.214844 0 L 6.175781 0 C 6.46875 0 6.726562 -0.257812 6.835938 -0.660156 L 7.535156 -3.015625 L 14.152344 -3.015625 Z M 10.878906 -14.296875 L 12.460938 -8.785156 L 9.226562 -8.785156 Z M 10.878906 -14.296875 "/></g></g></g><g fill="#dd58aa" fill-opacity="1"><g transform="translate(305.786456, 190.29838)"><g><path d="M 8.527344 -22.496094 C 8.527344 -22.9375 8.160156 -23.15625 7.867188 -23.15625 L 2.902344 -23.15625 C 2.574219 -23.15625 2.207031 -22.9375 2.207031 -22.496094 L 2.207031 -0.699219 C 2.207031 -0.257812 2.574219 0 2.902344 0 L 16.613281 0 C 17.054688 0 17.277344 -0.367188 17.277344 -0.699219 L 17.277344 -4.742188 C 17.277344 -5.035156 17.054688 -5.402344 16.613281 -5.402344 L 8.527344 -5.402344 Z M 8.527344 -22.496094 "/></g></g></g><g fill="#dd58aa" fill-opacity="1"><g transform="translate(165.68951, 211.395368)"><g><path d="M 1.359375 -9.09375 L 2.65625 -9.09375 L 2.65625 -1.125 L 7.578125 -1.125 L 7.578125 0 L 1.359375 0 Z M 1.359375 -9.09375 "/></g></g></g><g fill="#dd58aa" fill-opacity="1"><g transform="translate(183.781648, 211.395368)"><g><path d="M 7.953125 -1.125 L 7.953125 0 L 1.359375 0 L 1.359375 -9.09375 L 7.78125 -9.09375 L 7.78125 -7.953125 L 2.65625 -7.953125 L 2.65625 -5.171875 L 7.21875 -5.171875 L 7.21875 -4.0625 L 2.65625 -4.0625 L 2.65625 -1.125 Z M 7.953125 -1.125 "/></g></g></g><g fill="#dd58aa" fill-opacity="1"><g transform="translate(202.859706, 211.395368)"><g><path d="M 7.15625 -2.265625 L 2.328125 -2.265625 L 1.328125 0 L -0.015625 0 L 4.109375 -9.09375 L 5.390625 -9.09375 L 9.515625 0 L 8.15625 0 Z M 6.703125 -3.3125 L 4.734375 -7.765625 L 2.78125 -3.3125 Z M 6.703125 -3.3125 "/></g></g></g><g fill="#dd58aa" fill-opacity="1"><g transform="translate(222.742069, 211.395368)"><g><path d="M 7.4375 0 L 5.484375 -2.796875 C 5.234375 -2.773438 5.039062 -2.765625 4.90625 -2.765625 L 2.65625 -2.765625 L 2.65625 0 L 1.359375 0 L 1.359375 -9.09375 L 4.90625 -9.09375 C 6.082031 -9.09375 7.007812 -8.8125 7.6875 -8.25 C 8.363281 -7.6875 8.703125 -6.910156 8.703125 -5.921875 C 8.703125 -5.222656 8.523438 -4.625 8.171875 -4.125 C 7.828125 -3.632812 7.335938 -3.273438 6.703125 -3.046875 L 8.859375 0 Z M 4.875 -3.875 C 5.695312 -3.875 6.320312 -4.050781 6.75 -4.40625 C 7.1875 -4.757812 7.40625 -5.265625 7.40625 -5.921875 C 7.40625 -6.578125 7.1875 -7.078125 6.75 -7.421875 C 6.320312 -7.773438 5.695312 -7.953125 4.875 -7.953125 L 2.65625 -7.953125 L 2.65625 -3.875 Z M 4.875 -3.875 "/></g></g></g><g fill="#dd58aa" fill-opacity="1"><g transform="translate(242.559561, 211.395368)"><g><path d="M 9.1875 -9.09375 L 9.1875 0 L 8.109375 0 L 2.65625 -6.78125 L 2.65625 0 L 1.359375 0 L 1.359375 -9.09375 L 2.421875 -9.09375 L 7.875 -2.3125 L 7.875 -9.09375 Z M 9.1875 -9.09375 "/></g></g></g><g fill="#dd58aa" fill-opacity="1"><g transform="translate(263.479726, 211.395368)"><g><path d="M 1.359375 -9.09375 L 2.65625 -9.09375 L 2.65625 0 L 1.359375 0 Z M 1.359375 -9.09375 "/></g></g></g><g fill="#dd58aa" fill-opacity="1"><g transform="translate(277.887642, 211.395368)"><g><path d="M 9.1875 -9.09375 L 9.1875 0 L 8.109375 0 L 2.65625 -6.78125 L 2.65625 0 L 1.359375 0 L 1.359375 -9.09375 L 2.421875 -9.09375 L 7.875 -2.3125 L 7.875 -9.09375 Z M 9.1875 -9.09375 "/></g></g></g><g fill="#dd58aa" fill-opacity="1"><g transform="translate(298.807807, 211.395368)"><g><path d="M 7.65625 -4.59375 L 8.90625 -4.59375 L 8.90625 -1.046875 C 8.457031 -0.679688 7.929688 -0.394531 7.328125 -0.1875 C 6.734375 0.0078125 6.113281 0.109375 5.46875 0.109375 C 4.550781 0.109375 3.722656 -0.09375 2.984375 -0.5 C 2.242188 -0.90625 1.664062 -1.457031 1.25 -2.15625 C 0.832031 -2.863281 0.625 -3.660156 0.625 -4.546875 C 0.625 -5.429688 0.832031 -6.226562 1.25 -6.9375 C 1.664062 -7.644531 2.242188 -8.195312 2.984375 -8.59375 C 3.734375 -8.988281 4.570312 -9.1875 5.5 -9.1875 C 6.21875 -9.1875 6.875 -9.066406 7.46875 -8.828125 C 8.0625 -8.597656 8.566406 -8.253906 8.984375 -7.796875 L 8.1875 -6.984375 C 7.457031 -7.679688 6.578125 -8.03125 5.546875 -8.03125 C 4.847656 -8.03125 4.222656 -7.878906 3.671875 -7.578125 C 3.128906 -7.285156 2.703125 -6.875 2.390625 -6.34375 C 2.078125 -5.8125 1.921875 -5.210938 1.921875 -4.546875 C 1.921875 -3.890625 2.078125 -3.289062 2.390625 -2.75 C 2.703125 -2.21875 3.128906 -1.800781 3.671875 -1.5 C 4.222656 -1.195312 4.84375 -1.046875 5.53125 -1.046875 C 6.34375 -1.046875 7.050781 -1.242188 7.65625 -1.640625 Z M 7.65625 -4.59375 "/></g></g></g><g clip-path="url(#63c1afd265)"><g clip-path="url(#d752f92dbc)"><path fill="#fdddf0" d="M 45 149.941406 L 133.5625 149.941406 L 133.5625 238.503906 L 45 238.503906 Z M 45 149.941406 " fill-opacity="1" fill-rule="nonzero"/></g></g><path fill="#ff66c4" d="M 61.621094 196.636719 C 63.152344 210.429688 74.847656 221.152344 89.058594 221.152344 C 101.15625 221.152344 111.433594 213.363281 115.160156 202.53125 C 108.222656 204.769531 98.945312 205.007812 89.667969 198.941406 C 78.878906 191.878906 67.976562 194.160156 61.621094 196.636719 Z M 77.921875 212.40625 C 79.171875 212.40625 80.1875 213.421875 80.1875 214.671875 C 80.1875 215.90625 79.171875 216.925781 77.921875 216.925781 C 76.683594 216.925781 75.667969 215.90625 75.667969 214.671875 C 75.667969 213.417969 76.683594 212.40625 77.921875 212.40625 Z M 89.058594 207.898438 C 90.589844 207.898438 91.828125 209.132812 91.828125 210.679688 C 91.828125 212.207031 90.589844 213.445312 89.058594 213.445312 C 87.527344 213.445312 86.277344 212.207031 86.277344 210.679688 C 86.277344 209.136719 87.527344 207.898438 89.058594 207.898438 Z M 82.664062 198.09375 C 84.789062 198.09375 86.5 199.820312 86.5 201.933594 C 86.5 204.058594 84.789062 205.769531 82.664062 205.769531 C 80.546875 205.769531 78.824219 204.058594 78.824219 201.933594 C 78.824219 199.820312 80.546875 198.09375 82.664062 198.09375 Z M 82.664062 198.09375 " fill-opacity="1" fill-rule="evenodd"/><path fill="#ff92d5" d="M 115.160156 202.53125 C 115.160156 202.53125 102.644531 188.195312 88.238281 198.054688 C 88.710938 198.332031 89.195312 198.621094 89.667969 198.945312 C 98.945312 205.007812 108.222656 204.769531 115.160156 202.53125 Z M 99.015625 196.914062 C 100.003906 196.914062 100.796875 197.707031 100.796875 198.691406 C 100.796875 199.667969 100.003906 200.460938 99.015625 200.460938 C 98.042969 200.460938 97.25 199.667969 97.25 198.691406 C 97.25 197.707031 98.042969 196.914062 99.015625 196.914062 Z M 99.015625 196.914062 " fill-opacity="1" fill-rule="evenodd"/><g clip-path="url(#43aa92eb13)"><path fill="#004aad" d="M 100.445312 162.023438 C 113.339844 166.679688 122.558594 179.042969 122.558594 193.546875 C 122.558594 202.433594 119.109375 210.5 113.476562 216.492188 L 116.1875 219.359375 L 111.625 223.699219 L 108.75 220.664062 C 103.214844 224.683594 96.414062 227.0625 89.058594 227.0625 C 70.550781 227.0625 55.546875 212.058594 55.546875 193.546875 C 55.546875 179.046875 64.765625 166.679688 77.65625 162.023438 L 77.65625 145.640625 L 72.09375 145.640625 C 70.046875 145.640625 68.367188 143.972656 68.367188 141.914062 C 68.367188 139.871094 70.050781 138.1875 72.09375 138.1875 L 87.125 138.1875 C 87.03125 138.632812 86.984375 139.09375 86.984375 139.554688 C 86.984375 143.417969 90.113281 146.5625 93.980469 146.5625 C 97.859375 146.5625 100.988281 143.417969 100.988281 139.554688 C 100.988281 139.09375 100.949219 138.636719 100.851562 138.1875 L 106.007812 138.1875 C 108.054688 138.1875 109.734375 139.871094 109.734375 141.914062 C 109.734375 143.972656 108.050781 145.640625 106.007812 145.640625 L 100.445312 145.640625 Z M 117.484375 220.71875 L 119.066406 222.386719 L 114.503906 226.726562 L 112.921875 225.058594 Z M 122.851562 221.402344 C 124.03125 221.316406 125.242188 221.734375 126.121094 222.664062 L 136.257812 233.332031 L 124.535156 244.457031 L 114.398438 233.792969 C 113.519531 232.859375 113.160156 231.632812 113.3125 230.453125 Z M 137.546875 234.695312 L 139.132812 236.378906 L 127.410156 247.488281 L 125.824219 245.820312 Z M 140.425781 237.742188 L 142.429688 239.839844 C 143.988281 241.480469 143.917969 244.09375 142.277344 245.652344 L 136.519531 251.117188 C 134.878906 252.671875 132.265625 252.605469 130.707031 250.960938 L 128.703125 248.847656 Z M 89.058594 165.011719 C 105.007812 165.011719 117.957031 177.960938 117.957031 193.921875 C 117.957031 209.886719 105.007812 222.820312 89.058594 222.820312 C 73.097656 222.820312 60.148438 209.886719 60.148438 193.921875 C 60.148438 177.960938 73.097656 165.011719 89.058594 165.011719 Z M 89.058594 165.011719 " fill-opacity="1" fill-rule="evenodd"/></g><path fill="#ff47b8" d="M 61.621094 196.636719 C 63.152344 210.429688 74.847656 221.152344 89.058594 221.152344 C 101.15625 221.152344 111.433594 213.363281 115.160156 202.53125 C 90.199219 227.785156 74.207031 206.214844 68.101562 194.769531 C 65.640625 195.230469 63.445312 195.925781 61.621094 196.636719 Z M 77.921875 212.40625 C 79.171875 212.40625 80.1875 213.421875 80.1875 214.671875 C 80.1875 215.90625 79.171875 216.925781 77.921875 216.925781 C 76.683594 216.925781 75.667969 215.90625 75.667969 214.671875 C 75.667969 213.417969 76.683594 212.40625 77.921875 212.40625 Z M 77.921875 212.40625 " fill-opacity="1" fill-rule="evenodd"/><path fill="#ff66c4" d="M 93.984375 134.921875 C 96.554688 134.921875 98.628906 136.992188 98.628906 139.550781 C 98.628906 142.109375 96.558594 144.195312 93.984375 144.195312 C 91.421875 144.195312 89.351562 142.109375 89.351562 139.550781 C 89.351562 136.992188 91.421875 134.921875 93.984375 134.921875 Z M 93.984375 134.921875 " fill-opacity="1" fill-rule="evenodd"/><path fill="#ff66c4" d="M 87.351562 127.230469 C 89.324219 127.230469 90.9375 128.832031 90.9375 130.804688 C 90.9375 132.792969 89.324219 134.394531 87.351562 134.394531 C 85.375 134.394531 83.773438 132.792969 83.773438 130.804688 C 83.773438 128.832031 85.375 127.230469 87.351562 127.230469 Z M 87.351562 127.230469 " fill-opacity="1" fill-rule="evenodd"/><g clip-path="url(#e579ebb83d)"><path fill="#ff66c4" d="M 94.203125 122.335938 C 95.621094 122.335938 96.761719 123.476562 96.761719 124.894531 C 96.761719 126.3125 95.621094 127.453125 94.203125 127.453125 C 92.785156 127.453125 91.644531 126.3125 91.644531 124.894531 C 91.644531 123.476562 92.785156 122.335938 94.203125 122.335938 Z M 94.203125 122.335938 " fill-opacity="1" fill-rule="evenodd"/></g><path fill="#004aad" d="M 88.613281 193.921875 L 87.53125 193.921875 C 79.507812 190.109375 70.691406 190 62.179688 192.878906 C 61.707031 186.300781 65.882812 177.804688 72.597656 184.828125 C 72.359375 185.246094 72.21875 185.71875 72.21875 186.234375 C 72.21875 187.777344 73.472656 189.015625 75.015625 189.015625 C 76.558594 189.015625 77.796875 187.777344 77.796875 186.234375 C 77.796875 184.691406 76.558594 183.4375 75.015625 183.4375 C 74.835938 183.4375 74.667969 183.46875 74.515625 183.492188 C 73.125 181.921875 71.34375 181.074219 69.746094 180.628906 C 70.246094 173.171875 78.464844 169.644531 83.886719 172.480469 C 83.832031 174.382812 84.152344 176.761719 85.277344 179.597656 C 84.832031 180.085938 84.554688 180.753906 84.554688 181.476562 C 84.554688 183.007812 85.789062 184.257812 87.335938 184.257812 C 88.878906 184.257812 90.128906 183.003906 90.128906 181.476562 C 90.128906 179.960938 88.90625 178.722656 87.402344 178.679688 C 81.839844 164.691406 98.265625 168.417969 100.253906 172.839844 C 99.015625 173.550781 97.679688 174.648438 96.691406 176.304688 C 95.246094 176.417969 94.121094 177.625 94.121094 179.085938 C 94.121094 180.628906 95.371094 181.863281 96.902344 181.863281 C 98.445312 181.863281 99.695312 180.628906 99.695312 179.085938 C 99.695312 178.332031 99.390625 177.636719 98.902344 177.136719 C 103.464844 170.449219 112.117188 177.082031 111.363281 183.980469 C 109.640625 184.175781 106.957031 184.617188 104.84375 185.632812 C 104.355469 185.191406 103.703125 184.925781 102.992188 184.925781 C 101.449219 184.925781 100.214844 186.175781 100.214844 187.703125 C 100.214844 189.25 101.449219 190.5 102.992188 190.5 C 104.523438 190.5 105.761719 189.277344 105.773438 187.746094 C 114.449219 183.421875 116.453125 190.613281 114.867188 197.648438 C 112.878906 196.007812 110.585938 194.53125 108.511719 193.546875 C 101.78125 190.351562 94.929688 190.488281 88.613281 193.921875 Z M 101.769531 187.707031 C 101.769531 187.039062 102.3125 186.496094 102.992188 186.496094 C 103.675781 186.496094 104.21875 187.039062 104.21875 187.707031 C 104.21875 188.386719 103.675781 188.929688 102.992188 188.929688 C 102.3125 188.929688 101.769531 188.386719 101.769531 187.707031 Z M 95.679688 179.085938 C 95.679688 178.40625 96.234375 177.863281 96.902344 177.863281 C 97.582031 177.863281 98.125 178.40625 98.125 179.085938 C 98.125 179.769531 97.582031 180.3125 96.902344 180.3125 C 96.234375 180.3125 95.679688 179.769531 95.679688 179.085938 Z M 86.109375 181.476562 C 86.109375 180.796875 86.667969 180.253906 87.335938 180.253906 C 88.015625 180.253906 88.558594 180.796875 88.558594 181.476562 C 88.558594 182.144531 88.015625 182.699219 87.335938 182.699219 C 86.667969 182.699219 86.109375 182.144531 86.109375 181.476562 Z M 73.789062 186.234375 C 73.789062 185.554688 74.332031 185.011719 75.011719 185.011719 C 75.679688 185.011719 76.238281 185.554688 76.238281 186.234375 C 76.238281 186.902344 75.679688 187.457031 75.011719 187.457031 C 74.332031 187.457031 73.789062 186.902344 73.789062 186.234375 Z M 73.789062 186.234375 " fill-opacity="1" fill-rule="evenodd"/></svg>