<svg xmlns="http://www.w3.org/2000/svg" xmlns:xlink="http://www.w3.org/1999/xlink" width="500" zoomAndPan="magnify" viewBox="0 0 375 374.999991" height="500" preserveAspectRatio="xMidYMid meet" version="1.0"><defs><clipPath id="c13d902b6f"><path d="M 86 23.90625 L 299.183594 23.90625 L 299.183594 331.40625 L 86 331.40625 Z M 86 23.90625 " clip-rule="nonzero"/></clipPath><clipPath id="647d74807c"><path d="M 86 23.90625 L 290 23.90625 L 290 319 L 86 319 Z M 86 23.90625 " clip-rule="nonzero"/></clipPath><clipPath id="b9c8dd5334"><path d="M 75.683594 37 L 100 37 L 100 44 L 75.683594 44 Z M 75.683594 37 " clip-rule="nonzero"/></clipPath><clipPath id="18a4c510e3"><path d="M 75.683594 60 L 100 60 L 100 67 L 75.683594 67 Z M 75.683594 60 " clip-rule="nonzero"/></clipPath><clipPath id="deef080b93"><path d="M 75.683594 83 L 100 83 L 100 90 L 75.683594 90 Z M 75.683594 83 " clip-rule="nonzero"/></clipPath><clipPath id="c615596615"><path d="M 75.683594 254 L 100 254 L 100 261 L 75.683594 261 Z M 75.683594 254 " clip-rule="nonzero"/></clipPath><clipPath id="85eca20606"><path d="M 75.683594 277 L 100 277 L 100 284 L 75.683594 284 Z M 75.683594 277 " clip-rule="nonzero"/></clipPath><clipPath id="013307a6a9"><path d="M 75.683594 300 L 100 300 L 100 307 L 75.683594 307 Z M 75.683594 300 " clip-rule="nonzero"/></clipPath><clipPath id="d46b1d50b6"><path d="M 123.855469 46.285156 L 257 46.285156 L 257 140.332031 L 123.855469 140.332031 Z M 123.855469 46.285156 " clip-rule="nonzero"/></clipPath><clipPath id="f40abffce5"><path d="M 141.105469 46.285156 L 239.609375 46.285156 C 244.1875 46.285156 248.574219 48.105469 251.808594 51.339844 C 255.042969 54.574219 256.859375 58.960938 256.859375 63.535156 L 256.859375 123.082031 C 256.859375 127.65625 255.042969 132.046875 251.808594 135.28125 C 248.574219 138.515625 244.1875 140.332031 239.609375 140.332031 L 141.105469 140.332031 C 136.527344 140.332031 132.140625 138.515625 128.90625 135.28125 C 125.671875 132.046875 123.855469 127.65625 123.855469 123.082031 L 123.855469 63.535156 C 123.855469 58.960938 125.671875 54.574219 128.90625 51.339844 C 132.140625 48.105469 136.527344 46.285156 141.105469 46.285156 Z M 141.105469 46.285156 " clip-rule="nonzero"/></clipPath></defs><g clip-path="url(#c13d902b6f)"><path fill="#7c009f" d="M 289.378906 23.90625 L 270.21875 37.054688 L 96.488281 37.054688 L 96.488281 314.957031 L 86.558594 318.160156 L 87.113281 318.890625 L 87.117188 318.898438 L 87.15625 318.949219 L 88.230469 320.371094 L 291.050781 320.371094 L 291.050781 26.121094 Z M 297.636719 34.839844 L 297.636719 329.09375 L 94.816406 329.09375 L 96.488281 331.304688 L 299.308594 331.304688 L 299.308594 37.054688 Z M 297.636719 34.839844 " fill-opacity="1" fill-rule="nonzero"/></g><g clip-path="url(#647d74807c)"><path fill="#7c009f" d="M 86.558594 23.90625 L 289.378906 23.90625 L 289.378906 318.160156 L 86.558594 318.160156 Z M 86.558594 23.90625 " fill-opacity="1" fill-rule="nonzero"/></g><path fill="#ffffff" d="M 291.050781 26.121094 L 291.050781 320.371094 L 88.230469 320.371094 L 87.117188 318.898438 L 94.816406 329.09375 L 297.636719 329.09375 L 297.636719 34.839844 Z M 87.117188 318.898438 L 84.886719 315.945312 Z M 87.117188 318.898438 " fill-opacity="1" fill-rule="nonzero"/><path fill="#ffffff" d="M 137.230469 47.625 L 245.292969 47.625 C 245.695312 47.625 246.09375 47.671875 246.492188 47.765625 C 246.886719 47.859375 247.269531 47.996094 247.644531 48.183594 C 248.015625 48.367188 248.371094 48.59375 248.707031 48.859375 C 249.042969 49.128906 249.351562 49.433594 249.636719 49.773438 C 249.921875 50.113281 250.179688 50.484375 250.402344 50.886719 C 250.625 51.285156 250.816406 51.707031 250.96875 52.152344 C 251.125 52.597656 251.242188 53.058594 251.320312 53.53125 C 251.398438 54.003906 251.4375 54.480469 251.4375 54.960938 L 251.4375 83.628906 C 251.4375 84.113281 251.398438 84.589844 251.320312 85.0625 C 251.242188 85.535156 251.125 85.992188 250.96875 86.4375 C 250.816406 86.882812 250.625 87.304688 250.402344 87.707031 C 250.179688 88.109375 249.921875 88.476562 249.636719 88.820312 C 249.351562 89.160156 249.042969 89.464844 248.707031 89.730469 C 248.371094 90 248.015625 90.226562 247.644531 90.410156 C 247.269531 90.59375 246.886719 90.734375 246.492188 90.828125 C 246.09375 90.921875 245.695312 90.96875 245.292969 90.96875 L 137.230469 90.96875 C 136.828125 90.96875 136.429688 90.921875 136.03125 90.828125 C 135.636719 90.734375 135.253906 90.59375 134.878906 90.410156 C 134.507812 90.226562 134.152344 90 133.816406 89.730469 C 133.480469 89.464844 133.171875 89.160156 132.886719 88.820312 C 132.601562 88.476562 132.347656 88.109375 132.121094 87.707031 C 131.898438 87.304688 131.707031 86.882812 131.554688 86.4375 C 131.398438 85.992188 131.28125 85.535156 131.203125 85.0625 C 131.125 84.589844 131.085938 84.113281 131.085938 83.628906 L 131.085938 54.960938 C 131.085938 54.480469 131.125 54.003906 131.203125 53.53125 C 131.28125 53.058594 131.398438 52.597656 131.554688 52.152344 C 131.707031 51.707031 131.898438 51.285156 132.121094 50.886719 C 132.347656 50.484375 132.601562 50.113281 132.886719 49.773438 C 133.171875 49.433594 133.480469 49.128906 133.816406 48.859375 C 134.152344 48.59375 134.507812 48.367188 134.878906 48.183594 C 135.253906 47.996094 135.636719 47.859375 136.03125 47.765625 C 136.429688 47.671875 136.828125 47.625 137.230469 47.625 Z M 137.230469 47.625 " fill-opacity="1" fill-rule="nonzero"/><path fill="#000000" d="M 104.835938 40.035156 C 104.835938 40.433594 104.796875 40.828125 104.722656 41.21875 C 104.644531 41.605469 104.53125 41.984375 104.382812 42.351562 C 104.234375 42.71875 104.050781 43.070312 103.832031 43.398438 C 103.613281 43.730469 103.367188 44.035156 103.089844 44.316406 C 102.8125 44.597656 102.511719 44.847656 102.183594 45.070312 C 101.859375 45.289062 101.515625 45.476562 101.152344 45.628906 C 100.792969 45.78125 100.417969 45.894531 100.035156 45.972656 C 99.648438 46.050781 99.261719 46.089844 98.871094 46.089844 C 98.476562 46.089844 98.089844 46.050781 97.707031 45.972656 C 97.320312 45.894531 96.949219 45.78125 96.585938 45.628906 C 96.222656 45.476562 95.878906 45.289062 95.554688 45.070312 C 95.230469 44.847656 94.925781 44.597656 94.652344 44.316406 C 94.375 44.035156 94.125 43.730469 93.910156 43.398438 C 93.691406 43.070312 93.507812 42.71875 93.355469 42.351562 C 93.207031 41.984375 93.09375 41.605469 93.015625 41.21875 C 92.941406 40.828125 92.902344 40.433594 92.902344 40.035156 C 92.902344 39.640625 92.941406 39.246094 93.015625 38.855469 C 93.09375 38.464844 93.207031 38.085938 93.355469 37.71875 C 93.507812 37.351562 93.691406 37.003906 93.910156 36.675781 C 94.125 36.34375 94.375 36.039062 94.652344 35.757812 C 94.925781 35.476562 95.230469 35.226562 95.554688 35.003906 C 95.878906 34.785156 96.222656 34.597656 96.585938 34.445312 C 96.949219 34.292969 97.320312 34.179688 97.707031 34.101562 C 98.089844 34.023438 98.476562 33.984375 98.871094 33.984375 C 99.261719 33.984375 99.648438 34.023438 100.035156 34.101562 C 100.417969 34.179688 100.792969 34.292969 101.152344 34.445312 C 101.515625 34.597656 101.859375 34.785156 102.183594 35.003906 C 102.511719 35.226562 102.8125 35.476562 103.089844 35.757812 C 103.367188 36.039062 103.613281 36.34375 103.832031 36.675781 C 104.050781 37.003906 104.234375 37.351562 104.382812 37.71875 C 104.53125 38.085938 104.644531 38.464844 104.722656 38.855469 C 104.796875 39.246094 104.835938 39.640625 104.835938 40.035156 Z M 104.835938 40.035156 " fill-opacity="1" fill-rule="nonzero"/><g clip-path="url(#b9c8dd5334)"><path fill="#ffffff" d="M 79.582031 37.054688 L 95.671875 37.054688 C 96.1875 37.054688 96.683594 37.132812 97.160156 37.292969 C 97.636719 37.453125 98.058594 37.683594 98.421875 37.980469 C 98.785156 38.273438 99.066406 38.617188 99.265625 39.003906 C 99.460938 39.390625 99.5625 39.792969 99.5625 40.210938 C 99.5625 40.628906 99.460938 41.035156 99.265625 41.421875 C 99.066406 41.808594 98.785156 42.148438 98.421875 42.445312 C 98.058594 42.742188 97.636719 42.96875 97.160156 43.128906 C 96.683594 43.289062 96.1875 43.371094 95.671875 43.371094 L 79.582031 43.371094 C 79.066406 43.371094 78.570312 43.289062 78.09375 43.128906 C 77.617188 42.96875 77.199219 42.742188 76.832031 42.445312 C 76.46875 42.148438 76.1875 41.808594 75.988281 41.421875 C 75.792969 41.035156 75.695312 40.628906 75.695312 40.210938 C 75.695312 39.792969 75.792969 39.390625 75.988281 39.003906 C 76.1875 38.617188 76.46875 38.273438 76.832031 37.980469 C 77.199219 37.683594 77.617188 37.453125 78.09375 37.292969 C 78.570312 37.132812 79.066406 37.054688 79.582031 37.054688 Z M 79.582031 37.054688 " fill-opacity="1" fill-rule="nonzero"/></g><path fill="#000000" d="M 104.835938 63.242188 C 104.835938 63.640625 104.796875 64.035156 104.722656 64.425781 C 104.644531 64.8125 104.53125 65.191406 104.382812 65.558594 C 104.234375 65.925781 104.050781 66.277344 103.832031 66.605469 C 103.613281 66.9375 103.367188 67.242188 103.089844 67.523438 C 102.8125 67.804688 102.511719 68.054688 102.183594 68.277344 C 101.859375 68.496094 101.515625 68.683594 101.152344 68.835938 C 100.792969 68.988281 100.417969 69.101562 100.035156 69.179688 C 99.648438 69.257812 99.261719 69.296875 98.871094 69.296875 C 98.476562 69.296875 98.089844 69.257812 97.707031 69.179688 C 97.320312 69.101562 96.949219 68.988281 96.585938 68.835938 C 96.222656 68.683594 95.878906 68.496094 95.554688 68.277344 C 95.230469 68.054688 94.925781 67.804688 94.652344 67.523438 C 94.375 67.242188 94.125 66.9375 93.910156 66.605469 C 93.691406 66.277344 93.507812 65.925781 93.355469 65.558594 C 93.207031 65.191406 93.09375 64.8125 93.015625 64.425781 C 92.941406 64.035156 92.902344 63.640625 92.902344 63.242188 C 92.902344 62.847656 92.941406 62.453125 93.015625 62.0625 C 93.09375 61.671875 93.207031 61.292969 93.355469 60.925781 C 93.507812 60.558594 93.691406 60.210938 93.910156 59.882812 C 94.125 59.550781 94.375 59.246094 94.652344 58.964844 C 94.925781 58.683594 95.230469 58.433594 95.554688 58.210938 C 95.878906 57.992188 96.222656 57.804688 96.585938 57.652344 C 96.949219 57.5 97.320312 57.386719 97.707031 57.308594 C 98.089844 57.230469 98.476562 57.191406 98.871094 57.191406 C 99.261719 57.191406 99.648438 57.230469 100.035156 57.308594 C 100.417969 57.386719 100.792969 57.5 101.152344 57.652344 C 101.515625 57.804688 101.859375 57.992188 102.183594 58.210938 C 102.511719 58.433594 102.8125 58.683594 103.089844 58.964844 C 103.367188 59.246094 103.613281 59.550781 103.832031 59.882812 C 104.050781 60.210938 104.234375 60.558594 104.382812 60.925781 C 104.53125 61.292969 104.644531 61.671875 104.722656 62.0625 C 104.796875 62.453125 104.835938 62.847656 104.835938 63.242188 Z M 104.835938 63.242188 " fill-opacity="1" fill-rule="nonzero"/><g clip-path="url(#18a4c510e3)"><path fill="#ffffff" d="M 79.582031 60.261719 L 95.671875 60.261719 C 96.1875 60.261719 96.683594 60.339844 97.160156 60.5 C 97.636719 60.660156 98.058594 60.890625 98.421875 61.1875 C 98.785156 61.480469 99.066406 61.824219 99.265625 62.210938 C 99.460938 62.597656 99.5625 63 99.5625 63.417969 C 99.5625 63.839844 99.460938 64.242188 99.265625 64.628906 C 99.066406 65.015625 98.785156 65.355469 98.421875 65.652344 C 98.058594 65.949219 97.636719 66.175781 97.160156 66.335938 C 96.683594 66.496094 96.1875 66.578125 95.671875 66.578125 L 79.582031 66.578125 C 79.066406 66.578125 78.570312 66.496094 78.09375 66.335938 C 77.617188 66.175781 77.199219 65.949219 76.832031 65.652344 C 76.46875 65.355469 76.1875 65.015625 75.988281 64.628906 C 75.792969 64.242188 75.695312 63.839844 75.695312 63.417969 C 75.695312 63 75.792969 62.597656 75.988281 62.210938 C 76.1875 61.824219 76.46875 61.480469 76.832031 61.1875 C 77.199219 60.890625 77.617188 60.660156 78.09375 60.5 C 78.570312 60.339844 79.066406 60.261719 79.582031 60.261719 Z M 79.582031 60.261719 " fill-opacity="1" fill-rule="nonzero"/></g><path fill="#000000" d="M 104.835938 86.453125 C 104.835938 86.847656 104.796875 87.242188 104.722656 87.632812 C 104.644531 88.023438 104.53125 88.398438 104.382812 88.765625 C 104.234375 89.132812 104.050781 89.484375 103.832031 89.8125 C 103.613281 90.144531 103.367188 90.449219 103.089844 90.730469 C 102.8125 91.011719 102.511719 91.261719 102.183594 91.484375 C 101.859375 91.703125 101.515625 91.890625 101.152344 92.042969 C 100.792969 92.195312 100.417969 92.308594 100.035156 92.386719 C 99.648438 92.464844 99.261719 92.503906 98.871094 92.503906 C 98.476562 92.503906 98.089844 92.464844 97.707031 92.386719 C 97.320312 92.308594 96.949219 92.195312 96.585938 92.042969 C 96.222656 91.890625 95.878906 91.703125 95.554688 91.484375 C 95.230469 91.261719 94.925781 91.011719 94.652344 90.730469 C 94.375 90.449219 94.125 90.144531 93.910156 89.8125 C 93.691406 89.484375 93.507812 89.132812 93.355469 88.765625 C 93.207031 88.398438 93.09375 88.023438 93.015625 87.632812 C 92.941406 87.242188 92.902344 86.847656 92.902344 86.453125 C 92.902344 86.054688 92.941406 85.660156 93.015625 85.269531 C 93.09375 84.882812 93.207031 84.503906 93.355469 84.136719 C 93.507812 83.769531 93.691406 83.417969 93.910156 83.089844 C 94.125 82.757812 94.375 82.453125 94.652344 82.171875 C 94.925781 81.890625 95.230469 81.640625 95.554688 81.417969 C 95.878906 81.199219 96.222656 81.011719 96.585938 80.859375 C 96.949219 80.707031 97.320312 80.59375 97.707031 80.515625 C 98.089844 80.4375 98.476562 80.398438 98.871094 80.398438 C 99.261719 80.398438 99.648438 80.4375 100.035156 80.515625 C 100.417969 80.59375 100.792969 80.707031 101.152344 80.859375 C 101.515625 81.011719 101.859375 81.199219 102.183594 81.417969 C 102.511719 81.640625 102.8125 81.890625 103.089844 82.171875 C 103.367188 82.453125 103.613281 82.757812 103.832031 83.089844 C 104.050781 83.417969 104.234375 83.769531 104.382812 84.136719 C 104.53125 84.503906 104.644531 84.882812 104.722656 85.269531 C 104.796875 85.660156 104.835938 86.054688 104.835938 86.453125 Z M 104.835938 86.453125 " fill-opacity="1" fill-rule="nonzero"/><g clip-path="url(#deef080b93)"><path fill="#ffffff" d="M 79.582031 83.46875 L 95.671875 83.46875 C 96.1875 83.46875 96.683594 83.550781 97.160156 83.710938 C 97.636719 83.871094 98.058594 84.097656 98.421875 84.394531 C 98.785156 84.691406 99.066406 85.03125 99.265625 85.417969 C 99.460938 85.804688 99.5625 86.207031 99.5625 86.625 C 99.5625 87.046875 99.460938 87.449219 99.265625 87.835938 C 99.066406 88.222656 98.785156 88.5625 98.421875 88.859375 C 98.058594 89.15625 97.636719 89.382812 97.160156 89.542969 C 96.683594 89.703125 96.1875 89.785156 95.671875 89.785156 L 79.582031 89.785156 C 79.066406 89.785156 78.570312 89.703125 78.09375 89.542969 C 77.617188 89.382812 77.199219 89.15625 76.832031 88.859375 C 76.46875 88.5625 76.1875 88.222656 75.988281 87.835938 C 75.792969 87.449219 75.695312 87.046875 75.695312 86.625 C 75.695312 86.207031 75.792969 85.804688 75.988281 85.417969 C 76.1875 85.03125 76.46875 84.691406 76.832031 84.394531 C 77.199219 84.097656 77.617188 83.871094 78.09375 83.710938 C 78.570312 83.550781 79.066406 83.46875 79.582031 83.46875 Z M 79.582031 83.46875 " fill-opacity="1" fill-rule="nonzero"/></g><path fill="#000000" d="M 105.527344 152.335938 C 105.527344 152.734375 105.492188 153.128906 105.414062 153.515625 C 105.335938 153.90625 105.222656 154.285156 105.074219 154.652344 C 104.925781 155.019531 104.742188 155.367188 104.523438 155.699219 C 104.304688 156.027344 104.058594 156.335938 103.78125 156.617188 C 103.503906 156.898438 103.203125 157.148438 102.875 157.367188 C 102.550781 157.589844 102.207031 157.777344 101.84375 157.929688 C 101.484375 158.078125 101.109375 158.195312 100.726562 158.273438 C 100.339844 158.351562 99.953125 158.386719 99.5625 158.386719 C 99.167969 158.386719 98.78125 158.351562 98.398438 158.273438 C 98.011719 158.195312 97.640625 158.078125 97.277344 157.929688 C 96.917969 157.777344 96.574219 157.589844 96.246094 157.367188 C 95.921875 157.148438 95.621094 156.898438 95.34375 156.617188 C 95.066406 156.335938 94.816406 156.027344 94.601562 155.699219 C 94.382812 155.367188 94.199219 155.019531 94.046875 154.652344 C 93.898438 154.285156 93.785156 153.90625 93.710938 153.515625 C 93.632812 153.128906 93.59375 152.734375 93.59375 152.335938 C 93.59375 151.9375 93.632812 151.546875 93.710938 151.15625 C 93.785156 150.765625 93.898438 150.386719 94.046875 150.019531 C 94.199219 149.652344 94.382812 149.304688 94.601562 148.972656 C 94.816406 148.644531 95.066406 148.335938 95.34375 148.054688 C 95.621094 147.777344 95.921875 147.523438 96.246094 147.304688 C 96.574219 147.082031 96.917969 146.898438 97.277344 146.746094 C 97.640625 146.59375 98.011719 146.476562 98.398438 146.398438 C 98.78125 146.324219 99.167969 146.285156 99.5625 146.285156 C 99.953125 146.285156 100.339844 146.324219 100.726562 146.398438 C 101.109375 146.476562 101.484375 146.59375 101.84375 146.746094 C 102.207031 146.898438 102.550781 147.082031 102.875 147.304688 C 103.203125 147.523438 103.503906 147.777344 103.78125 148.054688 C 104.058594 148.335938 104.304688 148.644531 104.523438 148.972656 C 104.742188 149.304688 104.925781 149.652344 105.074219 150.019531 C 105.222656 150.386719 105.335938 150.765625 105.414062 151.15625 C 105.492188 151.546875 105.527344 151.9375 105.527344 152.335938 Z M 105.527344 152.335938 " fill-opacity="1" fill-rule="nonzero"/><path fill="#ffffff" d="M 80.277344 149.355469 L 96.363281 149.355469 C 96.878906 149.355469 97.375 149.433594 97.851562 149.59375 C 98.328125 149.753906 98.75 149.984375 99.113281 150.277344 C 99.480469 150.574219 99.757812 150.917969 99.957031 151.304688 C 100.15625 151.691406 100.253906 152.09375 100.253906 152.511719 C 100.253906 152.929688 100.15625 153.332031 99.957031 153.71875 C 99.757812 154.105469 99.480469 154.449219 99.113281 154.746094 C 98.75 155.039062 98.328125 155.269531 97.851562 155.429688 C 97.375 155.589844 96.878906 155.667969 96.363281 155.667969 L 80.277344 155.667969 C 79.761719 155.667969 79.261719 155.589844 78.785156 155.429688 C 78.308594 155.269531 77.890625 155.039062 77.523438 154.746094 C 77.160156 154.449219 76.878906 154.105469 76.679688 153.71875 C 76.484375 153.332031 76.386719 152.929688 76.386719 152.511719 C 76.386719 152.09375 76.484375 151.691406 76.679688 151.304688 C 76.878906 150.917969 77.160156 150.574219 77.523438 150.277344 C 77.890625 149.984375 78.308594 149.753906 78.785156 149.59375 C 79.261719 149.433594 79.761719 149.355469 80.277344 149.355469 Z M 80.277344 149.355469 " fill-opacity="1" fill-rule="nonzero"/><path fill="#000000" d="M 105.527344 175.542969 C 105.527344 175.941406 105.492188 176.335938 105.414062 176.722656 C 105.335938 177.113281 105.222656 177.492188 105.074219 177.859375 C 104.925781 178.226562 104.742188 178.574219 104.523438 178.90625 C 104.304688 179.238281 104.058594 179.542969 103.78125 179.824219 C 103.503906 180.105469 103.203125 180.355469 102.875 180.574219 C 102.550781 180.796875 102.207031 180.984375 101.84375 181.136719 C 101.484375 181.289062 101.109375 181.402344 100.726562 181.480469 C 100.339844 181.558594 99.953125 181.597656 99.5625 181.597656 C 99.167969 181.597656 98.78125 181.558594 98.398438 181.480469 C 98.011719 181.402344 97.640625 181.289062 97.277344 181.136719 C 96.917969 180.984375 96.574219 180.796875 96.246094 180.574219 C 95.921875 180.355469 95.621094 180.105469 95.34375 179.824219 C 95.066406 179.542969 94.816406 179.238281 94.601562 178.90625 C 94.382812 178.574219 94.199219 178.226562 94.046875 177.859375 C 93.898438 177.492188 93.785156 177.113281 93.710938 176.722656 C 93.632812 176.335938 93.59375 175.941406 93.59375 175.542969 C 93.59375 175.144531 93.632812 174.753906 93.710938 174.363281 C 93.785156 173.972656 93.898438 173.59375 94.046875 173.226562 C 94.199219 172.859375 94.382812 172.511719 94.601562 172.179688 C 94.816406 171.851562 95.066406 171.546875 95.34375 171.265625 C 95.621094 170.984375 95.921875 170.730469 96.246094 170.511719 C 96.574219 170.289062 96.917969 170.105469 97.277344 169.953125 C 97.640625 169.800781 98.011719 169.683594 98.398438 169.609375 C 98.78125 169.53125 99.167969 169.492188 99.5625 169.492188 C 99.953125 169.492188 100.339844 169.53125 100.726562 169.609375 C 101.109375 169.683594 101.484375 169.800781 101.84375 169.953125 C 102.207031 170.105469 102.550781 170.289062 102.875 170.511719 C 103.203125 170.730469 103.503906 170.984375 103.78125 171.265625 C 104.058594 171.546875 104.304688 171.851562 104.523438 172.179688 C 104.742188 172.511719 104.925781 172.859375 105.074219 173.226562 C 105.222656 173.59375 105.335938 173.972656 105.414062 174.363281 C 105.492188 174.753906 105.527344 175.144531 105.527344 175.542969 Z M 105.527344 175.542969 " fill-opacity="1" fill-rule="nonzero"/><path fill="#ffffff" d="M 80.277344 172.5625 L 96.363281 172.5625 C 96.878906 172.5625 97.375 172.640625 97.851562 172.800781 C 98.328125 172.960938 98.75 173.191406 99.113281 173.484375 C 99.480469 173.78125 99.757812 174.125 99.957031 174.511719 C 100.15625 174.898438 100.253906 175.300781 100.253906 175.71875 C 100.253906 176.136719 100.15625 176.539062 99.957031 176.925781 C 99.757812 177.316406 99.480469 177.65625 99.113281 177.953125 C 98.75 178.25 98.328125 178.476562 97.851562 178.636719 C 97.375 178.796875 96.878906 178.878906 96.363281 178.878906 L 80.277344 178.878906 C 79.761719 178.878906 79.261719 178.796875 78.785156 178.636719 C 78.308594 178.476562 77.890625 178.25 77.523438 177.953125 C 77.160156 177.65625 76.878906 177.316406 76.679688 176.925781 C 76.484375 176.539062 76.386719 176.136719 76.386719 175.71875 C 76.386719 175.300781 76.484375 174.898438 76.679688 174.511719 C 76.878906 174.125 77.160156 173.78125 77.523438 173.484375 C 77.890625 173.191406 78.308594 172.960938 78.785156 172.800781 C 79.261719 172.640625 79.761719 172.5625 80.277344 172.5625 Z M 80.277344 172.5625 " fill-opacity="1" fill-rule="nonzero"/><path fill="#000000" d="M 105.527344 198.75 C 105.527344 199.148438 105.492188 199.542969 105.414062 199.933594 C 105.335938 200.320312 105.222656 200.699219 105.074219 201.066406 C 104.925781 201.433594 104.742188 201.785156 104.523438 202.113281 C 104.304688 202.445312 104.058594 202.75 103.78125 203.03125 C 103.503906 203.3125 103.203125 203.5625 102.875 203.785156 C 102.550781 204.003906 102.207031 204.191406 101.84375 204.34375 C 101.484375 204.496094 101.109375 204.609375 100.726562 204.6875 C 100.339844 204.765625 99.953125 204.804688 99.5625 204.804688 C 99.167969 204.804688 98.78125 204.765625 98.398438 204.6875 C 98.011719 204.609375 97.640625 204.496094 97.277344 204.34375 C 96.917969 204.191406 96.574219 204.003906 96.246094 203.785156 C 95.921875 203.5625 95.621094 203.3125 95.34375 203.03125 C 95.066406 202.75 94.816406 202.445312 94.601562 202.113281 C 94.382812 201.785156 94.199219 201.433594 94.046875 201.066406 C 93.898438 200.699219 93.785156 200.320312 93.710938 199.933594 C 93.632812 199.542969 93.59375 199.148438 93.59375 198.75 C 93.59375 198.355469 93.632812 197.960938 93.710938 197.570312 C 93.785156 197.179688 93.898438 196.800781 94.046875 196.433594 C 94.199219 196.066406 94.382812 195.71875 94.601562 195.390625 C 94.816406 195.058594 95.066406 194.753906 95.34375 194.472656 C 95.621094 194.191406 95.921875 193.941406 96.246094 193.71875 C 96.574219 193.5 96.917969 193.3125 97.277344 193.160156 C 97.640625 193.007812 98.011719 192.894531 98.398438 192.816406 C 98.78125 192.738281 99.167969 192.699219 99.5625 192.699219 C 99.953125 192.699219 100.339844 192.738281 100.726562 192.816406 C 101.109375 192.894531 101.484375 193.007812 101.84375 193.160156 C 102.207031 193.3125 102.550781 193.5 102.875 193.71875 C 103.203125 193.941406 103.503906 194.191406 103.78125 194.472656 C 104.058594 194.753906 104.304688 195.058594 104.523438 195.390625 C 104.742188 195.71875 104.925781 196.066406 105.074219 196.433594 C 105.222656 196.800781 105.335938 197.179688 105.414062 197.570312 C 105.492188 197.960938 105.527344 198.355469 105.527344 198.75 Z M 105.527344 198.75 " fill-opacity="1" fill-rule="nonzero"/><path fill="#ffffff" d="M 80.277344 195.769531 L 96.363281 195.769531 C 96.878906 195.769531 97.375 195.847656 97.851562 196.007812 C 98.328125 196.167969 98.75 196.398438 99.113281 196.695312 C 99.480469 196.988281 99.757812 197.332031 99.957031 197.71875 C 100.15625 198.105469 100.253906 198.507812 100.253906 198.925781 C 100.253906 199.34375 100.15625 199.75 99.957031 200.136719 C 99.757812 200.523438 99.480469 200.863281 99.113281 201.160156 C 98.75 201.457031 98.328125 201.683594 97.851562 201.84375 C 97.375 202.003906 96.878906 202.085938 96.363281 202.085938 L 80.277344 202.085938 C 79.761719 202.085938 79.261719 202.003906 78.785156 201.84375 C 78.308594 201.683594 77.890625 201.457031 77.523438 201.160156 C 77.160156 200.863281 76.878906 200.523438 76.679688 200.136719 C 76.484375 199.75 76.386719 199.34375 76.386719 198.925781 C 76.386719 198.507812 76.484375 198.105469 76.679688 197.71875 C 76.878906 197.332031 77.160156 196.988281 77.523438 196.695312 C 77.890625 196.398438 78.308594 196.167969 78.785156 196.007812 C 79.261719 195.847656 79.761719 195.769531 80.277344 195.769531 Z M 80.277344 195.769531 " fill-opacity="1" fill-rule="nonzero"/><path fill="#000000" d="M 104.835938 257.035156 C 104.835938 257.429688 104.796875 257.824219 104.722656 258.214844 C 104.644531 258.605469 104.53125 258.980469 104.382812 259.347656 C 104.234375 259.714844 104.050781 260.066406 103.832031 260.394531 C 103.613281 260.726562 103.367188 261.03125 103.089844 261.3125 C 102.8125 261.59375 102.511719 261.84375 102.183594 262.066406 C 101.859375 262.285156 101.515625 262.472656 101.152344 262.625 C 100.792969 262.777344 100.417969 262.890625 100.035156 262.96875 C 99.648438 263.046875 99.261719 263.085938 98.871094 263.085938 C 98.476562 263.085938 98.089844 263.046875 97.707031 262.96875 C 97.320312 262.890625 96.949219 262.777344 96.585938 262.625 C 96.222656 262.472656 95.878906 262.285156 95.554688 262.066406 C 95.230469 261.84375 94.925781 261.59375 94.652344 261.3125 C 94.375 261.03125 94.125 260.726562 93.910156 260.394531 C 93.691406 260.066406 93.507812 259.714844 93.355469 259.347656 C 93.207031 258.980469 93.09375 258.605469 93.015625 258.214844 C 92.941406 257.824219 92.902344 257.429688 92.902344 257.035156 C 92.902344 256.636719 92.941406 256.242188 93.015625 255.851562 C 93.09375 255.464844 93.207031 255.085938 93.355469 254.71875 C 93.507812 254.351562 93.691406 254 93.910156 253.671875 C 94.125 253.339844 94.375 253.035156 94.652344 252.753906 C 94.925781 252.472656 95.230469 252.222656 95.554688 252 C 95.878906 251.78125 96.222656 251.59375 96.585938 251.441406 C 96.949219 251.289062 97.320312 251.175781 97.707031 251.097656 C 98.089844 251.019531 98.476562 250.980469 98.871094 250.980469 C 99.261719 250.980469 99.648438 251.019531 100.035156 251.097656 C 100.417969 251.175781 100.792969 251.289062 101.152344 251.441406 C 101.515625 251.59375 101.859375 251.78125 102.183594 252 C 102.511719 252.222656 102.8125 252.472656 103.089844 252.753906 C 103.367188 253.035156 103.613281 253.339844 103.832031 253.671875 C 104.050781 254 104.234375 254.351562 104.382812 254.71875 C 104.53125 255.085938 104.644531 255.464844 104.722656 255.851562 C 104.796875 256.242188 104.835938 256.636719 104.835938 257.035156 Z M 104.835938 257.035156 " fill-opacity="1" fill-rule="nonzero"/><g clip-path="url(#c615596615)"><path fill="#ffffff" d="M 79.582031 254.050781 L 95.671875 254.050781 C 96.1875 254.050781 96.683594 254.132812 97.160156 254.292969 C 97.636719 254.453125 98.058594 254.679688 98.421875 254.976562 C 98.785156 255.273438 99.066406 255.613281 99.265625 256 C 99.460938 256.386719 99.5625 256.789062 99.5625 257.210938 C 99.5625 257.628906 99.460938 258.03125 99.265625 258.417969 C 99.066406 258.804688 98.785156 259.144531 98.421875 259.441406 C 98.058594 259.738281 97.636719 259.964844 97.160156 260.125 C 96.683594 260.285156 96.1875 260.367188 95.671875 260.367188 L 79.582031 260.367188 C 79.066406 260.367188 78.570312 260.285156 78.09375 260.125 C 77.617188 259.964844 77.199219 259.738281 76.832031 259.441406 C 76.46875 259.144531 76.1875 258.804688 75.988281 258.417969 C 75.792969 258.03125 75.695312 257.628906 75.695312 257.210938 C 75.695312 256.789062 75.792969 256.386719 75.988281 256 C 76.1875 255.613281 76.46875 255.273438 76.832031 254.976562 C 77.199219 254.679688 77.617188 254.453125 78.09375 254.292969 C 78.570312 254.132812 79.066406 254.050781 79.582031 254.050781 Z M 79.582031 254.050781 " fill-opacity="1" fill-rule="nonzero"/></g><path fill="#000000" d="M 104.835938 280.242188 C 104.835938 280.636719 104.796875 281.03125 104.722656 281.421875 C 104.644531 281.8125 104.53125 282.191406 104.382812 282.558594 C 104.234375 282.925781 104.050781 283.273438 103.832031 283.601562 C 103.613281 283.933594 103.367188 284.238281 103.089844 284.519531 C 102.8125 284.800781 102.511719 285.050781 102.183594 285.273438 C 101.859375 285.492188 101.515625 285.679688 101.152344 285.832031 C 100.792969 285.984375 100.417969 286.097656 100.035156 286.175781 C 99.648438 286.253906 99.261719 286.292969 98.871094 286.292969 C 98.476562 286.292969 98.089844 286.253906 97.707031 286.175781 C 97.320312 286.097656 96.949219 285.984375 96.585938 285.832031 C 96.222656 285.679688 95.878906 285.492188 95.554688 285.273438 C 95.230469 285.050781 94.925781 284.800781 94.652344 284.519531 C 94.375 284.238281 94.125 283.933594 93.910156 283.601562 C 93.691406 283.273438 93.507812 282.925781 93.355469 282.558594 C 93.207031 282.191406 93.09375 281.8125 93.015625 281.421875 C 92.941406 281.03125 92.902344 280.636719 92.902344 280.242188 C 92.902344 279.84375 92.941406 279.449219 93.015625 279.058594 C 93.09375 278.671875 93.207031 278.292969 93.355469 277.925781 C 93.507812 277.558594 93.691406 277.207031 93.910156 276.878906 C 94.125 276.546875 94.375 276.242188 94.652344 275.960938 C 94.925781 275.679688 95.230469 275.429688 95.554688 275.207031 C 95.878906 274.988281 96.222656 274.800781 96.585938 274.648438 C 96.949219 274.496094 97.320312 274.382812 97.707031 274.304688 C 98.089844 274.226562 98.476562 274.1875 98.871094 274.1875 C 99.261719 274.1875 99.648438 274.226562 100.035156 274.304688 C 100.417969 274.382812 100.792969 274.496094 101.152344 274.648438 C 101.515625 274.800781 101.859375 274.988281 102.183594 275.207031 C 102.511719 275.429688 102.8125 275.679688 103.089844 275.960938 C 103.367188 276.242188 103.613281 276.546875 103.832031 276.878906 C 104.050781 277.210938 104.234375 277.558594 104.382812 277.925781 C 104.53125 278.292969 104.644531 278.671875 104.722656 279.058594 C 104.796875 279.449219 104.835938 279.84375 104.835938 280.242188 Z M 104.835938 280.242188 " fill-opacity="1" fill-rule="nonzero"/><g clip-path="url(#85eca20606)"><path fill="#ffffff" d="M 79.582031 277.257812 L 95.671875 277.257812 C 96.1875 277.257812 96.683594 277.339844 97.160156 277.5 C 97.636719 277.660156 98.058594 277.886719 98.421875 278.183594 C 98.785156 278.480469 99.066406 278.820312 99.265625 279.207031 C 99.460938 279.59375 99.5625 279.996094 99.5625 280.417969 C 99.5625 280.835938 99.460938 281.238281 99.265625 281.625 C 99.066406 282.011719 98.785156 282.351562 98.421875 282.648438 C 98.058594 282.945312 97.636719 283.171875 97.160156 283.332031 C 96.683594 283.492188 96.1875 283.574219 95.671875 283.574219 L 79.582031 283.574219 C 79.066406 283.574219 78.570312 283.492188 78.09375 283.332031 C 77.617188 283.171875 77.199219 282.945312 76.832031 282.648438 C 76.46875 282.351562 76.1875 282.011719 75.988281 281.625 C 75.792969 281.238281 75.695312 280.835938 75.695312 280.417969 C 75.695312 279.996094 75.792969 279.59375 75.988281 279.207031 C 76.1875 278.820312 76.46875 278.480469 76.832031 278.183594 C 77.199219 277.886719 77.617188 277.660156 78.09375 277.5 C 78.570312 277.339844 79.066406 277.257812 79.582031 277.257812 Z M 79.582031 277.257812 " fill-opacity="1" fill-rule="nonzero"/></g><path fill="#000000" d="M 104.835938 303.449219 C 104.835938 303.847656 104.796875 304.238281 104.722656 304.628906 C 104.644531 305.019531 104.53125 305.398438 104.382812 305.765625 C 104.234375 306.132812 104.050781 306.480469 103.832031 306.8125 C 103.613281 307.140625 103.367188 307.445312 103.089844 307.726562 C 102.8125 308.007812 102.511719 308.261719 102.183594 308.480469 C 101.859375 308.703125 101.515625 308.886719 101.152344 309.039062 C 100.792969 309.191406 100.417969 309.308594 100.035156 309.382812 C 99.648438 309.460938 99.261719 309.5 98.871094 309.5 C 98.476562 309.5 98.089844 309.460938 97.707031 309.382812 C 97.320312 309.308594 96.949219 309.191406 96.585938 309.039062 C 96.222656 308.886719 95.878906 308.703125 95.554688 308.480469 C 95.230469 308.261719 94.925781 308.007812 94.652344 307.726562 C 94.375 307.445312 94.125 307.140625 93.910156 306.8125 C 93.691406 306.480469 93.507812 306.132812 93.355469 305.765625 C 93.207031 305.398438 93.09375 305.019531 93.015625 304.628906 C 92.941406 304.238281 92.902344 303.847656 92.902344 303.449219 C 92.902344 303.050781 92.941406 302.65625 93.015625 302.269531 C 93.09375 301.878906 93.207031 301.5 93.355469 301.132812 C 93.507812 300.765625 93.691406 300.417969 93.910156 300.085938 C 94.125 299.753906 94.375 299.449219 94.652344 299.167969 C 94.925781 298.886719 95.230469 298.636719 95.554688 298.417969 C 95.878906 298.195312 96.222656 298.007812 96.585938 297.855469 C 96.949219 297.703125 97.320312 297.589844 97.707031 297.511719 C 98.089844 297.433594 98.476562 297.394531 98.871094 297.394531 C 99.261719 297.394531 99.648438 297.433594 100.035156 297.511719 C 100.417969 297.589844 100.792969 297.703125 101.152344 297.855469 C 101.515625 298.007812 101.859375 298.195312 102.183594 298.417969 C 102.511719 298.636719 102.8125 298.886719 103.089844 299.167969 C 103.367188 299.449219 103.613281 299.753906 103.832031 300.085938 C 104.050781 300.417969 104.234375 300.765625 104.382812 301.132812 C 104.53125 301.5 104.644531 301.878906 104.722656 302.269531 C 104.796875 302.65625 104.835938 303.050781 104.835938 303.449219 Z M 104.835938 303.449219 " fill-opacity="1" fill-rule="nonzero"/><g clip-path="url(#013307a6a9)"><path fill="#ffffff" d="M 79.582031 300.464844 L 95.671875 300.464844 C 96.1875 300.464844 96.683594 300.546875 97.160156 300.707031 C 97.636719 300.867188 98.058594 301.09375 98.421875 301.390625 C 98.785156 301.6875 99.066406 302.027344 99.265625 302.414062 C 99.460938 302.800781 99.5625 303.207031 99.5625 303.625 C 99.5625 304.042969 99.460938 304.445312 99.265625 304.832031 C 99.066406 305.21875 98.785156 305.5625 98.421875 305.855469 C 98.058594 306.152344 97.636719 306.382812 97.160156 306.542969 C 96.683594 306.703125 96.1875 306.78125 95.671875 306.78125 L 79.582031 306.78125 C 79.066406 306.78125 78.570312 306.703125 78.09375 306.542969 C 77.617188 306.382812 77.199219 306.152344 76.832031 305.855469 C 76.46875 305.5625 76.1875 305.21875 75.988281 304.832031 C 75.792969 304.445312 75.695312 304.042969 75.695312 303.625 C 75.695312 303.207031 75.792969 302.800781 75.988281 302.414062 C 76.1875 302.027344 76.46875 301.6875 76.832031 301.390625 C 77.199219 301.09375 77.617188 300.867188 78.09375 300.707031 C 78.570312 300.546875 79.066406 300.464844 79.582031 300.464844 Z M 79.582031 300.464844 " fill-opacity="1" fill-rule="nonzero"/></g><g clip-path="url(#d46b1d50b6)"><g clip-path="url(#f40abffce5)"><path fill="#ffa8dc" d="M 123.855469 46.285156 L 256.84375 46.285156 L 256.84375 140.332031 L 123.855469 140.332031 Z M 123.855469 46.285156 " fill-opacity="1" fill-rule="nonzero"/></g></g></svg>