<svg xmlns="http://www.w3.org/2000/svg" xmlns:xlink="http://www.w3.org/1999/xlink" width="500" zoomAndPan="magnify" viewBox="0 0 375 374.999991" height="500" preserveAspectRatio="xMidYMid meet" version="1.0"><defs><clipPath id="d13db9d479"><path d="M 89 70 L 203 70 L 203 215.253906 L 89 215.253906 Z M 89 70 " clip-rule="nonzero"/></clipPath><clipPath id="003d9b583a"><path d="M 123 172 L 182 172 L 182 215.253906 L 123 215.253906 Z M 123 172 " clip-rule="nonzero"/></clipPath><clipPath id="35efcd4276"><path d="M 127 55.503906 L 170 55.503906 L 170 86 L 127 86 Z M 127 55.503906 " clip-rule="nonzero"/></clipPath><clipPath id="bd0638f5a6"><path d="M 264 105 L 299.90625 105 L 299.90625 159 L 264 159 Z M 264 105 " clip-rule="nonzero"/></clipPath><clipPath id="34a1ff04e1"><path d="M 263 104 L 299.90625 104 L 299.90625 160 L 263 160 Z M 263 104 " clip-rule="nonzero"/></clipPath><clipPath id="8a150b5c02"><path d="M 260 100.304688 L 296 100.304688 L 296 155 L 260 155 Z M 260 100.304688 " clip-rule="nonzero"/></clipPath><clipPath id="4a9b65b7ca"><path d="M 259 100.304688 L 296 100.304688 L 296 155 L 259 155 Z M 259 100.304688 " clip-rule="nonzero"/></clipPath><clipPath id="56c6ad9a8c"><path d="M 102 238 L 140 238 L 140 283.304688 L 102 283.304688 Z M 102 238 " clip-rule="nonzero"/></clipPath></defs><g clip-path="url(#d13db9d479)"><path fill="#9cbaff" d="M 143.617188 104.828125 C 143.617188 104.828125 127.085938 106.019531 121.015625 110.367188 C 114.945312 114.710938 107.191406 130.898438 107.191406 130.898438 L 103.320312 119.460938 L 89.722656 121.441406 C 89.722656 121.441406 92.550781 158.085938 106.695312 161.652344 C 112.011719 162.988281 120.566406 152.828125 120.566406 152.828125 L 123.402344 174.710938 L 124.347656 215.144531 L 151.8125 215.59375 L 152.984375 196.097656 L 155.957031 215.324219 L 181.398438 214.605469 L 176.398438 172.640625 C 176.398438 172.640625 173.199219 130.847656 175.363281 127.117188 C 178.785156 121.21875 205.285156 100.382812 202.425781 86.007812 C 200.550781 76.589844 166.042969 70.292969 166.042969 70.292969 L 161.898438 81.097656 L 184.503906 88.617188 C 184.503906 88.617188 167.6875 101.261719 162.171875 103.835938 C 158.917969 105.355469 151.410156 104.0625 151.410156 104.0625 L 147.535156 108.339844 Z M 143.617188 104.828125 " fill-opacity="1" fill-rule="evenodd"/></g><path fill="#f8eaff" d="M 100.167969 120.09375 C 100.167969 120.09375 97.980469 109.90625 95.664062 106.449219 C 93.351562 102.992188 89.320312 100.996094 88.460938 101.902344 C 87.601562 102.804688 90.398438 106.765625 90.398438 106.765625 C 90.398438 106.765625 79.066406 102.335938 76.980469 104.511719 C 74.890625 106.6875 75.3125 112.9375 82.425781 114.867188 C 89.914062 116.898438 93.097656 121.441406 93.097656 121.441406 Z M 100.167969 120.09375 " fill-opacity="1" fill-rule="evenodd"/><path fill="#7c009f" d="M 77.816406 105.113281 C 79.109375 105.808594 80.40625 106.492188 81.851562 106.992188 C 82.761719 107.308594 83.71875 107.546875 84.777344 107.667969 C 84.953125 107.691406 85.113281 107.566406 85.132812 107.386719 C 85.15625 107.210938 85.03125 107.046875 84.847656 107.03125 C 83.84375 106.914062 82.925781 106.683594 82.0625 106.382812 C 80.652344 105.894531 79.382812 105.222656 78.121094 104.542969 C 77.964844 104.457031 77.769531 104.515625 77.683594 104.675781 C 77.601562 104.832031 77.660156 105.027344 77.816406 105.113281 Z M 77.816406 105.113281 " fill-opacity="1" fill-rule="evenodd"/><path fill="#7c009f" d="M 77.050781 107.363281 C 78.34375 108.0625 79.640625 108.746094 81.085938 109.246094 C 81.996094 109.558594 82.953125 109.800781 84.011719 109.921875 C 84.1875 109.941406 84.347656 109.816406 84.367188 109.636719 C 84.390625 109.460938 84.265625 109.300781 84.082031 109.28125 C 83.078125 109.164062 82.160156 108.933594 81.296875 108.632812 C 79.886719 108.144531 78.617188 107.476562 77.355469 106.796875 C 77.199219 106.710938 77.003906 106.769531 76.921875 106.925781 C 76.835938 107.082031 76.894531 107.277344 77.050781 107.363281 Z M 77.050781 107.363281 " fill-opacity="1" fill-rule="evenodd"/><path fill="#7c009f" d="M 77.050781 110.109375 C 78.34375 110.808594 79.640625 111.492188 81.085938 111.992188 C 81.996094 112.308594 82.953125 112.546875 84.011719 112.667969 C 84.1875 112.691406 84.347656 112.5625 84.367188 112.382812 C 84.390625 112.207031 84.265625 112.046875 84.082031 112.027344 C 83.078125 111.910156 82.160156 111.679688 81.296875 111.378906 C 79.886719 110.894531 78.617188 110.222656 77.355469 109.542969 C 77.199219 109.457031 77.003906 109.515625 76.921875 109.671875 C 76.835938 109.832031 76.894531 110.023438 77.050781 110.109375 Z M 77.050781 110.109375 " fill-opacity="1" fill-rule="evenodd"/><path fill="#7c009f" d="M 181.339844 91.800781 C 182.769531 90.503906 184.378906 89.503906 186.1875 88.824219 C 187.886719 88.191406 189.757812 87.835938 191.816406 87.78125 C 192.171875 87.769531 192.457031 87.472656 192.445312 87.113281 C 192.4375 86.757812 192.140625 86.476562 191.78125 86.484375 C 189.570312 86.539062 187.554688 86.925781 185.726562 87.609375 C 183.765625 88.347656 182.019531 89.433594 180.464844 90.839844 C 180.199219 91.078125 180.175781 91.492188 180.417969 91.757812 C 180.660156 92.023438 181.074219 92.042969 181.339844 91.800781 Z M 181.339844 91.800781 " fill-opacity="1" fill-rule="evenodd"/><path fill="#7c009f" d="M 105.675781 128.890625 L 108.738281 138.4375 C 108.84375 138.777344 109.210938 138.96875 109.550781 138.855469 C 109.894531 138.746094 110.082031 138.382812 109.96875 138.039062 L 106.90625 128.492188 C 106.800781 128.152344 106.433594 127.960938 106.09375 128.074219 C 105.75 128.183594 105.5625 128.546875 105.675781 128.890625 Z M 105.675781 128.890625 " fill-opacity="1" fill-rule="evenodd"/><path fill="#7c009f" d="M 118.566406 125.90625 C 118.589844 130.59375 118.660156 135.34375 118.917969 140.34375 C 119.15625 144.898438 119.542969 149.652344 120.191406 154.753906 C 120.234375 155.109375 120.558594 155.363281 120.917969 155.316406 C 121.273438 155.273438 121.523438 154.949219 121.480469 154.59375 C 120.835938 149.523438 120.453125 144.796875 120.21875 140.277344 C 119.960938 135.296875 119.890625 130.566406 119.863281 125.894531 C 119.863281 125.539062 119.570312 125.246094 119.210938 125.253906 C 118.855469 125.253906 118.5625 125.542969 118.566406 125.90625 Z M 118.566406 125.90625 " fill-opacity="1" fill-rule="evenodd"/><g clip-path="url(#003d9b583a)"><path fill="#9cbaff" d="M 181.398438 214.605469 L 155.957031 215.324219 L 152.984375 196.097656 L 151.8125 215.59375 L 124.347656 215.144531 L 123.402344 174.710938 L 123.566406 174.722656 C 137.890625 175.957031 159.171875 179.152344 176.398438 172.640625 Z M 181.398438 214.605469 " fill-opacity="1" fill-rule="evenodd"/></g><path fill="#7c009f" d="M 155.234375 180.078125 C 154.878906 182.449219 155.132812 185.871094 154.601562 188.085938 C 154.339844 189.164062 153.921875 189.945312 152.929688 189.878906 C 152.628906 189.855469 152.367188 190.085938 152.351562 190.386719 C 152.328125 190.691406 152.558594 190.953125 152.859375 190.96875 C 154.40625 191.074219 155.253906 190.03125 155.664062 188.34375 C 156.203125 186.101562 155.957031 182.640625 156.316406 180.238281 C 156.363281 179.941406 156.15625 179.664062 155.855469 179.617188 C 155.558594 179.574219 155.28125 179.78125 155.234375 180.078125 Z M 155.234375 180.078125 " fill-opacity="1" fill-rule="evenodd"/><path fill="#7c009f" d="M 151.765625 181.082031 L 152.304688 194.726562 C 152.3125 195.027344 152.570312 195.261719 152.871094 195.246094 C 153.171875 195.238281 153.40625 194.980469 153.394531 194.679688 L 152.855469 181.035156 C 152.84375 180.734375 152.589844 180.5 152.285156 180.515625 C 151.984375 180.523438 151.75 180.78125 151.765625 181.082031 Z M 151.765625 181.082031 " fill-opacity="1" fill-rule="evenodd"/><path fill="#7c009f" d="M 147.644531 195.605469 L 157.191406 196.058594 C 157.492188 196.070312 157.75 195.839844 157.761719 195.539062 C 157.777344 195.238281 157.546875 194.980469 157.246094 194.96875 L 147.699219 194.515625 C 147.398438 194.503906 147.140625 194.734375 147.125 195.035156 C 147.113281 195.335938 147.34375 195.59375 147.644531 195.605469 Z M 147.644531 195.605469 " fill-opacity="1" fill-rule="evenodd"/><g clip-path="url(#35efcd4276)"><path fill="#7c009f" d="M 131.550781 83.078125 L 130.382812 77.089844 C 130.382812 77.089844 124.667969 70.121094 128.894531 67.003906 C 133.679688 63.484375 136.226562 57.621094 142.089844 56.421875 C 146.476562 55.527344 151.46875 55.503906 153.390625 58.359375 C 158.007812 56.171875 163.210938 56.996094 166.3125 63.132812 C 169.4375 69.316406 171.347656 70.8125 168.5625 77 C 167.222656 79.976562 163.339844 85.375 163.339844 85.375 Z M 131.550781 83.078125 " fill-opacity="1" fill-rule="evenodd"/></g><path fill="#f8eaff" d="M 135.269531 81.703125 C 135.652344 80.285156 135.316406 69.550781 136.109375 68.359375 C 138.535156 64.695312 145.304688 66.824219 150.011719 66.824219 C 153.964844 66.824219 160.949219 68.554688 162.941406 72.695312 C 164.078125 75.078125 160.828125 79.554688 161.410156 81.648438 C 161.488281 81.644531 161.570312 81.640625 161.652344 81.640625 C 163.898438 81.640625 165.726562 83.484375 165.726562 85.757812 C 165.726562 88.03125 163.898438 89.878906 161.652344 89.878906 C 161.472656 89.878906 161.292969 89.863281 161.117188 89.84375 C 160.652344 96.785156 153.398438 97.660156 152.085938 101.421875 C 151.300781 103.671875 151.601562 104.46875 151.601562 104.46875 C 151.601562 104.46875 152.242188 108.480469 147.652344 108.761719 C 143.96875 108.988281 143.542969 105.144531 143.542969 105.144531 C 143.542969 105.144531 144.171875 104.675781 142.898438 100.800781 C 141.664062 97.066406 134.40625 97.558594 135.238281 88.757812 C 134.628906 89.125 133.914062 89.339844 133.148438 89.339844 C 130.902344 89.339844 129.074219 87.492188 129.074219 85.21875 C 129.074219 82.945312 130.902344 81.097656 133.148438 81.097656 C 133.925781 81.097656 134.652344 81.320312 135.269531 81.703125 Z M 135.269531 81.703125 " fill-opacity="1" fill-rule="evenodd"/><path fill="#7c009f" d="M 133.070312 83.238281 C 133.480469 83.535156 133.765625 83.902344 133.941406 84.339844 C 134.109375 84.753906 134.171875 85.230469 134.136719 85.769531 C 134.128906 85.902344 134.234375 86.023438 134.375 86.035156 C 134.511719 86.042969 134.632812 85.933594 134.640625 85.792969 C 134.675781 85.179688 134.601562 84.628906 134.40625 84.152344 C 134.199219 83.628906 133.851562 83.1875 133.367188 82.832031 C 133.253906 82.75 133.097656 82.773438 133.015625 82.886719 C 132.933594 83 132.957031 83.15625 133.070312 83.238281 Z M 133.070312 83.238281 " fill-opacity="1" fill-rule="evenodd"/><path fill="#7c009f" d="M 162.65625 83.6875 C 162.128906 84.0625 161.710938 84.484375 161.398438 84.953125 C 161.066406 85.460938 160.859375 86.027344 160.792969 86.65625 C 160.777344 86.792969 160.882812 86.914062 161.015625 86.933594 C 161.15625 86.949219 161.277344 86.84375 161.296875 86.707031 C 161.351562 86.160156 161.53125 85.671875 161.820312 85.230469 C 162.097656 84.808594 162.476562 84.429688 162.945312 84.09375 C 163.0625 84.011719 163.085938 83.859375 163.003906 83.746094 C 162.921875 83.628906 162.769531 83.605469 162.65625 83.6875 Z M 162.65625 83.6875 " fill-opacity="1" fill-rule="evenodd"/><path fill="#7c009f" d="M 142.695312 92.941406 C 144.363281 92.09375 145.875 91.625 147.191406 91.726562 C 148.203125 91.800781 149.089844 92.21875 149.824219 93.0625 C 149.914062 93.164062 150.070312 93.175781 150.179688 93.085938 C 150.28125 92.996094 150.292969 92.835938 150.203125 92.730469 C 149.378906 91.777344 148.375 91.3125 147.226562 91.226562 C 145.839844 91.121094 144.226562 91.59375 142.472656 92.492188 C 142.34375 92.554688 142.296875 92.707031 142.359375 92.828125 C 142.421875 92.953125 142.574219 93.003906 142.695312 92.941406 Z M 142.695312 92.941406 " fill-opacity="1" fill-rule="evenodd"/><path fill="#7c009f" d="M 145.535156 87.644531 L 146.753906 87.960938 C 146.886719 87.996094 147.023438 87.914062 147.058594 87.78125 C 147.09375 87.644531 147.015625 87.511719 146.878906 87.472656 L 145.664062 87.160156 C 145.527344 87.125 145.394531 87.203125 145.355469 87.339844 C 145.320312 87.472656 145.402344 87.609375 145.535156 87.644531 Z M 145.535156 87.644531 " fill-opacity="1" fill-rule="evenodd"/><path fill="#7c009f" d="M 135.269531 81.703125 C 138.042969 79.085938 135.832031 71.574219 137.269531 69.4375 C 139.996094 65.371094 144.332031 67.296875 145.691406 71.148438 C 147.027344 74.929688 149.703125 75.273438 152.308594 75.289062 C 155.40625 75.3125 157.613281 72.589844 160.097656 74.570312 C 161.382812 75.597656 161.089844 81.59375 161.089844 81.59375 L 164.511719 79.253906 C 164.511719 79.253906 164.894531 69.320312 162.484375 67.140625 C 160.078125 64.960938 159.421875 63.316406 156.453125 62.90625 C 153.480469 62.496094 150.539062 61.640625 146.230469 62.050781 C 141.921875 62.460938 139.542969 62.523438 137.992188 63.449219 C 136.4375 64.371094 134.707031 64.554688 134.027344 67.050781 C 133.347656 69.542969 135.269531 81.703125 135.269531 81.703125 Z M 135.269531 81.703125 " fill-opacity="1" fill-rule="evenodd"/><path fill="#7c009f" d="M 143.527344 80.941406 C 143.527344 81.1875 143.496094 81.425781 143.425781 81.65625 C 143.359375 81.886719 143.261719 82.085938 143.132812 82.261719 C 143.007812 82.4375 142.859375 82.574219 142.695312 82.667969 C 142.53125 82.761719 142.355469 82.808594 142.179688 82.808594 C 142 82.808594 141.828125 82.761719 141.660156 82.667969 C 141.496094 82.574219 141.347656 82.4375 141.222656 82.261719 C 141.097656 82.085938 141 81.886719 140.929688 81.65625 C 140.863281 81.425781 140.828125 81.1875 140.828125 80.941406 C 140.828125 80.691406 140.863281 80.453125 140.929688 80.226562 C 141 79.996094 141.097656 79.792969 141.222656 79.621094 C 141.347656 79.445312 141.496094 79.308594 141.660156 79.214844 C 141.828125 79.121094 142 79.070312 142.179688 79.070312 C 142.355469 79.070312 142.53125 79.121094 142.695312 79.214844 C 142.859375 79.308594 143.007812 79.445312 143.132812 79.621094 C 143.261719 79.792969 143.359375 79.996094 143.425781 80.226562 C 143.496094 80.453125 143.527344 80.691406 143.527344 80.941406 Z M 143.527344 80.941406 " fill-opacity="1" fill-rule="nonzero"/><path fill="#7c009f" d="M 154.515625 81.347656 C 154.515625 81.59375 154.480469 81.832031 154.414062 82.0625 C 154.34375 82.289062 154.246094 82.492188 154.121094 82.667969 C 153.992188 82.84375 153.847656 82.976562 153.679688 83.074219 C 153.515625 83.167969 153.34375 83.214844 153.164062 83.214844 C 152.984375 83.214844 152.8125 83.167969 152.648438 83.074219 C 152.480469 82.976562 152.335938 82.84375 152.210938 82.667969 C 152.082031 82.492188 151.984375 82.289062 151.917969 82.0625 C 151.847656 81.832031 151.8125 81.59375 151.8125 81.347656 C 151.8125 81.097656 151.847656 80.859375 151.917969 80.632812 C 151.984375 80.402344 152.082031 80.199219 152.210938 80.023438 C 152.335938 79.847656 152.480469 79.714844 152.648438 79.621094 C 152.8125 79.523438 152.984375 79.476562 153.164062 79.476562 C 153.34375 79.476562 153.515625 79.523438 153.679688 79.621094 C 153.847656 79.714844 153.992188 79.847656 154.121094 80.023438 C 154.246094 80.199219 154.34375 80.402344 154.414062 80.632812 C 154.480469 80.859375 154.515625 81.097656 154.515625 81.347656 Z M 154.515625 81.347656 " fill-opacity="1" fill-rule="nonzero"/><path fill="#7c009f" d="M 139.300781 76.339844 C 139.691406 75.832031 140.476562 75.441406 141.382812 75.253906 C 142.164062 75.09375 143.042969 75.078125 143.867188 75.289062 C 144.113281 75.351562 144.367188 75.199219 144.429688 74.953125 C 144.492188 74.703125 144.339844 74.453125 144.089844 74.390625 C 143.132812 74.144531 142.105469 74.15625 141.191406 74.347656 C 140.042969 74.59375 139.070312 75.128906 138.570312 75.773438 C 138.414062 75.972656 138.449219 76.265625 138.652344 76.421875 C 138.855469 76.578125 139.148438 76.542969 139.300781 76.339844 Z M 139.300781 76.339844 " fill-opacity="1" fill-rule="evenodd"/><path fill="#7c009f" d="M 152.214844 77.519531 C 152.714844 78.164062 153.6875 78.699219 154.835938 78.941406 C 155.75 79.136719 156.777344 79.144531 157.734375 78.902344 C 157.984375 78.839844 158.136719 78.585938 158.074219 78.339844 C 158.007812 78.089844 157.757812 77.9375 157.507812 78 C 156.6875 78.210938 155.808594 78.199219 155.023438 78.035156 C 154.121094 77.847656 153.335938 77.460938 152.945312 76.953125 C 152.789062 76.75 152.5 76.710938 152.296875 76.871094 C 152.09375 77.023438 152.058594 77.316406 152.214844 77.519531 Z M 152.214844 77.519531 " fill-opacity="1" fill-rule="evenodd"/><path fill="#7c009f" d="M 106.976562 68.429688 C 107.066406 68.316406 107.238281 68.117188 107.394531 67.988281 C 108.230469 67.289062 109.625 66.609375 110.988281 66.257812 C 111.734375 66.066406 112.472656 65.972656 113.089844 66.066406 C 113.40625 66.117188 113.6875 66.203125 113.863281 66.425781 C 114.699219 67.472656 114.976562 68.246094 114.855469 68.992188 C 114.765625 69.570312 114.46875 70.105469 114.136719 70.691406 C 113.597656 71.628906 112.960938 72.640625 112.515625 73.914062 C 112.222656 74.742188 112.089844 75.589844 112.074219 76.445312 C 112.058594 77.257812 112.144531 78.078125 112.289062 78.875 C 112.402344 79.496094 113 79.910156 113.621094 79.796875 C 114.242188 79.683594 114.65625 79.089844 114.542969 78.464844 C 114.421875 77.816406 114.351562 77.148438 114.363281 76.492188 C 114.375 75.875 114.464844 75.265625 114.671875 74.671875 C 115.066406 73.546875 115.648438 72.65625 116.125 71.828125 C 116.601562 70.984375 116.984375 70.191406 117.117188 69.351562 C 117.3125 68.117188 117.046875 66.75 115.65625 64.996094 C 115.160156 64.378906 114.449219 63.988281 113.582031 63.832031 C 112.355469 63.601562 110.773438 63.859375 109.289062 64.390625 C 107.464844 65.046875 105.824219 66.121094 105.144531 67.035156 C 104.523438 67.871094 104.503906 68.675781 104.890625 69.308594 C 105.21875 69.851562 105.921875 70.023438 106.460938 69.691406 C 106.902344 69.421875 107.101562 68.90625 106.976562 68.429688 Z M 106.976562 68.429688 " fill-opacity="1" fill-rule="evenodd"/><path fill="#7c009f" d="M 115.476562 81.898438 L 115.226562 81.90625 C 114.59375 81.90625 114.082031 82.417969 114.082031 83.046875 C 114.082031 83.683594 114.59375 84.195312 115.226562 84.195312 L 115.554688 84.1875 C 116.183594 84.167969 116.683594 83.636719 116.660156 83.007812 C 116.636719 82.371094 116.113281 81.878906 115.476562 81.898438 Z M 115.476562 81.898438 " fill-opacity="1" fill-rule="evenodd"/><path fill="#9cbaff" d="M 134.335938 125.140625 L 288.898438 125.140625 C 291.804688 125.140625 294.179688 127.519531 294.179688 130.425781 L 294.179688 271.300781 C 294.179688 274.207031 291.804688 276.582031 288.898438 276.582031 L 134.335938 276.582031 C 131.429688 276.582031 129.050781 274.207031 129.050781 271.300781 L 129.050781 130.425781 C 129.050781 127.519531 131.429688 125.140625 134.335938 125.140625 Z M 134.335938 125.140625 " fill-opacity="1" fill-rule="evenodd"/><path fill="#7c009f" d="M 294.710938 130.214844 L 294.710938 271.300781 C 294.710938 274.46875 292.121094 277.113281 288.898438 277.113281 L 134.335938 277.113281 C 131.273438 277.113281 128.734375 274.734375 128.523438 271.667969 C 128.894531 271.722656 129.210938 271.667969 129.582031 271.617188 C 129.738281 274.101562 131.851562 276.054688 134.335938 276.054688 L 288.898438 276.054688 C 291.484375 276.054688 293.652344 273.941406 293.652344 271.300781 L 293.652344 130.953125 C 294.074219 130.796875 294.445312 130.53125 294.710938 130.214844 Z M 294.710938 130.214844 " fill-opacity="1" fill-rule="nonzero"/><path fill="#f8eaff" d="M 129.792969 120.542969 L 284.351562 120.542969 C 287.257812 120.542969 289.636719 122.921875 289.636719 125.828125 L 289.636719 266.703125 C 289.636719 269.609375 287.257812 271.988281 284.351562 271.988281 L 129.792969 271.988281 C 126.886719 271.988281 124.507812 269.609375 124.507812 266.703125 L 124.507812 125.828125 C 124.507812 122.921875 126.886719 120.542969 129.792969 120.542969 Z M 129.792969 120.542969 " fill-opacity="1" fill-rule="evenodd"/><path fill="#7c009f" d="M 129.792969 120.015625 L 284.351562 120.015625 C 285.9375 120.015625 287.417969 120.648438 288.472656 121.707031 C 289.53125 122.761719 290.164062 124.191406 290.164062 125.828125 L 290.164062 266.703125 C 290.164062 268.289062 289.53125 269.765625 288.472656 270.824219 C 287.417969 271.878906 285.988281 272.515625 284.351562 272.515625 L 129.792969 272.515625 C 128.207031 272.515625 126.726562 271.878906 125.671875 270.824219 C 124.613281 269.765625 123.980469 268.339844 123.980469 266.703125 L 123.980469 125.828125 C 123.980469 124.242188 124.613281 122.761719 125.671875 121.707031 L 125.722656 121.652344 C 126.78125 120.648438 128.207031 120.015625 129.792969 120.015625 Z M 284.351562 121.070312 L 129.792969 121.070312 C 128.472656 121.070312 127.308594 121.601562 126.464844 122.445312 L 126.464844 122.5 C 125.617188 123.34375 125.089844 124.558594 125.089844 125.878906 L 125.089844 266.753906 C 125.089844 268.074219 125.617188 269.238281 126.464844 270.136719 C 127.308594 270.984375 128.523438 271.511719 129.84375 271.511719 L 284.40625 271.511719 C 285.726562 271.511719 286.886719 270.984375 287.785156 270.136719 C 288.632812 269.292969 289.160156 268.074219 289.160156 266.753906 L 289.160156 125.828125 C 289.160156 124.507812 288.632812 123.34375 287.785156 122.445312 C 286.835938 121.601562 285.671875 121.070312 284.351562 121.070312 Z M 284.351562 121.070312 " fill-opacity="1" fill-rule="nonzero"/><path fill="#ffa8dc" d="M 129.792969 120.542969 L 284.351562 120.542969 C 287.257812 120.542969 289.636719 122.921875 289.636719 125.828125 L 289.636719 150.503906 L 124.507812 150.503906 L 124.507812 125.828125 C 124.507812 122.921875 126.886719 120.542969 129.792969 120.542969 Z M 129.792969 120.542969 " fill-opacity="1" fill-rule="evenodd"/><path fill="#7c009f" d="M 129.792969 120.015625 L 284.351562 120.015625 C 285.9375 120.015625 287.417969 120.648438 288.472656 121.707031 C 289.53125 122.761719 290.164062 124.191406 290.164062 125.828125 L 290.164062 150.503906 C 290.164062 150.820312 289.953125 151.03125 289.636719 151.03125 L 124.507812 151.03125 C 124.191406 151.03125 123.980469 150.820312 123.980469 150.503906 L 123.980469 125.828125 C 123.980469 124.242188 124.613281 122.761719 125.671875 121.707031 L 125.722656 121.652344 C 126.78125 120.648438 128.207031 120.015625 129.792969 120.015625 Z M 284.351562 121.070312 L 129.792969 121.070312 C 128.472656 121.070312 127.308594 121.601562 126.464844 122.445312 L 126.464844 122.5 C 125.617188 123.34375 125.089844 124.558594 125.089844 125.878906 L 125.089844 150.027344 L 289.160156 150.027344 L 289.160156 125.828125 C 289.160156 124.507812 288.632812 123.34375 287.785156 122.445312 C 286.835938 121.601562 285.671875 121.070312 284.351562 121.070312 Z M 284.351562 121.070312 " fill-opacity="1" fill-rule="nonzero"/><path fill="#7c009f" d="M 146.121094 162.871094 L 270.613281 162.871094 C 272.039062 162.871094 273.359375 163.34375 274.3125 164.136719 C 275.261719 164.929688 275.898438 166.09375 275.898438 167.359375 L 275.898438 186.4375 C 275.898438 187.703125 275.316406 188.816406 274.3125 189.660156 C 273.359375 190.453125 272.039062 190.929688 270.613281 190.929688 L 149.976562 190.929688 C 148.550781 190.929688 147.230469 190.453125 146.277344 189.660156 C 145.328125 188.867188 144.691406 187.703125 144.691406 186.4375 L 144.691406 173.808594 C 144.324219 173.542969 143.953125 173.226562 143.582031 172.960938 C 142.105469 171.851562 140.625 170.691406 139.832031 169.210938 C 139.515625 168.683594 139.355469 168.101562 139.304688 167.519531 C 139.199219 166.726562 139.355469 165.933594 139.671875 165.246094 C 140.042969 164.558594 140.570312 163.925781 141.363281 163.503906 C 141.894531 163.1875 142.527344 163.027344 143.320312 162.921875 C 144.113281 162.816406 144.90625 162.816406 145.804688 162.816406 Z M 152.300781 163.925781 L 145.804688 163.925781 C 144.957031 163.925781 144.164062 163.925781 143.425781 164.03125 C 142.789062 164.085938 142.316406 164.242188 141.894531 164.507812 C 141.3125 164.824219 140.886719 165.246094 140.625 165.777344 C 140.359375 166.304688 140.253906 166.886719 140.359375 167.464844 C 140.414062 167.890625 140.570312 168.363281 140.78125 168.789062 C 141.46875 170.054688 142.898438 171.164062 144.269531 172.167969 C 144.691406 172.488281 145.167969 172.855469 145.589844 173.171875 C 145.75 173.277344 145.804688 173.4375 145.804688 173.597656 L 145.804688 186.488281 C 145.804688 187.441406 146.277344 188.285156 147.019531 188.921875 C 147.757812 189.554688 148.867188 189.976562 150.03125 189.976562 L 270.667969 189.976562 C 271.828125 189.976562 272.886719 189.554688 273.679688 188.921875 C 274.417969 188.285156 274.894531 187.441406 274.894531 186.488281 L 274.894531 167.414062 C 274.894531 166.460938 274.417969 165.617188 273.679688 164.984375 C 272.9375 164.347656 271.828125 163.925781 270.667969 163.925781 Z M 152.300781 163.925781 " fill-opacity="1" fill-rule="nonzero"/><path fill="#7c009f" d="M 146.121094 195.789062 L 270.613281 195.789062 C 272.039062 195.789062 273.359375 196.265625 274.3125 197.058594 C 275.261719 197.851562 275.898438 199.011719 275.898438 200.28125 L 275.898438 219.355469 C 275.898438 220.625 275.316406 221.734375 274.3125 222.578125 C 273.359375 223.371094 272.039062 223.847656 270.613281 223.847656 L 149.976562 223.847656 C 148.550781 223.847656 147.230469 223.371094 146.277344 222.578125 C 145.328125 221.789062 144.691406 220.625 144.691406 219.355469 L 144.691406 206.726562 C 144.375 206.464844 143.953125 206.144531 143.582031 205.882812 L 143.53125 205.828125 C 142.105469 204.71875 140.570312 203.558594 139.832031 202.128906 C 139.515625 201.601562 139.355469 201.019531 139.304688 200.441406 C 139.199219 199.648438 139.355469 198.855469 139.671875 198.167969 C 140.042969 197.480469 140.570312 196.847656 141.363281 196.421875 C 141.894531 196.105469 142.527344 195.949219 143.320312 195.84375 C 144.058594 195.738281 144.90625 195.738281 145.804688 195.738281 Z M 152.300781 196.847656 L 145.804688 196.847656 C 144.957031 196.847656 144.164062 196.847656 143.425781 196.953125 C 142.789062 197.003906 142.316406 197.164062 141.894531 197.425781 C 141.3125 197.746094 140.886719 198.167969 140.625 198.695312 C 140.359375 199.222656 140.253906 199.804688 140.359375 200.386719 C 140.414062 200.808594 140.570312 201.285156 140.78125 201.707031 C 141.46875 202.976562 142.84375 204.03125 144.21875 205.089844 L 144.269531 205.089844 C 144.691406 205.40625 145.117188 205.777344 145.589844 206.09375 C 145.75 206.199219 145.804688 206.359375 145.804688 206.515625 L 145.804688 219.410156 C 145.804688 220.359375 146.277344 221.207031 147.019531 221.839844 C 147.757812 222.472656 148.867188 222.898438 150.03125 222.898438 L 270.667969 222.898438 C 271.828125 222.898438 272.886719 222.472656 273.679688 221.839844 C 274.417969 221.207031 274.894531 220.359375 274.894531 219.410156 L 274.894531 200.332031 C 274.894531 199.382812 274.417969 198.539062 273.679688 197.902344 C 272.9375 197.269531 271.828125 196.847656 270.667969 196.847656 Z M 152.300781 196.847656 " fill-opacity="1" fill-rule="nonzero"/><path fill="#7c009f" d="M 146.121094 228.710938 L 270.613281 228.710938 C 272.039062 228.710938 273.359375 229.183594 274.3125 229.976562 C 275.261719 230.769531 275.898438 231.933594 275.898438 233.199219 L 275.898438 252.277344 C 275.898438 253.542969 275.316406 254.65625 274.3125 255.5 C 273.359375 256.292969 272.039062 256.769531 270.613281 256.769531 L 149.976562 256.769531 C 148.550781 256.769531 147.230469 256.292969 146.277344 255.5 C 145.328125 254.707031 144.691406 253.542969 144.691406 252.277344 L 144.691406 239.648438 C 144.324219 239.382812 143.953125 239.066406 143.582031 238.800781 C 142.105469 237.691406 140.625 236.53125 139.832031 235.050781 C 139.515625 234.523438 139.355469 233.941406 139.304688 233.359375 C 139.199219 232.566406 139.355469 231.773438 139.671875 231.085938 C 140.042969 230.402344 140.570312 229.765625 141.363281 229.34375 C 141.894531 229.027344 142.527344 228.867188 143.320312 228.761719 C 144.113281 228.65625 144.90625 228.65625 145.804688 228.65625 Z M 152.300781 229.765625 L 145.804688 229.765625 C 144.957031 229.765625 144.164062 229.765625 143.425781 229.871094 C 142.789062 229.925781 142.316406 230.082031 141.894531 230.347656 C 141.3125 230.664062 140.886719 231.085938 140.625 231.617188 C 140.359375 232.144531 140.253906 232.726562 140.359375 233.308594 C 140.414062 233.730469 140.570312 234.203125 140.78125 234.628906 C 141.46875 235.894531 142.898438 237.003906 144.269531 238.007812 C 144.691406 238.328125 145.167969 238.695312 145.589844 239.011719 C 145.75 239.121094 145.804688 239.277344 145.804688 239.4375 L 145.804688 252.328125 C 145.804688 253.28125 146.277344 254.125 147.019531 254.761719 C 147.757812 255.394531 148.867188 255.816406 150.03125 255.816406 L 270.667969 255.816406 C 271.828125 255.816406 272.886719 255.394531 273.679688 254.761719 C 274.417969 254.125 274.894531 253.28125 274.894531 252.328125 L 274.894531 233.253906 C 274.894531 232.300781 274.417969 231.457031 273.679688 230.824219 C 272.9375 230.1875 271.828125 229.765625 270.667969 229.765625 Z M 152.300781 229.765625 " fill-opacity="1" fill-rule="nonzero"/><path fill="#ffa8dc" d="M 157.429688 172.222656 C 156.105469 172.222656 154.945312 172.75 154.097656 173.597656 C 153.253906 174.441406 152.726562 175.605469 152.726562 176.925781 C 152.726562 178.246094 153.253906 179.410156 154.097656 180.253906 C 154.945312 181.101562 156.105469 181.628906 157.429688 181.628906 C 158.75 181.628906 159.910156 181.101562 160.757812 180.253906 C 161.601562 179.410156 162.128906 178.246094 162.128906 176.925781 C 162.128906 175.605469 161.601562 174.441406 160.757812 173.597656 C 159.859375 172.75 158.695312 172.222656 157.429688 172.222656 Z M 153.359375 172.855469 C 154.414062 171.800781 155.84375 171.164062 157.429688 171.164062 C 159.011719 171.164062 160.441406 171.800781 161.496094 172.855469 C 162.554688 173.914062 163.1875 175.339844 163.1875 176.925781 C 163.1875 178.511719 162.554688 179.9375 161.496094 180.992188 C 160.441406 182.050781 159.011719 182.683594 157.429688 182.683594 C 155.84375 182.683594 154.414062 182.050781 153.359375 180.992188 C 152.300781 179.9375 151.667969 178.511719 151.667969 176.925781 C 151.667969 175.339844 152.300781 173.859375 153.359375 172.855469 Z M 155.15625 175.394531 C 154.945312 175.179688 154.945312 174.863281 155.15625 174.652344 C 155.367188 174.441406 155.683594 174.441406 155.894531 174.652344 L 159.699219 178.457031 C 159.910156 178.667969 159.910156 178.984375 159.699219 179.199219 C 159.488281 179.410156 159.171875 179.410156 158.960938 179.199219 Z M 158.90625 174.652344 C 159.117188 174.441406 159.4375 174.441406 159.648438 174.652344 C 159.859375 174.863281 159.859375 175.179688 159.648438 175.394531 L 155.84375 179.199219 C 155.632812 179.410156 155.3125 179.410156 155.101562 179.199219 C 154.890625 178.984375 154.890625 178.667969 155.101562 178.457031 Z M 157.429688 238.433594 C 156.105469 238.433594 154.945312 238.960938 154.097656 239.804688 C 153.253906 240.652344 152.726562 241.8125 152.726562 243.136719 C 152.726562 244.457031 153.253906 245.617188 154.097656 246.464844 C 154.945312 247.308594 156.105469 247.839844 157.429688 247.839844 C 158.75 247.839844 159.910156 247.308594 160.757812 246.464844 C 161.601562 245.617188 162.128906 244.457031 162.128906 243.136719 C 162.128906 241.8125 161.601562 240.652344 160.757812 239.804688 C 159.859375 238.960938 158.695312 238.433594 157.429688 238.433594 Z M 153.359375 239.066406 C 154.414062 238.007812 155.84375 237.375 157.429688 237.375 C 159.011719 237.375 160.441406 238.007812 161.496094 239.066406 C 162.554688 240.125 163.1875 241.550781 163.1875 243.136719 C 163.1875 244.71875 162.554688 246.148438 161.496094 247.203125 C 160.441406 248.261719 159.011719 248.894531 157.429688 248.894531 C 155.84375 248.894531 154.414062 248.261719 153.359375 247.203125 C 152.300781 246.148438 151.667969 244.71875 151.667969 243.136719 C 151.667969 241.550781 152.300781 240.070312 153.359375 239.066406 Z M 155.15625 241.601562 C 154.945312 241.390625 154.945312 241.074219 155.15625 240.863281 C 155.367188 240.652344 155.683594 240.652344 155.894531 240.863281 L 159.699219 244.667969 C 159.910156 244.878906 159.910156 245.195312 159.699219 245.40625 C 159.488281 245.617188 159.171875 245.617188 158.960938 245.40625 Z M 158.90625 240.863281 C 159.117188 240.652344 159.4375 240.652344 159.648438 240.863281 C 159.859375 241.074219 159.859375 241.390625 159.648438 241.601562 L 155.84375 245.40625 C 155.632812 245.617188 155.3125 245.617188 155.101562 245.40625 C 154.890625 245.195312 154.890625 244.878906 155.101562 244.667969 Z M 158.90625 240.863281 " fill-opacity="1" fill-rule="nonzero"/><path fill="#9cbaff" d="M 157.429688 205.140625 C 156.105469 205.140625 154.945312 205.671875 154.097656 206.515625 C 153.253906 207.363281 152.726562 208.523438 152.726562 209.84375 C 152.726562 211.167969 153.253906 212.328125 154.097656 213.175781 C 154.945312 214.019531 156.105469 214.546875 157.429688 214.546875 C 158.75 214.546875 159.910156 214.019531 160.757812 213.175781 C 161.601562 212.328125 162.128906 211.167969 162.128906 209.84375 C 162.128906 208.523438 161.601562 207.363281 160.757812 206.515625 C 159.859375 205.671875 158.695312 205.140625 157.429688 205.140625 Z M 153.359375 205.777344 C 154.414062 204.71875 155.84375 204.085938 157.429688 204.085938 C 159.011719 204.085938 160.441406 204.71875 161.496094 205.777344 C 162.554688 206.832031 163.1875 208.261719 163.1875 209.84375 C 163.1875 211.429688 162.554688 212.855469 161.496094 213.914062 C 160.441406 214.972656 159.011719 215.605469 157.429688 215.605469 C 155.84375 215.605469 154.414062 214.972656 153.359375 213.914062 C 152.300781 212.855469 151.667969 211.429688 151.667969 209.84375 C 151.667969 208.261719 152.300781 206.78125 153.359375 205.777344 Z M 159.332031 207.730469 C 159.542969 207.519531 159.859375 207.519531 160.070312 207.730469 C 160.28125 207.941406 160.28125 208.261719 160.070312 208.472656 L 156.636719 211.90625 C 156.425781 212.117188 156.105469 212.117188 155.894531 211.90625 L 154.628906 210.636719 C 154.414062 210.425781 154.414062 210.109375 154.628906 209.898438 C 154.839844 209.6875 155.15625 209.6875 155.367188 209.898438 L 156.210938 210.742188 Z M 159.332031 207.730469 " fill-opacity="1" fill-rule="nonzero"/><g clip-path="url(#bd0638f5a6)"><path fill="#f8eaff" d="M 285.777344 145.167969 L 277.324219 145.167969 C 277.324219 143.847656 277.269531 143.054688 277.269531 142.738281 C 277.269531 139.777344 277.746094 137.292969 278.644531 135.390625 C 279.542969 133.488281 281.339844 131.324219 284.089844 128.894531 C 286.835938 126.515625 288.421875 124.929688 288.949219 124.191406 C 289.792969 123.027344 290.164062 121.707031 290.164062 120.28125 C 290.164062 118.324219 289.425781 116.632812 288 115.257812 C 286.570312 113.832031 284.617188 113.144531 282.132812 113.144531 C 279.753906 113.144531 277.800781 113.886719 276.160156 115.367188 C 274.578125 116.84375 273.46875 119.0625 272.886719 122.078125 L 264.324219 120.914062 C 264.589844 116.582031 266.28125 112.933594 269.398438 109.921875 C 272.515625 106.910156 276.636719 105.429688 281.761719 105.429688 C 287.101562 105.429688 291.378906 106.964844 294.550781 109.976562 C 297.722656 113.039062 299.304688 116.527344 299.304688 120.597656 C 299.304688 122.816406 298.726562 124.929688 297.5625 126.9375 C 296.398438 128.945312 293.917969 131.640625 290.113281 135.074219 C 288.15625 136.871094 286.941406 138.296875 286.464844 139.355469 C 285.9375 140.464844 285.726562 142.421875 285.777344 145.167969 Z M 277.324219 158.800781 L 277.324219 148.65625 L 285.777344 148.65625 L 285.777344 158.746094 L 277.324219 158.746094 Z M 277.324219 158.800781 " fill-opacity="1" fill-rule="nonzero"/></g><g clip-path="url(#34a1ff04e1)"><path fill="#7c009f" d="M 285.777344 145.695312 L 277.269531 145.695312 C 276.953125 145.695312 276.742188 145.484375 276.742188 145.167969 C 276.796875 144.375 276.742188 143.53125 276.691406 142.738281 C 276.691406 141.203125 276.796875 139.832031 277.058594 138.5625 C 277.269531 137.292969 277.640625 136.132812 278.117188 135.128906 C 278.59375 134.125 279.28125 133.066406 280.230469 131.957031 C 281.128906 130.847656 282.292969 129.683594 283.664062 128.46875 C 285.039062 127.253906 286.097656 126.25 286.886719 125.511719 C 287.679688 124.769531 288.210938 124.191406 288.421875 123.820312 C 288.789062 123.292969 289.109375 122.710938 289.265625 122.128906 C 289.476562 121.546875 289.53125 120.914062 289.53125 120.226562 C 289.53125 119.328125 289.371094 118.484375 289.054688 117.691406 C 288.738281 116.898438 288.210938 116.210938 287.523438 115.578125 C 286.835938 114.941406 286.042969 114.46875 285.144531 114.097656 C 284.246094 113.78125 283.191406 113.621094 282.027344 113.621094 C 280.917969 113.621094 279.859375 113.78125 278.960938 114.148438 C 278.011719 114.46875 277.21875 114.996094 276.425781 115.683594 C 275.6875 116.371094 275.050781 117.269531 274.523438 118.273438 C 273.996094 119.328125 273.574219 120.597656 273.308594 122.078125 C 273.253906 122.339844 272.992188 122.550781 272.675781 122.5 L 264.167969 121.335938 C 263.902344 121.285156 263.691406 121.070312 263.691406 120.808594 C 263.796875 118.589844 264.324219 116.527344 265.171875 114.625 C 266.015625 112.722656 267.285156 111.03125 268.921875 109.445312 C 270.5625 107.914062 272.410156 106.699219 274.523438 105.960938 L 274.578125 105.960938 C 276.691406 105.167969 279.066406 104.796875 281.65625 104.796875 C 284.40625 104.796875 286.886719 105.167969 289.054688 105.960938 C 291.273438 106.753906 293.175781 107.914062 294.816406 109.5 C 296.453125 111.085938 297.667969 112.777344 298.511719 114.574219 C 299.359375 116.421875 299.730469 118.378906 299.730469 120.492188 C 299.730469 121.652344 299.570312 122.761719 299.253906 123.925781 C 298.9375 125.035156 298.511719 126.09375 297.878906 127.148438 C 297.296875 128.152344 296.347656 129.367188 295.078125 130.796875 C 293.8125 132.167969 292.277344 133.703125 290.324219 135.445312 C 289.371094 136.289062 288.578125 137.082031 288 137.769531 C 287.417969 138.457031 286.996094 139.039062 286.78125 139.515625 C 286.570312 139.988281 286.414062 140.730469 286.308594 141.628906 C 286.203125 142.578125 286.148438 143.742188 286.203125 145.113281 C 286.308594 145.484375 286.097656 145.695312 285.777344 145.695312 Z M 277.851562 144.640625 L 285.25 144.640625 C 285.25 143.425781 285.304688 142.421875 285.410156 141.574219 C 285.515625 140.570312 285.726562 139.726562 285.992188 139.144531 C 286.253906 138.5625 286.730469 137.875 287.363281 137.136719 C 288 136.394531 288.789062 135.605469 289.792969 134.707031 C 291.695312 133.015625 293.230469 131.480469 294.445312 130.109375 C 295.660156 128.785156 296.558594 127.625 297.140625 126.671875 C 297.722656 125.722656 298.144531 124.71875 298.40625 123.714844 C 298.671875 122.710938 298.832031 121.652344 298.832031 120.597656 C 298.832031 118.640625 298.460938 116.84375 297.667969 115.101562 C 296.929688 113.410156 295.765625 111.824219 294.234375 110.34375 C 292.699219 108.867188 290.90625 107.757812 288.84375 107.015625 C 286.78125 106.277344 284.40625 105.90625 281.816406 105.90625 C 279.332031 105.90625 277.113281 106.277344 275.105469 107.015625 C 273.097656 107.757812 271.351562 108.8125 269.875 110.292969 C 268.339844 111.773438 267.179688 113.359375 266.386719 115.152344 C 265.644531 116.792969 265.171875 118.535156 265.011719 120.4375 L 272.570312 121.496094 C 272.886719 120.175781 273.253906 118.957031 273.785156 117.902344 C 274.363281 116.738281 275.050781 115.789062 275.898438 114.996094 L 275.949219 114.941406 C 276.796875 114.148438 277.746094 113.570312 278.804688 113.199219 C 279.859375 112.828125 281.023438 112.617188 282.238281 112.617188 C 283.507812 112.617188 284.667969 112.828125 285.726562 113.199219 C 286.78125 113.570312 287.679688 114.148438 288.472656 114.890625 C 289.265625 115.628906 289.847656 116.476562 290.21875 117.375 C 290.585938 118.273438 290.796875 119.277344 290.796875 120.332031 C 290.796875 121.070312 290.691406 121.8125 290.480469 122.550781 C 290.269531 123.238281 289.953125 123.925781 289.476562 124.558594 C 289.214844 124.984375 288.632812 125.5625 287.785156 126.410156 C 286.941406 127.203125 285.882812 128.207031 284.511719 129.421875 C 283.191406 130.582031 282.078125 131.746094 281.183594 132.804688 C 280.285156 133.859375 279.648438 134.863281 279.226562 135.761719 C 278.804688 136.714844 278.433594 137.71875 278.222656 138.933594 C 278.011719 140.148438 277.90625 141.46875 277.90625 142.894531 L 277.90625 143.6875 Z M 276.796875 158.800781 L 276.796875 148.65625 C 276.796875 148.339844 277.007812 148.125 277.324219 148.125 L 285.777344 148.125 C 286.097656 148.125 286.308594 148.339844 286.308594 148.65625 L 286.308594 158.746094 C 286.308594 159.066406 286.097656 159.277344 285.777344 159.277344 L 277.324219 159.277344 C 277.007812 159.328125 276.796875 159.066406 276.796875 158.800781 Z M 277.851562 149.183594 L 277.851562 158.21875 L 285.25 158.21875 L 285.25 149.183594 Z M 277.851562 149.183594 " fill-opacity="1" fill-rule="nonzero"/></g><g clip-path="url(#8a150b5c02)"><path fill="#ffde59" d="M 281.867188 140.675781 L 273.359375 140.675781 C 273.359375 139.355469 273.308594 138.5625 273.308594 138.246094 C 273.308594 135.285156 273.785156 132.804688 274.683594 130.902344 C 275.582031 129 277.378906 126.832031 280.125 124.402344 C 282.871094 122.023438 284.457031 120.4375 284.984375 119.699219 C 285.832031 118.535156 286.203125 117.214844 286.203125 115.789062 C 286.203125 113.832031 285.460938 112.140625 284.035156 110.769531 C 282.609375 109.339844 280.652344 108.65625 278.167969 108.65625 C 275.792969 108.65625 273.835938 109.394531 272.199219 110.875 C 270.613281 112.351562 269.503906 114.574219 268.921875 117.585938 L 260.363281 116.421875 C 260.625 112.089844 262.316406 108.441406 265.433594 105.429688 C 268.660156 102.367188 272.78125 100.886719 277.851562 100.886719 C 283.191406 100.886719 287.46875 102.417969 290.640625 105.429688 C 293.8125 108.496094 295.394531 111.984375 295.394531 116.050781 C 295.394531 118.273438 294.816406 120.386719 293.652344 122.394531 C 292.488281 124.402344 290.007812 127.097656 286.203125 130.53125 C 284.246094 132.328125 283.03125 133.753906 282.554688 134.8125 C 282.078125 135.972656 281.816406 137.875 281.867188 140.675781 Z M 273.414062 154.257812 L 273.414062 144.164062 L 281.921875 144.164062 L 281.921875 154.257812 Z M 273.414062 154.257812 " fill-opacity="1" fill-rule="nonzero"/></g><g clip-path="url(#4a9b65b7ca)"><path fill="#7c009f" d="M 281.867188 141.203125 L 273.359375 141.203125 C 273.042969 141.203125 272.832031 140.992188 272.832031 140.675781 C 272.886719 139.882812 272.832031 139.039062 272.78125 138.246094 C 272.78125 136.714844 272.886719 135.339844 273.148438 134.070312 C 273.359375 132.804688 273.730469 131.640625 274.207031 130.636719 C 274.683594 129.632812 275.371094 128.574219 276.320312 127.464844 C 277.21875 126.355469 278.382812 125.195312 279.753906 123.976562 C 281.128906 122.761719 282.1875 121.757812 282.976562 121.019531 C 283.769531 120.28125 284.300781 119.699219 284.511719 119.328125 C 284.878906 118.800781 285.199219 118.21875 285.355469 117.636719 C 285.566406 117.054688 285.621094 116.421875 285.621094 115.734375 C 285.621094 114.835938 285.460938 113.992188 285.144531 113.199219 C 284.828125 112.40625 284.300781 111.71875 283.613281 111.085938 C 282.925781 110.453125 282.132812 109.976562 281.234375 109.605469 C 280.335938 109.289062 279.28125 109.128906 278.117188 109.128906 C 277.007812 109.128906 275.949219 109.289062 275.050781 109.660156 C 274.101562 109.976562 273.308594 110.503906 272.515625 111.191406 C 271.777344 111.878906 271.140625 112.777344 270.613281 113.78125 C 270.085938 114.835938 269.664062 116.105469 269.398438 117.585938 C 269.34375 117.847656 269.082031 118.058594 268.765625 118.007812 L 260.257812 116.84375 C 259.992188 116.792969 259.78125 116.582031 259.78125 116.316406 C 259.886719 114.097656 260.414062 112.035156 261.261719 110.132812 C 262.105469 108.230469 263.375 106.539062 265.011719 104.957031 C 266.652344 103.421875 268.5 102.207031 270.613281 101.46875 L 270.667969 101.46875 C 272.78125 100.675781 275.15625 100.304688 277.746094 100.304688 C 280.496094 100.304688 282.976562 100.675781 285.144531 101.46875 C 287.363281 102.261719 289.265625 103.421875 290.90625 105.007812 C 292.542969 106.59375 293.757812 108.285156 294.601562 110.082031 C 295.449219 111.929688 295.820312 113.886719 295.820312 116 C 295.820312 117.160156 295.660156 118.273438 295.34375 119.433594 C 295.027344 120.542969 294.601562 121.601562 293.96875 122.65625 C 293.386719 123.660156 292.4375 124.875 291.167969 126.304688 C 289.902344 127.675781 288.367188 129.210938 286.414062 130.953125 C 285.460938 131.800781 284.667969 132.589844 284.089844 133.277344 C 283.507812 133.964844 283.085938 134.546875 282.871094 135.023438 C 282.660156 135.496094 282.503906 136.238281 282.398438 137.136719 C 282.292969 138.085938 282.238281 139.25 282.292969 140.625 C 282.398438 140.992188 282.1875 141.203125 281.867188 141.203125 Z M 273.941406 140.148438 L 281.394531 140.148438 C 281.394531 138.933594 281.445312 137.929688 281.550781 137.082031 C 281.65625 136.078125 281.867188 135.234375 282.132812 134.652344 C 282.398438 134.070312 282.871094 133.382812 283.507812 132.644531 C 284.140625 131.90625 284.933594 131.113281 285.9375 130.214844 C 287.839844 128.523438 289.371094 126.992188 290.585938 125.617188 C 291.804688 124.296875 292.699219 123.132812 293.28125 122.183594 C 293.863281 121.230469 294.285156 120.226562 294.550781 119.222656 C 294.816406 118.21875 294.972656 117.160156 294.972656 116.105469 C 294.972656 114.148438 294.601562 112.351562 293.8125 110.609375 C 293.070312 108.917969 291.910156 107.332031 290.375 105.855469 C 288.84375 104.375 287.046875 103.265625 284.984375 102.523438 C 282.820312 101.785156 280.441406 101.414062 277.851562 101.414062 C 275.371094 101.414062 273.148438 101.785156 271.140625 102.523438 C 269.132812 103.265625 267.390625 104.320312 265.910156 105.800781 C 264.378906 107.28125 263.214844 108.867188 262.421875 110.664062 C 261.683594 112.300781 261.207031 114.042969 261.050781 115.945312 L 268.605469 117.003906 C 268.921875 115.683594 269.292969 114.46875 269.820312 113.410156 C 270.402344 112.246094 271.089844 111.296875 271.933594 110.503906 L 271.988281 110.453125 C 272.832031 109.660156 273.785156 109.078125 274.839844 108.707031 C 275.898438 108.335938 277.058594 108.125 278.277344 108.125 C 279.542969 108.125 280.707031 108.335938 281.761719 108.707031 C 282.820312 109.078125 283.71875 109.660156 284.511719 110.398438 C 285.304688 111.136719 285.882812 111.984375 286.253906 112.882812 C 286.625 113.78125 286.835938 114.785156 286.835938 115.839844 C 286.835938 116.582031 286.730469 117.320312 286.519531 118.058594 C 286.308594 118.746094 285.988281 119.433594 285.515625 120.066406 C 285.25 120.492188 284.667969 121.070312 283.824219 121.917969 C 282.976562 122.710938 281.921875 123.714844 280.546875 124.929688 C 279.226562 126.09375 278.117188 127.253906 277.21875 128.3125 C 276.320312 129.367188 275.6875 130.371094 275.261719 131.269531 C 274.839844 132.222656 274.472656 133.226562 274.257812 134.441406 C 274.046875 135.65625 273.941406 136.976562 273.941406 138.402344 Z M 272.886719 154.257812 L 272.886719 144.164062 C 272.886719 143.847656 273.097656 143.636719 273.414062 143.636719 L 281.921875 143.636719 C 282.238281 143.636719 282.449219 143.847656 282.449219 144.164062 L 282.449219 154.257812 C 282.449219 154.574219 282.238281 154.785156 281.921875 154.785156 L 273.414062 154.785156 C 273.097656 154.785156 272.886719 154.574219 272.886719 154.257812 Z M 273.941406 144.691406 L 273.941406 153.726562 L 281.394531 153.726562 L 281.394531 144.691406 Z M 273.941406 144.691406 " fill-opacity="1" fill-rule="nonzero"/></g><path fill="#ffa8dc" d="M 130.636719 239.277344 C 131.957031 242.132812 132.382812 244.351562 131.957031 245.988281 C 133.542969 245.300781 135.816406 245.511719 138.878906 246.515625 C 136.609375 248.628906 134.601562 249.742188 132.910156 249.847656 C 134.019531 251.113281 134.546875 253.386719 134.546875 256.609375 C 131.800781 255.078125 130.160156 253.542969 129.527344 251.960938 C 128.628906 253.4375 126.675781 254.65625 123.609375 255.605469 C 124.242188 252.539062 125.195312 250.480469 126.464844 249.371094 C 124.773438 249 123.027344 247.46875 121.179688 244.878906 C 124.296875 244.507812 126.570312 244.773438 127.996094 245.671875 C 127.835938 243.980469 128.734375 241.867188 130.636719 239.277344 Z M 127.308594 262 C 129.6875 264.800781 130.847656 267.179688 130.902344 269.132812 C 132.488281 267.863281 135.128906 267.390625 138.828125 267.601562 C 136.925781 270.71875 135.023438 272.566406 133.121094 273.203125 C 134.757812 274.3125 136.078125 276.636719 137.03125 280.28125 C 133.492188 279.4375 131.113281 278.167969 129.949219 276.636719 C 129.421875 278.539062 127.574219 280.546875 124.453125 282.554688 C 124.191406 278.910156 124.613281 276.265625 125.722656 274.679688 C 123.714844 274.785156 121.285156 273.625 118.378906 271.246094 C 121.761719 269.871094 124.402344 269.449219 126.304688 270.03125 C 125.617188 268.183594 125.933594 265.488281 127.308594 262 Z M 107.230469 254.65625 C 107.125 257.507812 107.492188 259.570312 108.445312 260.785156 C 106.859375 260.785156 105.007812 261.734375 102.789062 263.636719 C 105.484375 264.640625 107.546875 264.90625 108.972656 264.378906 C 108.496094 265.855469 108.8125 267.917969 109.921875 270.613281 C 111.71875 268.394531 112.566406 266.492188 112.566406 264.957031 C 113.832031 265.910156 115.894531 266.226562 118.800781 265.960938 C 117.214844 263.585938 115.683594 262.15625 114.203125 261.683594 C 115.472656 260.785156 116.421875 258.882812 117.109375 256.027344 C 114.363281 256.820312 112.566406 257.824219 111.667969 259.09375 C 111.246094 257.667969 109.765625 256.1875 107.230469 254.65625 Z M 107.230469 254.65625 " fill-opacity="1" fill-rule="evenodd"/><g clip-path="url(#56c6ad9a8c)"><path fill="#7c009f" d="M 131.113281 239.066406 C 131.800781 240.546875 132.222656 241.8125 132.488281 242.976562 C 132.644531 243.820312 132.699219 244.5625 132.644531 245.25 C 133.332031 245.089844 134.125 245.039062 134.96875 245.089844 C 136.1875 245.195312 137.558594 245.511719 139.09375 246.042969 C 139.355469 246.148438 139.515625 246.410156 139.410156 246.675781 C 139.355469 246.78125 139.304688 246.835938 139.25 246.886719 C 138.089844 247.996094 136.976562 248.789062 135.921875 249.371094 C 135.183594 249.792969 134.496094 250.058594 133.859375 250.214844 C 134.230469 250.796875 134.496094 251.535156 134.707031 252.328125 C 134.96875 253.492188 135.128906 254.917969 135.074219 256.558594 C 135.074219 256.820312 134.863281 257.085938 134.546875 257.085938 C 134.441406 257.085938 134.335938 257.085938 134.285156 257.03125 C 132.910156 256.238281 131.746094 255.445312 130.902344 254.65625 C 130.265625 254.074219 129.792969 253.492188 129.421875 252.910156 C 128.945312 253.4375 128.367188 253.914062 127.625 254.390625 C 126.621094 255.023438 125.300781 255.605469 123.714844 256.082031 C 123.449219 256.1875 123.132812 256.027344 123.082031 255.765625 C 123.082031 255.660156 123.082031 255.605469 123.082031 255.5 C 123.398438 253.914062 123.820312 252.59375 124.296875 251.535156 C 124.667969 250.796875 125.035156 250.109375 125.511719 249.632812 C 124.878906 249.371094 124.242188 248.949219 123.558594 248.367188 C 122.660156 247.574219 121.707031 246.515625 120.757812 245.195312 C 120.597656 244.984375 120.652344 244.667969 120.863281 244.457031 C 120.96875 244.402344 121.074219 244.351562 121.125 244.351562 C 122.710938 244.140625 124.085938 244.140625 125.246094 244.296875 C 126.09375 244.402344 126.78125 244.5625 127.414062 244.824219 C 127.46875 244.140625 127.679688 243.398438 127.996094 242.605469 C 128.472656 241.496094 129.15625 240.28125 130.160156 238.960938 C 130.320312 238.75 130.636719 238.695312 130.902344 238.855469 C 131.007812 238.90625 131.058594 238.960938 131.113281 239.066406 Z M 131.429688 243.1875 C 131.273438 242.34375 130.953125 241.339844 130.480469 240.28125 C 129.792969 241.234375 129.316406 242.132812 128.945312 242.976562 C 128.523438 243.980469 128.367188 244.824219 128.417969 245.617188 C 128.417969 245.722656 128.417969 245.828125 128.3125 245.9375 C 128.152344 246.199219 127.835938 246.253906 127.574219 246.09375 C 126.9375 245.671875 126.039062 245.40625 124.984375 245.300781 C 124.136719 245.195312 123.132812 245.195312 122.023438 245.300781 C 122.765625 246.253906 123.449219 246.992188 124.085938 247.574219 C 124.878906 248.261719 125.671875 248.683594 126.464844 248.894531 C 126.570312 248.894531 126.675781 249 126.726562 249.054688 C 126.886719 249.265625 126.886719 249.582031 126.621094 249.792969 C 126.039062 250.269531 125.511719 251.007812 125.089844 251.960938 C 124.71875 252.753906 124.402344 253.703125 124.136719 254.867188 C 125.246094 254.496094 126.199219 254.019531 126.992188 253.597656 C 127.890625 253.015625 128.578125 252.433594 128.945312 251.800781 C 129 251.695312 129.105469 251.644531 129.210938 251.589844 C 129.476562 251.484375 129.792969 251.589844 129.898438 251.855469 C 130.160156 252.59375 130.691406 253.28125 131.484375 254.019531 C 132.117188 254.601562 132.910156 255.234375 133.914062 255.816406 C 133.859375 254.65625 133.753906 253.652344 133.542969 252.804688 C 133.28125 251.75 132.910156 250.957031 132.382812 250.375 C 132.328125 250.269531 132.277344 250.164062 132.277344 250.058594 C 132.277344 249.792969 132.488281 249.527344 132.804688 249.527344 C 133.542969 249.476562 134.390625 249.210938 135.339844 248.683594 C 136.078125 248.261719 136.925781 247.679688 137.769531 246.941406 C 136.609375 246.621094 135.605469 246.410156 134.707031 246.304688 C 133.648438 246.199219 132.75 246.304688 132.0625 246.621094 C 131.957031 246.675781 131.851562 246.675781 131.746094 246.675781 C 131.484375 246.621094 131.324219 246.359375 131.378906 246.042969 C 131.640625 245.144531 131.640625 244.246094 131.429688 243.1875 Z M 127.730469 261.683594 C 128.945312 263.109375 129.84375 264.429688 130.425781 265.644531 C 130.902344 266.542969 131.164062 267.441406 131.324219 268.234375 C 132.0625 267.8125 132.960938 267.496094 133.964844 267.285156 C 135.339844 267.019531 136.976562 266.914062 138.878906 267.019531 C 139.144531 267.019531 139.355469 267.285156 139.355469 267.546875 C 139.355469 267.652344 139.304688 267.707031 139.304688 267.757812 C 138.300781 269.34375 137.347656 270.613281 136.34375 271.617188 C 135.605469 272.355469 134.917969 272.882812 134.179688 273.253906 C 134.8125 273.835938 135.339844 274.574219 135.867188 275.472656 C 136.554688 276.6875 137.136719 278.222656 137.613281 280.070312 C 137.664062 280.335938 137.507812 280.652344 137.242188 280.707031 C 137.136719 280.757812 137.03125 280.757812 136.976562 280.707031 C 135.183594 280.28125 133.648438 279.703125 132.433594 279.121094 C 131.535156 278.644531 130.796875 278.117188 130.214844 277.535156 C 129.84375 278.273438 129.316406 279.066406 128.628906 279.808594 C 127.679688 280.8125 126.410156 281.867188 124.773438 282.925781 C 124.507812 283.082031 124.191406 283.03125 124.085938 282.765625 C 124.03125 282.714844 124.03125 282.609375 124.03125 282.554688 C 123.875 280.707031 123.925781 279.066406 124.136719 277.746094 C 124.296875 276.742188 124.5625 275.84375 124.929688 275.105469 C 124.085938 275 123.1875 274.734375 122.234375 274.3125 C 120.96875 273.730469 119.59375 272.832031 118.113281 271.617188 C 117.902344 271.457031 117.851562 271.089844 118.0625 270.875 C 118.113281 270.824219 118.21875 270.769531 118.273438 270.71875 C 120.015625 270.03125 121.546875 269.554688 122.871094 269.34375 C 123.875 269.1875 124.773438 269.1875 125.566406 269.292969 C 125.40625 268.5 125.40625 267.546875 125.511719 266.542969 C 125.671875 265.167969 126.09375 263.585938 126.78125 261.789062 C 126.886719 261.523438 127.203125 261.367188 127.46875 261.472656 C 127.574219 261.523438 127.679688 261.578125 127.730469 261.683594 Z M 129.476562 266.121094 C 129 265.171875 128.3125 264.113281 127.414062 263.003906 C 126.9375 264.378906 126.621094 265.59375 126.515625 266.648438 C 126.355469 267.917969 126.464844 268.972656 126.78125 269.820312 C 126.832031 269.925781 126.832031 270.03125 126.78125 270.191406 C 126.675781 270.453125 126.410156 270.613281 126.144531 270.558594 C 125.300781 270.296875 124.242188 270.242188 122.976562 270.453125 C 121.917969 270.613281 120.757812 270.929688 119.433594 271.40625 C 120.597656 272.304688 121.65625 272.9375 122.660156 273.414062 C 123.820312 273.941406 124.824219 274.207031 125.777344 274.152344 C 125.882812 274.152344 125.988281 274.152344 126.09375 274.257812 C 126.304688 274.417969 126.355469 274.734375 126.199219 275 C 125.671875 275.738281 125.300781 276.742188 125.140625 277.957031 C 124.984375 279.015625 124.929688 280.28125 124.984375 281.65625 C 126.199219 280.8125 127.148438 280.019531 127.890625 279.226562 C 128.734375 278.328125 129.261719 277.429688 129.527344 276.582031 C 129.527344 276.476562 129.632812 276.371094 129.738281 276.265625 C 129.949219 276.109375 130.265625 276.109375 130.480469 276.320312 C 131.007812 277.058594 131.851562 277.691406 132.960938 278.273438 C 133.914062 278.75 135.074219 279.171875 136.398438 279.542969 C 135.972656 278.167969 135.5 277.007812 134.96875 276.054688 C 134.335938 274.945312 133.648438 274.152344 132.910156 273.625 C 132.804688 273.570312 132.75 273.464844 132.699219 273.359375 C 132.59375 273.097656 132.75 272.777344 133.066406 272.671875 C 133.914062 272.355469 134.8125 271.773438 135.710938 270.929688 C 136.449219 270.191406 137.242188 269.238281 138.035156 268.023438 C 136.554688 267.96875 135.289062 268.078125 134.230469 268.289062 C 133.015625 268.550781 132.011719 268.921875 131.324219 269.503906 C 131.21875 269.554688 131.113281 269.609375 131.007812 269.609375 C 130.742188 269.609375 130.480469 269.398438 130.480469 269.132812 C 130.375 268.234375 130.054688 267.230469 129.476562 266.121094 Z M 106.964844 258.460938 C 106.753906 257.402344 106.699219 256.132812 106.753906 254.707031 C 106.753906 254.601562 106.753906 254.496094 106.859375 254.390625 C 107.015625 254.125 107.335938 254.074219 107.546875 254.179688 C 108.8125 254.972656 109.871094 255.710938 110.664062 256.503906 C 111.191406 257.03125 111.613281 257.613281 111.933594 258.140625 C 112.355469 257.71875 112.9375 257.296875 113.570312 256.925781 C 114.519531 256.398438 115.683594 255.921875 117.109375 255.554688 C 117.164062 255.554688 117.269531 255.554688 117.320312 255.554688 C 117.585938 255.605469 117.746094 255.871094 117.691406 256.132812 C 117.375 257.613281 116.953125 258.828125 116.421875 259.832031 C 116.054688 260.519531 115.683594 261.046875 115.261719 261.523438 C 115.789062 261.789062 116.371094 262.210938 116.898438 262.6875 C 117.691406 263.425781 118.484375 264.378906 119.328125 265.644531 C 119.382812 265.699219 119.382812 265.804688 119.433594 265.910156 C 119.433594 266.175781 119.222656 266.4375 118.960938 266.492188 C 117.480469 266.597656 116.160156 266.597656 115.101562 266.4375 C 114.363281 266.332031 113.675781 266.121094 113.148438 265.855469 C 113.042969 266.4375 112.828125 267.070312 112.511719 267.757812 C 112.039062 268.710938 111.402344 269.820312 110.453125 270.929688 C 110.398438 270.984375 110.347656 271.089844 110.242188 271.089844 C 109.976562 271.195312 109.660156 271.089844 109.554688 270.824219 C 108.972656 269.449219 108.601562 268.183594 108.390625 267.125 C 108.285156 266.386719 108.234375 265.644531 108.339844 265.0625 C 107.703125 265.171875 107.070312 265.171875 106.277344 265.0625 C 105.222656 264.957031 103.953125 264.589844 102.578125 264.113281 C 102.527344 264.058594 102.421875 264.058594 102.367188 263.953125 C 102.207031 263.742188 102.207031 263.425781 102.421875 263.214844 C 103.582031 262.210938 104.640625 261.472656 105.589844 260.996094 C 106.277344 260.679688 106.910156 260.414062 107.492188 260.308594 C 107.335938 259.832031 107.125 259.199219 106.964844 258.460938 Z M 107.96875 258.246094 C 108.179688 259.199219 108.445312 259.9375 108.867188 260.519531 C 109.027344 260.730469 108.972656 261.046875 108.761719 261.257812 C 108.65625 261.3125 108.550781 261.367188 108.445312 261.367188 C 107.757812 261.367188 106.964844 261.578125 106.121094 262 C 105.433594 262.371094 104.640625 262.84375 103.847656 263.480469 C 104.796875 263.796875 105.695312 264.007812 106.4375 264.113281 C 107.386719 264.21875 108.179688 264.164062 108.867188 263.953125 C 109.132812 263.847656 109.449219 264.007812 109.5 264.273438 C 109.554688 264.378906 109.554688 264.484375 109.5 264.589844 C 109.289062 265.222656 109.238281 266.066406 109.394531 267.019531 C 109.5 267.8125 109.765625 268.710938 110.136719 269.660156 C 110.714844 268.867188 111.191406 268.078125 111.507812 267.390625 C 111.933594 266.542969 112.089844 265.75 112.089844 265.0625 C 112.089844 264.800781 112.300781 264.535156 112.617188 264.535156 C 112.722656 264.535156 112.882812 264.589844 112.9375 264.640625 C 113.515625 265.0625 114.257812 265.328125 115.207031 265.488281 C 116 265.59375 116.898438 265.644531 117.902344 265.59375 C 117.320312 264.800781 116.738281 264.113281 116.160156 263.585938 C 115.472656 262.949219 114.785156 262.476562 114.097656 262.265625 C 113.832031 262.15625 113.675781 261.894531 113.78125 261.628906 C 113.832031 261.523438 113.886719 261.417969 113.992188 261.367188 C 114.574219 260.941406 115.050781 260.363281 115.523438 259.464844 C 115.894531 258.777344 116.210938 257.878906 116.476562 256.875 C 115.523438 257.191406 114.679688 257.507812 113.992188 257.929688 C 113.148438 258.40625 112.511719 258.933594 112.144531 259.464844 C 111.984375 259.675781 111.667969 259.78125 111.402344 259.621094 C 111.296875 259.570312 111.246094 259.464844 111.191406 259.355469 C 110.980469 258.671875 110.558594 258.035156 109.871094 257.296875 C 109.289062 256.714844 108.601562 256.1875 107.757812 255.605469 Z M 107.96875 258.246094 " fill-opacity="1" fill-rule="nonzero"/></g><path fill="#ffde59" d="M 127.574219 238.539062 C 128.894531 241.390625 129.316406 243.609375 128.894531 245.25 C 130.480469 244.5625 132.75 244.773438 135.816406 245.777344 C 133.542969 247.890625 131.535156 249 129.84375 249.105469 C 130.953125 250.375 131.484375 252.648438 131.484375 255.871094 C 128.734375 254.335938 127.097656 252.804688 126.464844 251.21875 C 125.566406 252.699219 123.609375 253.914062 120.542969 254.867188 C 121.179688 251.800781 122.128906 249.742188 123.398438 248.628906 C 121.707031 248.261719 119.964844 246.726562 118.113281 244.140625 C 121.230469 243.769531 123.503906 244.035156 124.929688 244.933594 C 124.773438 243.242188 125.671875 241.074219 127.574219 238.539062 Z M 124.242188 261.207031 C 126.621094 264.007812 127.785156 266.386719 127.835938 268.339844 C 129.421875 267.070312 132.0625 266.597656 135.761719 266.808594 C 133.859375 269.925781 131.957031 271.773438 130.054688 272.410156 C 131.695312 273.519531 133.015625 275.84375 133.964844 279.488281 C 130.425781 278.644531 128.046875 277.375 126.886719 275.84375 C 126.355469 277.746094 124.507812 279.753906 121.390625 281.761719 C 121.125 278.117188 121.546875 275.472656 122.660156 273.890625 C 120.652344 273.996094 118.21875 272.832031 115.3125 270.453125 C 118.695312 269.082031 121.335938 268.65625 123.238281 269.238281 C 122.554688 267.390625 122.871094 264.695312 124.242188 261.207031 Z M 104.21875 253.914062 C 104.109375 256.769531 104.480469 258.828125 105.433594 260.042969 C 103.847656 260.042969 101.996094 260.996094 99.777344 262.898438 C 102.472656 263.902344 104.535156 264.164062 105.960938 263.636719 C 105.484375 265.117188 105.800781 267.179688 106.910156 269.871094 C 108.707031 267.652344 109.554688 265.75 109.554688 264.21875 C 110.820312 265.167969 112.882812 265.488281 115.789062 265.222656 C 114.203125 262.84375 112.671875 261.417969 111.191406 260.941406 C 112.460938 260.042969 113.410156 258.140625 114.097656 255.289062 C 111.351562 256.082031 109.554688 257.085938 108.65625 258.351562 C 108.234375 256.925781 106.699219 255.394531 104.21875 253.914062 Z M 104.21875 253.914062 " fill-opacity="1" fill-rule="evenodd"/><path fill="#7c009f" d="M 128.046875 238.273438 C 128.734375 239.753906 129.15625 241.023438 129.421875 242.183594 C 129.582031 243.03125 129.632812 243.769531 129.582031 244.457031 C 130.265625 244.296875 131.058594 244.246094 131.90625 244.296875 C 133.121094 244.402344 134.496094 244.71875 136.027344 245.25 C 136.292969 245.355469 136.449219 245.617188 136.34375 245.882812 C 136.292969 245.988281 136.238281 246.042969 136.1875 246.09375 C 135.023438 247.203125 133.914062 247.996094 132.855469 248.578125 C 132.117188 249 131.429688 249.265625 130.796875 249.421875 C 131.164062 250.003906 131.429688 250.746094 131.640625 251.535156 C 131.90625 252.699219 132.0625 254.125 132.011719 255.765625 C 132.011719 256.027344 131.800781 256.292969 131.484375 256.292969 C 131.378906 256.292969 131.273438 256.292969 131.21875 256.238281 C 129.84375 255.445312 128.683594 254.65625 127.835938 253.863281 C 127.203125 253.28125 126.726562 252.699219 126.355469 252.117188 C 125.882812 252.648438 125.300781 253.121094 124.5625 253.597656 C 123.558594 254.230469 122.234375 254.8125 120.652344 255.289062 C 120.386719 255.394531 120.070312 255.234375 120.015625 254.972656 C 120.015625 254.867188 120.015625 254.8125 120.015625 254.707031 C 120.332031 253.121094 120.757812 251.800781 121.230469 250.746094 C 121.601562 250.003906 121.972656 249.316406 122.445312 248.84375 C 121.8125 248.578125 121.179688 248.15625 120.492188 247.574219 C 119.59375 246.78125 118.640625 245.722656 117.691406 244.402344 C 117.53125 244.191406 117.585938 243.875 117.796875 243.664062 C 117.902344 243.609375 118.007812 243.558594 118.0625 243.558594 C 119.644531 243.347656 121.019531 243.347656 122.183594 243.503906 C 123.027344 243.609375 123.714844 243.769531 124.347656 244.035156 C 124.402344 243.347656 124.613281 242.605469 124.929688 241.8125 C 125.40625 240.703125 126.09375 239.488281 127.097656 238.167969 C 127.253906 237.957031 127.574219 237.902344 127.835938 238.0625 C 127.941406 238.167969 127.996094 238.222656 128.046875 238.273438 Z M 128.417969 242.449219 C 128.257812 241.601562 127.941406 240.597656 127.46875 239.542969 C 126.78125 240.492188 126.304688 241.390625 125.933594 242.238281 C 125.511719 243.242188 125.351562 244.085938 125.40625 244.878906 C 125.40625 244.984375 125.40625 245.089844 125.300781 245.195312 C 125.140625 245.460938 124.824219 245.511719 124.5625 245.355469 C 123.925781 244.933594 123.082031 244.667969 121.972656 244.5625 C 121.125 244.457031 120.121094 244.457031 119.011719 244.5625 C 119.753906 245.511719 120.4375 246.253906 121.074219 246.835938 C 121.867188 247.519531 122.660156 247.945312 123.449219 248.15625 C 123.558594 248.15625 123.664062 248.261719 123.714844 248.3125 C 123.875 248.523438 123.875 248.84375 123.609375 249.054688 C 123.027344 249.527344 122.5 250.269531 122.078125 251.21875 C 121.707031 252.011719 121.390625 252.964844 121.125 254.125 C 122.234375 253.757812 123.1875 253.28125 123.980469 252.859375 C 124.878906 252.277344 125.566406 251.695312 125.933594 251.0625 C 125.988281 250.957031 126.09375 250.902344 126.199219 250.851562 C 126.464844 250.746094 126.78125 250.851562 126.886719 251.113281 C 127.148438 251.855469 127.679688 252.539062 128.472656 253.28125 C 129.105469 253.863281 129.898438 254.496094 130.902344 255.078125 C 130.847656 253.914062 130.742188 252.910156 130.53125 252.066406 C 130.265625 251.007812 129.898438 250.214844 129.371094 249.632812 C 129.316406 249.527344 129.261719 249.421875 129.261719 249.316406 C 129.261719 249.054688 129.476562 248.789062 129.792969 248.789062 C 130.53125 248.734375 131.378906 248.472656 132.328125 247.945312 C 133.066406 247.519531 133.914062 246.941406 134.757812 246.199219 C 133.597656 245.882812 132.59375 245.671875 131.695312 245.566406 C 130.636719 245.460938 129.738281 245.566406 129.050781 245.882812 C 128.945312 245.9375 128.839844 245.9375 128.734375 245.9375 C 128.472656 245.882812 128.3125 245.617188 128.367188 245.300781 C 128.628906 244.402344 128.578125 243.503906 128.417969 242.449219 Z M 124.667969 260.890625 C 125.882812 262.316406 126.78125 263.636719 127.359375 264.851562 C 127.835938 265.75 128.101562 266.648438 128.257812 267.441406 C 129 267.019531 129.898438 266.703125 130.902344 266.492188 C 132.277344 266.226562 133.914062 266.121094 135.816406 266.226562 C 136.078125 266.226562 136.292969 266.492188 136.292969 266.753906 C 136.292969 266.859375 136.238281 266.914062 136.238281 266.964844 C 135.234375 268.550781 134.285156 269.820312 133.28125 270.824219 C 132.539062 271.5625 131.851562 272.09375 131.113281 272.460938 C 131.746094 273.042969 132.277344 273.78125 132.804688 274.679688 C 133.492188 275.898438 134.070312 277.429688 134.546875 279.277344 C 134.601562 279.542969 134.441406 279.859375 134.179688 279.914062 C 134.070312 279.964844 133.964844 279.964844 133.914062 279.914062 C 132.117188 279.488281 130.585938 278.910156 129.371094 278.328125 C 128.472656 277.851562 127.730469 277.324219 127.148438 276.742188 C 126.78125 277.480469 126.25 278.273438 125.566406 279.015625 C 124.613281 280.019531 123.34375 281.074219 121.707031 282.132812 C 121.441406 282.289062 121.125 282.238281 121.019531 281.972656 C 120.96875 281.921875 120.96875 281.816406 120.96875 281.761719 C 120.808594 279.914062 120.863281 278.273438 121.074219 276.953125 C 121.230469 275.949219 121.496094 275.050781 121.867188 274.3125 C 121.019531 274.207031 120.121094 273.941406 119.171875 273.519531 C 117.902344 272.9375 116.527344 272.039062 115.050781 270.824219 C 114.839844 270.664062 114.785156 270.296875 114.996094 270.085938 C 115.050781 270.03125 115.15625 269.976562 115.207031 269.925781 C 116.953125 269.238281 118.484375 268.761719 119.804688 268.550781 C 120.808594 268.394531 121.707031 268.394531 122.5 268.5 C 122.339844 267.707031 122.339844 266.753906 122.445312 265.75 C 122.605469 264.378906 123.027344 262.792969 123.714844 260.996094 C 123.820312 260.730469 124.136719 260.574219 124.402344 260.679688 C 124.5625 260.785156 124.613281 260.835938 124.667969 260.890625 Z M 126.464844 265.328125 C 125.988281 264.378906 125.300781 263.320312 124.402344 262.210938 C 123.925781 263.585938 123.609375 264.800781 123.503906 265.855469 C 123.34375 267.125 123.449219 268.183594 123.769531 269.027344 C 123.820312 269.132812 123.820312 269.238281 123.769531 269.398438 C 123.664062 269.660156 123.398438 269.820312 123.132812 269.765625 C 122.289062 269.503906 121.179688 269.449219 119.964844 269.660156 C 118.90625 269.820312 117.746094 270.136719 116.421875 270.613281 C 117.585938 271.511719 118.640625 272.144531 119.648438 272.621094 C 120.808594 273.148438 121.8125 273.414062 122.765625 273.359375 C 122.871094 273.359375 122.976562 273.359375 123.082031 273.464844 C 123.292969 273.625 123.34375 273.941406 123.1875 274.207031 C 122.660156 274.945312 122.289062 275.949219 122.128906 277.164062 C 121.972656 278.222656 121.917969 279.488281 121.972656 280.863281 C 123.1875 280.019531 124.136719 279.226562 124.878906 278.433594 C 125.722656 277.535156 126.25 276.636719 126.515625 275.789062 C 126.515625 275.683594 126.621094 275.578125 126.726562 275.472656 C 126.9375 275.316406 127.253906 275.316406 127.46875 275.527344 C 127.996094 276.265625 128.839844 276.902344 129.949219 277.480469 C 130.902344 277.957031 132.0625 278.378906 133.386719 278.75 C 132.960938 277.375 132.488281 276.214844 131.957031 275.261719 C 131.324219 274.152344 130.636719 273.359375 129.898438 272.832031 C 129.792969 272.777344 129.738281 272.671875 129.6875 272.566406 C 129.582031 272.304688 129.738281 271.988281 130.054688 271.878906 C 130.902344 271.5625 131.800781 270.984375 132.699219 270.136719 C 133.4375 269.398438 134.230469 268.445312 135.023438 267.230469 C 133.542969 267.179688 132.277344 267.285156 131.21875 267.496094 C 130.003906 267.757812 129 268.128906 128.3125 268.710938 C 128.207031 268.761719 128.101562 268.816406 127.996094 268.816406 C 127.730469 268.816406 127.46875 268.605469 127.46875 268.339844 C 127.308594 267.496094 127.042969 266.492188 126.464844 265.328125 Z M 103.898438 257.667969 C 103.6875 256.609375 103.636719 255.339844 103.6875 253.914062 C 103.6875 253.808594 103.6875 253.703125 103.792969 253.597656 C 103.953125 253.332031 104.269531 253.28125 104.480469 253.386719 C 105.75 254.179688 106.804688 254.917969 107.597656 255.710938 C 108.128906 256.238281 108.550781 256.820312 108.867188 257.347656 C 109.289062 256.925781 109.871094 256.503906 110.503906 256.132812 C 111.457031 255.605469 112.617188 255.128906 114.046875 254.761719 C 114.097656 254.761719 114.203125 254.761719 114.257812 254.761719 C 114.519531 254.8125 114.679688 255.078125 114.625 255.339844 C 114.308594 256.820312 113.886719 258.035156 113.359375 259.039062 C 112.988281 259.726562 112.617188 260.253906 112.195312 260.730469 C 112.722656 260.996094 113.304688 261.417969 113.832031 261.894531 C 114.625 262.632812 115.417969 263.585938 116.265625 264.851562 C 116.316406 264.90625 116.316406 265.011719 116.371094 265.117188 C 116.371094 265.382812 116.160156 265.644531 115.894531 265.699219 C 114.414062 265.804688 113.09375 265.804688 112.039062 265.644531 C 111.296875 265.539062 110.609375 265.328125 110.082031 265.0625 C 109.976562 265.644531 109.765625 266.28125 109.449219 266.964844 C 108.972656 267.917969 108.339844 269.027344 107.386719 270.136719 C 107.335938 270.191406 107.28125 270.296875 107.175781 270.296875 C 106.910156 270.402344 106.59375 270.296875 106.488281 270.03125 C 105.90625 268.65625 105.539062 267.390625 105.328125 266.332031 C 105.222656 265.59375 105.167969 264.851562 105.273438 264.273438 C 104.640625 264.378906 104.003906 264.378906 103.214844 264.273438 C 102.15625 264.164062 100.886719 263.796875 99.515625 263.320312 C 99.460938 263.269531 99.355469 263.269531 99.300781 263.160156 C 99.144531 262.949219 99.144531 262.632812 99.355469 262.421875 C 100.519531 261.417969 101.574219 260.679688 102.527344 260.203125 C 103.214844 259.886719 103.847656 259.621094 104.429688 259.515625 C 104.269531 259.039062 104.058594 258.40625 103.898438 257.667969 Z M 104.902344 257.457031 C 105.113281 258.40625 105.378906 259.144531 105.800781 259.726562 C 105.960938 259.9375 105.90625 260.253906 105.695312 260.46875 C 105.589844 260.519531 105.484375 260.574219 105.378906 260.574219 C 104.691406 260.574219 103.898438 260.785156 103.054688 261.207031 C 102.367188 261.578125 101.574219 262.050781 100.78125 262.6875 C 101.734375 263.003906 102.632812 263.214844 103.371094 263.320312 C 104.324219 263.425781 105.113281 263.375 105.800781 263.160156 C 106.066406 263.054688 106.382812 263.214844 106.4375 263.480469 C 106.488281 263.585938 106.488281 263.691406 106.4375 263.796875 C 106.226562 264.429688 106.171875 265.277344 106.332031 266.226562 C 106.4375 267.019531 106.699219 267.917969 107.070312 268.867188 C 107.652344 268.078125 108.128906 267.285156 108.445312 266.597656 C 108.867188 265.75 109.027344 264.957031 109.027344 264.273438 C 109.027344 264.007812 109.238281 263.742188 109.554688 263.742188 C 109.660156 263.742188 109.816406 263.796875 109.871094 263.847656 C 110.453125 264.273438 111.191406 264.535156 112.144531 264.695312 C 112.9375 264.800781 113.832031 264.851562 114.839844 264.800781 C 114.257812 264.007812 113.675781 263.320312 113.09375 262.792969 C 112.40625 262.15625 111.71875 261.683594 111.035156 261.472656 C 110.769531 261.367188 110.609375 261.101562 110.714844 260.835938 C 110.769531 260.730469 110.820312 260.625 110.925781 260.574219 C 111.507812 260.148438 111.984375 259.570312 112.460938 258.671875 C 112.828125 257.984375 113.148438 257.085938 113.410156 256.082031 C 112.460938 256.398438 111.613281 256.714844 110.925781 257.136719 C 110.082031 257.613281 109.449219 258.140625 109.078125 258.671875 C 108.917969 258.882812 108.601562 258.988281 108.339844 258.828125 C 108.234375 258.777344 108.179688 258.671875 108.128906 258.566406 C 107.914062 257.878906 107.492188 257.242188 106.804688 256.503906 C 106.226562 255.921875 105.539062 255.394531 104.691406 254.8125 Z M 104.902344 257.457031 " fill-opacity="1" fill-rule="nonzero"/><path fill="#ffde59" d="M 239.066406 146.011719 C 238.855469 146.226562 238.539062 146.226562 238.378906 146.011719 C 238.222656 145.800781 238.222656 145.484375 238.433594 145.273438 L 242.027344 141.785156 L 237.957031 139.25 C 237.746094 139.089844 237.695312 138.773438 237.851562 138.5625 C 238.011719 138.296875 238.328125 138.246094 238.539062 138.402344 L 242.820312 141.046875 L 246.359375 137.613281 C 246.570312 137.398438 246.886719 137.398438 247.046875 137.613281 C 247.203125 137.824219 247.203125 138.140625 246.992188 138.351562 L 243.613281 141.628906 L 246.941406 143.6875 C 247.152344 143.847656 247.203125 144.164062 247.046875 144.375 C 246.886719 144.640625 246.570312 144.691406 246.359375 144.535156 L 242.820312 142.3125 Z M 262.160156 127.675781 C 261.949219 127.519531 261.949219 127.203125 262.160156 126.9375 C 262.371094 126.726562 262.6875 126.671875 262.847656 126.832031 L 265.011719 128.734375 L 267.867188 126.09375 C 268.078125 125.878906 268.394531 125.878906 268.550781 126.09375 C 268.710938 126.304688 268.710938 126.621094 268.5 126.832031 L 265.753906 129.367188 L 268.128906 131.429688 C 268.339844 131.585938 268.339844 131.90625 268.128906 132.167969 C 267.917969 132.378906 267.601562 132.433594 267.441406 132.273438 L 264.960938 130.109375 L 262.210938 132.589844 C 262 132.804688 261.683594 132.804688 261.523438 132.589844 C 261.367188 132.378906 261.367188 132.0625 261.578125 131.851562 L 264.21875 129.421875 Z M 263.164062 139.25 C 262.953125 139.089844 262.953125 138.773438 263.164062 138.511719 C 263.375 138.296875 263.691406 138.246094 263.851562 138.457031 L 266.652344 140.992188 L 269.132812 137.980469 C 269.34375 137.769531 269.664062 137.71875 269.820312 137.875 C 270.03125 138.035156 270.03125 138.351562 269.875 138.617188 L 267.335938 141.628906 L 270.03125 144.058594 C 270.242188 144.214844 270.242188 144.535156 270.03125 144.796875 C 269.820312 145.007812 269.503906 145.0625 269.34375 144.851562 L 266.652344 142.421875 L 264.800781 144.640625 C 264.589844 144.851562 264.273438 144.902344 264.113281 144.746094 C 263.902344 144.585938 263.902344 144.269531 264.0625 144.003906 L 265.910156 141.785156 Z M 249.636719 126.9375 C 249.425781 126.726562 249.425781 126.410156 249.636719 126.199219 C 249.847656 125.988281 250.164062 125.988281 250.324219 126.144531 L 252.648438 128.363281 L 255.078125 125.828125 C 255.289062 125.617188 255.605469 125.617188 255.765625 125.773438 C 255.976562 125.988281 255.921875 126.304688 255.765625 126.515625 L 253.335938 129.050781 L 255.921875 131.535156 C 256.136719 131.746094 256.136719 132.0625 255.921875 132.273438 C 255.710938 132.484375 255.394531 132.484375 255.238281 132.328125 L 252.648438 129.84375 L 250.375 132.167969 C 250.164062 132.378906 249.847656 132.378906 249.6875 132.222656 C 249.476562 132.011719 249.53125 131.691406 249.6875 131.480469 L 251.960938 129.15625 Z M 250.691406 139.726562 C 250.480469 139.566406 250.480469 139.25 250.640625 139.039062 C 250.796875 138.828125 251.113281 138.773438 251.328125 138.933594 L 254.179688 141.203125 L 256.398438 138.511719 C 256.558594 138.296875 256.875 138.246094 257.085938 138.402344 C 257.296875 138.5625 257.296875 138.878906 257.140625 139.144531 L 254.917969 141.839844 L 258.039062 144.324219 C 258.25 144.480469 258.25 144.796875 258.089844 145.007812 C 257.929688 145.21875 257.613281 145.273438 257.402344 145.113281 L 254.234375 142.632812 L 252.382812 144.902344 C 252.226562 145.113281 251.90625 145.167969 251.695312 145.007812 C 251.484375 144.851562 251.484375 144.535156 251.644531 144.269531 L 253.492188 141.996094 Z M 240.070312 125.300781 C 239.914062 125.089844 239.964844 124.769531 240.230469 124.558594 C 240.441406 124.402344 240.757812 124.402344 240.917969 124.664062 L 242.976562 127.625 L 245.355469 125.667969 C 245.566406 125.457031 245.882812 125.511719 246.042969 125.722656 C 246.199219 125.933594 246.148438 126.25 245.9375 126.460938 L 243.507812 128.46875 L 245.460938 131.269531 C 245.621094 131.480469 245.566406 131.800781 245.300781 132.011719 C 245.089844 132.167969 244.773438 132.167969 244.617188 131.90625 L 242.660156 129.105469 L 238.960938 132.167969 C 238.75 132.378906 238.433594 132.328125 238.273438 132.117188 C 238.117188 131.90625 238.167969 131.585938 238.378906 131.375 L 242.132812 128.257812 Z M 240.070312 125.300781 " fill-opacity="1" fill-rule="nonzero"/></svg>