<svg xmlns="http://www.w3.org/2000/svg" xmlns:xlink="http://www.w3.org/1999/xlink" width="500" zoomAndPan="magnify" viewBox="0 0 375 374.999991" height="500" preserveAspectRatio="xMidYMid meet" version="1.0"><defs><clipPath id="da88d54bc4"><path d="M 74 108 L 329 108 L 329 284.96875 L 74 284.96875 Z M 74 108 " clip-rule="nonzero"/></clipPath><clipPath id="1fb2d536bc"><path d="M 53 101 L 300 101 L 300 284.96875 L 53 284.96875 Z M 53 101 " clip-rule="nonzero"/></clipPath><clipPath id="f7892f1344"><path d="M 32.464844 94 L 342 94 L 342 284.96875 L 32.464844 284.96875 Z M 32.464844 94 " clip-rule="nonzero"/></clipPath><clipPath id="2d985abd11"><path d="M 187 89.96875 L 190 89.96875 L 190 98 L 187 98 Z M 187 89.96875 " clip-rule="nonzero"/></clipPath></defs><g clip-path="url(#da88d54bc4)"><path fill="#f8eaff" d="M 127.828125 264.949219 L 134.667969 283.746094 L 122.894531 284.128906 Z M 216.117188 274.066406 C 216.882812 277.480469 214.984375 281.09375 210.042969 281.277344 C 205.105469 281.46875 171.882812 279.949219 171.882812 279.949219 C 170.554688 280.710938 170.175781 282.992188 170.175781 282.992188 L 158.59375 283.5625 L 134.671875 283.753906 L 126.890625 262.300781 L 127.269531 266.859375 L 122.902344 284.140625 L 105.621094 283.953125 C 105.621094 283.953125 106.226562 283.542969 107.179688 282.855469 C 106.007812 283.101562 104.675781 283.183594 103.152344 283.003906 C 96.695312 282.242188 78.851562 266.488281 74.863281 258.703125 C 74.863281 258.703125 75.242188 250.347656 79.984375 246.933594 C 84.734375 243.519531 91.945312 244.652344 91.945312 244.652344 L 105.050781 256.804688 L 125.554688 228.132812 C 125.554688 228.132812 121.949219 227 122.515625 220.921875 C 123.078125 214.847656 123.46875 212.757812 123.46875 212.757812 C 123.46875 212.757812 115.019531 211.621094 112.171875 211.242188 C 110.691406 211.042969 108.988281 210.691406 107.75 209.875 C 108.5 210.878906 109.75 211.539062 111.886719 211.875 C 111.886719 211.875 116.066406 220.863281 107.457031 223.011719 C 98.851562 225.160156 90.496094 218.964844 85.9375 212.125 C 85.9375 212.125 88.136719 211.960938 90.253906 209.722656 C 88.777344 210.664062 86.703125 211.234375 83.789062 211.113281 L 86.570312 195.917969 L 93.660156 200.476562 C 93.660156 200.476562 93.761719 201.035156 93.785156 201.898438 C 94.585938 198.308594 94.796875 194.914062 94.796875 194.914062 C 94.796875 194.914062 87.585938 191.496094 88.59375 188.585938 C 89.605469 185.671875 91.253906 184.660156 93.84375 185.230469 C 96.4375 185.804688 94.796875 182.378906 94.796875 182.378906 L 91.632812 175.800781 C 91.632812 175.800781 90.117188 172.386719 94.164062 171.371094 C 98.210938 170.359375 100.492188 169.976562 103.28125 168.460938 C 106.0625 166.941406 108.855469 162.765625 111.125 165.546875 C 111.398438 165.882812 111.71875 166.324219 112.078125 166.863281 C 111.617188 166.003906 111.445312 165.414062 111.03125 164.257812 C 110.171875 161.882812 108.75 158.75 102.867188 159.222656 C 96.980469 159.699219 90.621094 162.636719 90.621094 162.636719 C 90.621094 162.636719 92.328125 154.28125 97.832031 151.621094 C 103.335938 148.960938 109.601562 149.59375 109.601562 149.59375 C 123.269531 151.621094 119.726562 131.117188 119.726562 131.117188 C 117.957031 129.347656 114.664062 123.773438 116.941406 121.746094 C 119.222656 119.71875 123.019531 122.25 123.019531 122.25 C 129.597656 120.734375 142.761719 108.832031 142.761719 108.832031 C 142.761719 108.832031 146.308594 114.910156 147.070312 125.035156 C 147.832031 135.15625 132.890625 137.6875 132.890625 137.6875 C 132.890625 137.6875 130.613281 143.511719 134.15625 146.804688 C 137.699219 150.097656 145.546875 146.042969 145.546875 146.042969 C 145.546875 146.042969 155.738281 143.824219 162.757812 152.558594 C 169.785156 161.296875 173.582031 169.652344 173.582031 169.652344 C 173.582031 169.652344 169.828125 170.488281 166.621094 174.210938 C 170.820312 170.515625 173.582031 169.652344 173.582031 169.652344 L 176.050781 173.257812 L 175.671875 148.574219 C 175.671875 148.574219 175.671875 141.925781 178.140625 141.925781 C 180.609375 141.925781 179.46875 147.8125 180.800781 149.710938 C 182.136719 151.609375 182.128906 151.609375 182.128906 151.609375 C 182.128906 151.609375 192.191406 143.632812 195.230469 142.308594 C 198.273438 140.980469 200.171875 140.027344 201.117188 141.546875 C 202.0625 143.0625 195.421875 148.003906 195.421875 148.003906 C 195.421875 148.003906 207.003906 147.238281 207.382812 149.710938 C 207.765625 152.179688 206.429688 152.179688 206.8125 153.886719 C 207.191406 155.59375 205.675781 156.929688 204.722656 158.066406 C 203.769531 159.199219 203.394531 160.34375 199.410156 161.105469 C 195.421875 161.867188 189.539062 163.386719 189.15625 167.371094 C 188.773438 171.359375 192.007812 194.90625 191.433594 199.078125 C 190.863281 203.246094 189.726562 208.003906 185.167969 208.949219 C 180.609375 209.902344 175.679688 210.464844 162.195312 187.679688 L 158.96875 183.882812 C 158.96875 183.882812 151.941406 194.136719 153.273438 201.921875 C 154.601562 209.703125 160.867188 229.453125 160.867188 229.453125 L 171.308594 262.875 C 171.308594 262.875 169.792969 266.859375 171.121094 268.378906 C 172.113281 269.515625 173.214844 270.859375 173.863281 272.5 C 173.472656 270.941406 172.828125 269.703125 172.828125 269.703125 C 172.828125 269.703125 203.585938 268.753906 209.472656 268.941406 C 215.355469 269.125 215.355469 270.644531 216.117188 274.066406 Z M 148.703125 201.609375 C 148.65625 201.320312 148.546875 201.089844 148.335938 200.96875 C 148.492188 201.152344 148.613281 201.363281 148.703125 201.609375 Z M 145.109375 210.460938 C 145.109375 210.460938 145.097656 210.539062 145.082031 210.675781 C 145.273438 210.300781 145.558594 209.886719 145.851562 209.355469 C 145.613281 209.710938 145.367188 210.078125 145.109375 210.460938 Z M 147.421875 215.195312 C 148.246094 216.125 148.867188 216.902344 149.660156 218.234375 C 149.6875 218.277344 149.710938 218.316406 149.738281 218.359375 C 149.492188 217.515625 149.273438 216.8125 148.238281 215.957031 C 147.898438 215.683594 147.648438 215.4375 147.421875 215.195312 Z M 145.402344 212.5625 C 145.578125 212.976562 145.84375 213.425781 146.246094 213.882812 C 146.578125 214.253906 146.871094 214.582031 147.144531 214.886719 C 146.523438 214.125 146.253906 213.480469 145.402344 212.5625 Z M 138.460938 175.140625 C 144.757812 174.058594 147.457031 170.050781 148.339844 165.34375 C 147.335938 169.753906 144.558594 173.597656 138.460938 175.140625 Z M 113.433594 168.976562 C 115.324219 172.105469 117.625 176.425781 119.078125 179.761719 C 118.175781 176.664062 116.78125 173.664062 115.113281 171.34375 C 114.414062 170.378906 113.867188 169.609375 113.433594 168.976562 Z M 120.046875 189.097656 C 120.113281 188.597656 120.15625 188.082031 120.167969 187.550781 C 119.644531 189.59375 118.542969 191.769531 116.808594 193.457031 C 118.453125 192.367188 119.785156 190.933594 120.046875 189.097656 Z M 129.917969 217.480469 C 129.917969 217.480469 130.296875 210.546875 128.964844 208.648438 C 127.636719 206.75 125.550781 204.28125 124.214844 206.085938 C 125.925781 206.085938 128.011719 207.035156 128.964844 211.023438 C 129.917969 215.015625 129.726562 218.050781 129.917969 217.480469 Z M 143.96875 203.058594 C 142 204.574219 139.910156 206.539062 138.75 207.796875 C 137.285156 209.382812 134.0625 212.929688 131.9375 215.261719 C 135.21875 211.839844 141.558594 205.464844 143.96875 203.058594 Z M 142.257812 241.972656 C 142.257812 241.972656 152.132812 227.542969 152.703125 223.367188 C 152.703125 224.507812 142.257812 241.972656 142.257812 241.972656 Z M 152.683594 223.140625 C 152.613281 222.570312 152.410156 222.203125 152.136719 221.902344 C 152.410156 222.367188 152.613281 222.785156 152.683594 223.140625 Z M 304.21875 230.582031 C 308.96875 235.140625 311.429688 241.027344 311.429688 241.027344 C 307.632812 238.9375 299.660156 243.878906 299.660156 243.878906 C 299.277344 241.21875 293.964844 236.476562 293.964844 236.476562 C 293.964844 236.476562 250.863281 235.714844 248.203125 235.714844 C 245.542969 235.714844 244.980469 239.511719 244.980469 239.511719 C 244.980469 239.511719 246.734375 239.828125 247.753906 241.355469 L 247.441406 240.367188 L 276.398438 240.082031 C 276.398438 240.082031 281.996094 240.273438 282.472656 243.878906 C 282.949219 247.484375 280.671875 249.191406 275.636719 249.476562 C 270.601562 249.761719 247.347656 249.574219 247.347656 249.574219 L 247.558594 248.484375 L 244.972656 250.144531 C 244.59375 251.28125 247.824219 253.941406 247.824219 253.941406 L 243.457031 262.296875 C 243.457031 262.296875 242.320312 259.253906 240.414062 255.265625 C 238.515625 251.28125 239.085938 239.128906 239.085938 239.128906 L 233.964844 239.890625 C 233.964844 239.890625 210.042969 245.203125 203.015625 243.308594 C 195.988281 241.410156 191.625 237.421875 192.382812 229.449219 C 193.144531 221.472656 200.734375 206.28125 200.734375 206.28125 C 200.734375 206.28125 203.015625 203.058594 201.496094 199.445312 C 199.980469 195.839844 196.941406 193.367188 198.648438 190.707031 C 200.355469 188.046875 199.027344 187.292969 201.496094 185.394531 C 203.96875 183.496094 204.539062 183.117188 204.722656 181.597656 C 204.914062 180.082031 204.152344 175.902344 205.859375 173.816406 C 207.566406 171.726562 210.609375 170.773438 210.417969 173.625 C 210.226562 176.476562 207.949219 179.890625 209.65625 181.789062 C 211.363281 183.6875 215.351562 186.910156 216.492188 186.539062 C 217.628906 186.15625 217.253906 180.84375 217.628906 179.324219 C 218.003906 177.808594 220.097656 177.238281 221.617188 181.222656 C 223.132812 185.210938 222.378906 188.4375 220.480469 195.65625 C 218.582031 202.867188 216.492188 207.996094 216.492188 214.261719 C 216.492188 220.527344 216.492188 220.527344 216.492188 220.527344 L 229.214844 217.867188 C 229.214844 217.867188 227.957031 230.957031 232.480469 238.019531 C 229.507812 232.320312 229.214844 217.867188 229.214844 217.867188 C 239.46875 211.984375 248.960938 215.96875 248.960938 215.96875 C 248.570312 219.5625 247.59375 223.324219 250.441406 226.449219 C 249.273438 224.359375 248.9375 221.964844 248.769531 220.335938 C 248.386719 216.730469 250.285156 215.96875 250.285156 215.96875 C 252.566406 217.675781 254.65625 217.105469 256.933594 215.015625 C 259.210938 212.929688 254.273438 203.628906 254.273438 203.628906 C 248.578125 201.921875 246.300781 199.261719 244.972656 196.035156 C 243.644531 192.808594 245.542969 187.488281 245.542969 187.488281 L 244.78125 184.265625 L 251.429688 181.605469 C 253.136719 177.617188 260.355469 172.304688 260.355469 172.304688 L 270.988281 189.015625 C 270.988281 189.015625 278.390625 190.148438 278.019531 194.136719 C 277.636719 198.125 270.804688 197.550781 270.804688 197.550781 L 267.765625 198.316406 C 267.765625 198.316406 267.003906 200.210938 266.8125 205.71875 C 266.621094 211.222656 269.089844 216.351562 272.886719 217.296875 C 276.683594 218.25 280.101562 218.8125 280.101562 218.8125 C 280.101562 218.8125 284.277344 218.242188 290.734375 220.902344 C 297.191406 223.5625 299.46875 226.027344 304.21875 230.582031 Z M 248.332031 243.199219 C 248.359375 243.625 248.355469 244.082031 248.320312 244.539062 L 248.484375 243.679688 Z M 272.382812 226.433594 C 268.847656 228.71875 264.480469 230.488281 259.792969 230.769531 C 259.695312 230.773438 259.613281 230.773438 259.519531 230.773438 C 264.1875 231.421875 268.746094 229.160156 272.382812 226.433594 Z M 328.332031 266.785156 C 326.683594 261.976562 311.429688 241.027344 311.429688 241.027344 C 311.429688 241.027344 303.136719 241.21875 300.484375 244.382812 C 297.824219 247.546875 298.714844 249.574219 296.558594 251.089844 C 294.402344 252.605469 298.707031 253.238281 299.089844 255.015625 C 299.46875 256.785156 297.695312 256.410156 296.558594 257.546875 L 276.683594 256.785156 C 277.542969 259.445312 279.910156 259.730469 283.808594 260.675781 C 284.132812 260.757812 284.496094 260.820312 284.875 260.867188 C 282.863281 260.824219 281.023438 260.640625 279.855469 260.199219 C 275.808594 258.683594 274.542969 256.152344 272.644531 255.261719 C 270.746094 254.375 264.796875 251.210938 266.1875 255.007812 C 266.1875 255.007812 267.117188 256.234375 268.023438 257.585938 C 267.417969 257.242188 266.722656 257.015625 265.96875 257.0625 C 263.023438 257.253906 260.933594 262.097656 260.933594 262.097656 L 266.820312 263.113281 L 269.867188 261.246094 C 270.058594 262.417969 269.457031 263.214844 266.820312 263.113281 C 263.527344 262.984375 254.917969 261.085938 251.503906 260.832031 C 248.089844 260.582031 246.566406 260.832031 248.464844 263.363281 C 250.359375 265.894531 249.097656 266.277344 252.136719 268.804688 C 252.988281 269.515625 254.007812 270.1875 255.199219 270.820312 C 254.199219 270.464844 253.230469 270.203125 252.015625 270.070312 C 248.339844 269.691406 243.789062 264.125 243.789062 264.125 C 243.789062 264.125 244.171875 267.921875 243.660156 273.617188 C 243.148438 279.3125 239.613281 283.742188 239.613281 283.742188 C 239.613281 283.742188 306.191406 283.992188 304.164062 283.609375 C 302.136719 283.230469 298.722656 278.296875 298.339844 278.039062 C 298.046875 277.839844 295.449219 277.277344 291.054688 276.398438 C 291.625 276.480469 292.191406 276.554688 292.769531 276.652344 C 302.007812 278.167969 312.261719 281.460938 319.851562 279.945312 C 327.445312 278.425781 329.976562 271.597656 328.332031 266.785156 Z M 328.332031 266.785156 " fill-opacity="1" fill-rule="evenodd"/></g><g clip-path="url(#1fb2d536bc)"><path fill="#ffa8dc" d="M 180.488281 120.714844 C 179.09375 117.800781 175.808594 114.257812 176.691406 110.589844 C 177.578125 106.914062 181.25 100.839844 188.339844 101.097656 C 195.429688 101.351562 199.226562 108.308594 198.972656 112.746094 C 198.722656 117.175781 195.300781 120.589844 194.796875 122.746094 C 194.292969 124.898438 194.164062 125.53125 194.164062 125.53125 C 194.164062 125.53125 194.414062 127.046875 194.542969 129.203125 C 194.675781 131.359375 191.128906 131.355469 191.128906 131.355469 C 191.128906 131.355469 190.625 134.265625 188.597656 134.515625 C 186.570312 134.769531 185.816406 131.855469 185.816406 131.855469 C 185.816406 131.855469 184.800781 131.605469 183.15625 131.09375 C 181.507812 130.589844 183.15625 129.449219 182.269531 128.433594 C 181.386719 127.421875 182.269531 125.652344 182.269531 125.652344 C 182.269531 125.652344 181.875 123.625 180.488281 120.714844 Z M 123.460938 212.738281 L 111.882812 211.855469 C 113.015625 217.425781 114.351562 221.664062 105.613281 223.753906 C 96.878906 225.84375 85.933594 212.105469 85.933594 212.105469 C 85.933594 212.105469 76.183594 212.167969 67.074219 214.445312 C 57.957031 216.726562 57.390625 224.507812 57.390625 224.507812 C 57.085938 232.332031 59.875 238.421875 62.964844 243.675781 C 62.441406 242.960938 62.140625 242.542969 62.140625 242.542969 L 53.59375 283.554688 L 92.898438 284.128906 L 101.0625 282.992188 C 96.316406 281.664062 86.632812 272.546875 82.265625 268.371094 C 80.359375 266.546875 76.269531 261.382812 72.277344 256.152344 C 73.789062 257.722656 74.855469 258.691406 74.855469 258.691406 C 77.898438 241.410156 91.757812 243.3125 91.757812 243.3125 L 105.042969 256.792969 L 125.550781 228.121094 C 125.550781 228.121094 123.84375 223.945312 122.507812 220.910156 C 121.183594 217.859375 123.460938 212.738281 123.460938 212.738281 Z M 229.789062 264.757812 C 226.746094 264.1875 171.308594 264.757812 171.308594 264.757812 C 171.308594 264.757812 168.269531 269.316406 174.160156 269.316406 C 180.046875 269.316406 209.667969 267.609375 212.324219 269.507812 C 214.976562 271.40625 216.691406 276.71875 215.929688 278.808594 C 215.167969 280.894531 212.886719 281.277344 210.042969 281.277344 C 207.199219 281.277344 170.929688 281.277344 170.929688 281.277344 L 170.167969 282.984375 L 235.292969 283.746094 C 235.292969 283.746094 235.671875 273.113281 235.101562 270.078125 C 234.535156 267.039062 232.828125 265.328125 229.789062 264.757812 Z M 294.910156 252.605469 C 294.910156 252.605469 301.117188 249.3125 299.660156 243.871094 C 298.203125 238.429688 296.304688 236.148438 290.480469 236.027344 C 284.65625 235.898438 248.203125 235.707031 248.203125 235.707031 C 248.203125 235.707031 244.789062 237.796875 244.980469 239.503906 C 245.171875 241.210938 277.699219 239.3125 280.230469 240.578125 C 282.761719 241.84375 283.644531 245.136719 282.628906 246.785156 C 281.617188 248.429688 280.351562 249.3125 276.304688 249.445312 C 272.253906 249.574219 243.777344 249.445312 243.777344 249.445312 C 243.777344 249.445312 246.304688 252.605469 251.878906 252.859375 C 257.445312 253.117188 294.910156 252.605469 294.910156 252.605469 Z M 261.214844 253.632812 C 261.390625 253.464844 261.5 253.363281 261.5 253.363281 L 249.441406 253.839844 C 249.441406 253.839844 244.695312 256.5 244.882812 261.144531 C 245.074219 265.800781 248.585938 269.214844 251.152344 269.40625 C 253.714844 269.597656 251.53125 266.648438 250.101562 264.5625 C 248.679688 262.472656 246.496094 260.667969 249.0625 260.289062 C 251.625 259.90625 257.417969 262.1875 257.417969 262.1875 C 257.417969 262.1875 256.75 258.390625 258.457031 256.492188 C 258.777344 256.136719 259.070312 255.820312 259.355469 255.519531 C 258.503906 257.136719 257.511719 259.492188 257.789062 261.242188 C 258.265625 264.1875 261.683594 262.664062 261.683594 262.664062 C 261.683594 262.664062 262.246094 256.90625 265.953125 257.0625 C 268.234375 257.160156 265.382812 253.554688 265.382812 253.554688 Z M 270.226562 253.179688 L 275.542969 256.878906 C 275.542969 256.878906 299.082031 257.546875 298.898438 256.5 C 298.707031 255.457031 297 253.648438 297 253.648438 Z M 270.226562 253.179688 " fill-opacity="1" fill-rule="evenodd"/></g><path fill="#7c009f" d="M 111.121094 165.519531 C 111.121094 165.519531 106.371094 168.304688 102.191406 169.257812 C 98.015625 170.210938 94.21875 169.257812 92.703125 171.726562 C 91.183594 174.195312 92.890625 179.699219 94.789062 182.359375 C 96.6875 185.019531 96.6875 185.585938 93.839844 185.210938 C 90.988281 184.828125 89.089844 185.59375 88.523438 187.679688 C 87.960938 189.769531 91.375 193.757812 94.789062 194.890625 L 93.65625 200.464844 C 93.65625 200.464844 81 195.152344 80.488281 185.53125 C 80.488281 185.53125 69.855469 186.796875 68.589844 180.46875 C 67.324219 174.140625 68.589844 170.597656 71.632812 168.820312 C 74.671875 167.046875 80.488281 166.039062 84.542969 168.570312 C 84.542969 168.570312 90.871094 161.226562 99.226562 159.960938 C 107.574219 158.691406 109.351562 160.207031 111.121094 165.519531 Z M 143.652344 98.058594 C 137.074219 94.007812 128.84375 94.894531 120.113281 97.171875 C 111.378906 99.453125 108.214844 108.1875 107.457031 113.121094 C 106.703125 118.054688 109.609375 128.816406 109.226562 134.257812 C 108.847656 139.703125 102.015625 150.085938 102.015625 150.085938 C 102.015625 150.085938 113.914062 149.953125 117.332031 147.804688 C 120.746094 145.65625 119.734375 131.09375 119.734375 131.09375 C 117.453125 128.433594 115.554688 123.503906 116.949219 121.726562 C 118.34375 119.957031 123.027344 122.230469 123.027344 122.230469 C 131.761719 119.828125 142.769531 108.8125 142.769531 108.8125 C 142.769531 108.8125 145.933594 114.128906 146.566406 119.828125 C 147.199219 125.53125 147.070312 128.5625 144.285156 132.863281 C 141.503906 137.164062 132.898438 137.675781 132.898438 137.675781 C 132.898438 137.675781 132.011719 136.28125 132.515625 143.367188 C 133.019531 150.457031 141.253906 147.292969 145.550781 146.027344 C 149.859375 144.761719 155.300781 146.28125 155.300781 146.28125 C 155.300781 146.28125 150.238281 136.28125 149.859375 130.714844 C 149.476562 125.148438 154.539062 117.425781 155.300781 112.105469 C 156.058594 106.792969 150.234375 102.105469 143.652344 98.058594 Z M 334.023438 234.632812 C 334.023438 234.632812 342.507812 229.1875 340.605469 223.496094 C 338.699219 217.800781 333.390625 216.535156 327.566406 214.003906 C 321.746094 211.472656 310.859375 207.042969 308.707031 200.839844 C 306.558594 194.632812 305.035156 186.910156 304.027344 181.980469 C 303.019531 177.046875 302 173.753906 296.6875 172.105469 C 291.375 170.460938 284.535156 175.269531 284.535156 175.269531 C 284.535156 175.269531 289.597656 180.808594 289.929688 187.660156 C 288.925781 181.175781 283.652344 172.554688 276.4375 169.066406 C 268.59375 165.269531 258.714844 168.050781 253.402344 170.582031 C 248.089844 173.113281 246.945312 182.734375 246.945312 182.734375 C 246.945312 182.734375 250.871094 181.71875 251.4375 181.597656 C 254.027344 175.394531 260.363281 172.296875 260.363281 172.296875 L 270.996094 189.007812 C 270.996094 189.007812 278.085938 188.816406 278.023438 194.128906 C 277.964844 199.445312 269.097656 197.546875 269.097656 197.546875 L 266.316406 200.457031 L 266.820312 205.710938 C 266.820312 205.710938 273.144531 205.269531 279.855469 203.492188 C 282.582031 202.769531 284.816406 201.375 286.5 199.539062 C 285.734375 200.609375 285.167969 200.960938 285.167969 200.960938 C 285.167969 200.960938 287.316406 217.921875 290.230469 219.949219 C 293.140625 221.976562 299.980469 226.027344 308.328125 236.277344 C 316.683594 246.53125 322.757812 256.914062 322.757812 256.914062 C 322.757812 256.914062 327.066406 259.191406 331.875 255.777344 C 336.683594 252.363281 339.46875 245.652344 338.203125 241.347656 C 336.9375 237.039062 334.023438 234.632812 334.023438 234.632812 Z M 334.023438 234.632812 " fill-opacity="1" fill-rule="evenodd"/><g clip-path="url(#f7892f1344)"><path fill="#7c009f" d="M 335.652344 235.164062 C 336.339844 234.808594 337.148438 234.3125 337.949219 233.605469 C 339.734375 232.039062 341.792969 229.167969 341.460938 224.351562 C 341.03125 218.078125 336.773438 216.433594 329.71875 213.710938 C 326.253906 212.371094 321.933594 210.710938 316.941406 208.050781 C 308.832031 203.738281 307.292969 194.75 305.925781 186.824219 C 304.84375 180.515625 303.90625 175.066406 299.964844 172.683594 C 292.269531 168.03125 285.863281 172.367188 284.242188 173.644531 C 276.636719 165.359375 267.261719 163.691406 255.65625 168.554688 C 246.421875 172.421875 246.320312 180.851562 246.382812 182.378906 C 246.082031 182.476562 245.789062 182.5625 245.539062 182.652344 C 244.917969 182.855469 244.457031 183.285156 244.210938 183.878906 C 243.734375 185.035156 244.230469 186.558594 244.558594 187.328125 C 243.964844 188.90625 242.222656 194.4375 244.722656 198.898438 C 246.300781 201.730469 249.230469 203.53125 253.4375 204.269531 C 255.523438 209.867188 256.339844 215.261719 255.144531 215.753906 C 253.863281 216.277344 253.144531 215.964844 251.695312 215.335938 C 250.238281 214.703125 248.253906 213.839844 244.925781 213.746094 C 239.285156 213.546875 221.984375 217.675781 217.097656 218.875 C 217.277344 214.59375 217.609375 209.617188 218.242188 206.246094 C 218.792969 203.316406 219.800781 200.683594 220.765625 198.136719 C 222.160156 194.46875 223.480469 191.015625 223.480469 186.910156 C 223.480469 181.605469 221.386719 177.847656 219.308594 176.875 C 218.515625 176.503906 217.730469 176.5625 217.167969 177.039062 C 216.296875 177.761719 216.417969 179.257812 216.589844 181.320312 C 216.667969 182.347656 216.847656 184.457031 216.535156 184.960938 C 216.519531 184.960938 216.5 184.953125 216.472656 184.953125 C 213.746094 184.40625 210.085938 181.347656 209.941406 179.488281 C 209.886719 178.808594 210.335938 177.636719 210.722656 176.609375 C 211.382812 174.871094 212.015625 173.230469 211.234375 172.03125 C 210.824219 171.40625 210.132812 171.058594 209.164062 171.003906 C 207.742188 170.921875 206.429688 171.550781 205.382812 172.800781 C 203.640625 174.890625 202.941406 178.394531 203.550781 181.6875 C 201.859375 182.652344 201.144531 184.640625 201.054688 184.910156 C 200.878906 185 200.703125 185.101562 200.539062 185.21875 C 198.789062 186.503906 198.796875 188.988281 198.808594 189.265625 C 198.816406 189.449219 198.871094 189.613281 198.960938 189.761719 C 198.808594 189.835938 198.714844 189.886719 198.695312 189.898438 C 198.613281 189.945312 198.539062 190 198.46875 190.070312 C 196.78125 191.757812 197.226562 194.796875 199.757812 198.871094 C 200.941406 200.785156 201.273438 202.996094 200.675781 204.949219 C 200.523438 205.425781 200.335938 205.875 200.109375 206.273438 C 197.578125 210.757812 190.578125 225.394531 191.605469 233.597656 C 192.621094 241.726562 195.90625 244.421875 205 244.421875 C 205.210938 244.421875 205.429688 244.421875 205.65625 244.414062 C 214.328125 244.300781 233.671875 241.074219 238.164062 240.304688 C 237.339844 245.464844 237.460938 251.59375 240.304688 257.503906 C 246.550781 270.488281 239.269531 282.582031 239.195312 282.699219 C 239.140625 282.792969 239.101562 282.890625 239.082031 282.992188 L 236.449219 282.992188 L 236.449219 271.914062 C 236.449219 267.289062 232.683594 263.527344 228.050781 263.527344 L 172.34375 263.527344 C 170.996094 256.527344 160.636719 224.789062 157.457031 216.96875 C 154.429688 209.527344 152.609375 195.335938 158.007812 187.09375 C 158.4375 186.449219 158.804688 185.777344 159.125 185.101562 C 160.351562 187.253906 162.867188 191.546875 165.875 195.933594 C 171.671875 204.382812 176.445312 209.105469 180.066406 209.96875 C 181.222656 210.25 182.304688 210.382812 183.320312 210.382812 C 185.449219 210.382812 187.246094 209.773438 188.6875 208.554688 C 191.332031 206.316406 192.53125 202.160156 192.15625 196.53125 C 192.007812 194.3125 191.632812 191.429688 191.238281 188.382812 C 190.144531 179.910156 188.640625 168.3125 191.503906 165.179688 C 193.273438 163.25 196.484375 162.554688 199.3125 161.941406 C 202.503906 161.253906 205.789062 160.546875 205.933594 157.847656 C 206.621094 157.539062 207.554688 156.957031 207.996094 155.914062 C 208.375 155.011719 208.308594 154.003906 207.792969 152.914062 C 208.179688 152.199219 208.695312 150.933594 208.320312 149.777344 C 208.136719 149.207031 207.660156 148.445312 206.457031 148.042969 C 204.710938 147.457031 200.457031 147.390625 197.386719 147.425781 C 198.519531 146.574219 199.785156 145.53125 200.777344 144.5 C 202.164062 143.050781 202.566406 141.519531 201.851562 140.390625 C 201.199219 139.363281 199.796875 139.027344 198.265625 139.539062 C 195.898438 140.328125 185.3125 147.132812 181.945312 150.371094 C 181.378906 149.261719 181.378906 147.8125 181.378906 146.398438 C 181.378906 144.605469 181.386719 142.914062 180.214844 141.871094 C 179 140.789062 177.921875 141.015625 177.386719 141.246094 C 175.726562 141.960938 174.78125 144.566406 174.652344 148.792969 C 174.554688 151.804688 174.683594 160.792969 174.847656 169.339844 C 169.058594 157.746094 163.289062 150.410156 157.289062 147.003906 C 157.273438 146.980469 157.269531 146.960938 157.253906 146.949219 C 153.777344 143.402344 151.621094 138.652344 150.851562 132.84375 C 150.21875 128.09375 152.007812 124.386719 154.078125 120.09375 L 154.417969 119.386719 C 155.4375 117.257812 155.949219 115.480469 156.003906 113.800781 C 156.363281 103.933594 146.941406 96.710938 137.890625 94.921875 C 130.890625 93.539062 120.867188 94.054688 113.730469 99.664062 C 104.484375 106.929688 106.207031 118.160156 107.457031 126.359375 C 107.746094 128.222656 108.015625 129.984375 108.117188 131.484375 C 108.664062 139.125 100.859375 149.453125 100.785156 149.554688 C 100.714844 149.648438 100.667969 149.75 100.628906 149.851562 C 95.640625 151.464844 91.183594 154.957031 89.960938 162.910156 C 88.347656 164.019531 86.570312 165.507812 84.964844 167.453125 C 83.304688 166.828125 76.789062 164.664062 72.082031 167.222656 C 69.644531 168.542969 68.113281 170.882812 67.523438 174.167969 C 66.773438 178.304688 67.480469 181.484375 69.609375 183.605469 C 71.949219 185.9375 75.480469 186.429688 78.011719 186.429688 C 78.800781 186.429688 79.488281 186.382812 80.011719 186.328125 C 80.695312 190.824219 83.054688 194.070312 85.605469 196.339844 L 82.824219 210.667969 C 82.75 210.675781 82.679688 210.683594 82.597656 210.683594 C 72.296875 211.464844 55.050781 212.777344 56.261719 228.761719 C 56.554688 232.652344 58.335938 237.246094 60.96875 242.054688 C 60.949219 242.109375 60.929688 242.164062 60.921875 242.21875 L 52.921875 282.976562 L 33.496094 282.976562 C 32.933594 282.976562 32.476562 283.433594 32.476562 284 C 32.476562 284.5625 32.933594 285.019531 33.496094 285.019531 L 329.425781 285.019531 C 329.992188 285.019531 330.445312 284.5625 330.445312 284 C 330.445312 283.433594 329.992188 282.976562 329.425781 282.976562 L 305.597656 282.976562 C 305.53125 282.925781 305.464844 282.871094 305.382812 282.828125 C 303.90625 282.09375 302.339844 280.792969 301.15625 279.699219 C 305.226562 280.523438 310.097656 281.257812 314.609375 281.257812 C 317.8125 281.257812 320.824219 280.890625 323.226562 279.917969 C 325.738281 278.902344 327.480469 277.074219 328.398438 274.472656 C 329.964844 270.050781 328.648438 264.425781 327.214844 261.847656 C 326.847656 261.179688 326.03125 259.851562 324.882812 258.070312 C 325.445312 258.171875 326.015625 258.226562 326.589844 258.226562 C 328.195312 258.226562 329.828125 257.839844 331.386719 257.0625 C 334.976562 255.273438 337.726562 251.65625 338.910156 247.125 C 340.535156 240.953125 337.570312 236.984375 335.652344 235.164062 Z M 256.449219 170.441406 C 268.160156 165.535156 277.039062 167.609375 284.394531 176.964844 C 289.085938 182.933594 290.210938 190.714844 287.175781 196.335938 C 284.085938 202.054688 277.140625 204.796875 267.59375 204.105469 C 267.519531 202.867188 267.492188 201.660156 267.507812 200.582031 L 269.296875 198.503906 C 271.179688 198.941406 275.078125 199.382812 277.433594 197.695312 C 278.574219 196.878906 279.203125 195.65625 279.242188 194.15625 C 279.277344 192.804688 278.835938 191.640625 277.921875 190.703125 C 276.105469 188.835938 272.894531 188.441406 271.582031 188.359375 L 261.234375 171.863281 C 260.933594 171.386719 260.308594 171.242188 259.832031 171.535156 C 259.519531 171.726562 252.4375 176.136719 250.3125 181.230469 C 249.863281 181.351562 249.164062 181.558594 248.402344 181.773438 C 248.414062 179.742188 249.074219 173.527344 256.449219 170.441406 Z M 276.691406 216.699219 C 274.886719 216.570312 273.335938 216.453125 272.113281 216.207031 C 269.59375 215.703125 268.289062 210.957031 267.773438 206.160156 C 268.71875 206.21875 269.628906 206.261719 270.5 206.261719 C 277.34375 206.261719 281.835938 204.402344 284.773438 202.171875 C 285.359375 205.894531 286.808594 214.09375 288.871094 218.71875 C 284.386719 217.261719 280.074219 216.949219 276.691406 216.699219 Z M 255.925781 217.636719 C 257.851562 216.847656 258.234375 214.113281 257.089844 209.273438 C 256.335938 206.078125 255.183594 203.105469 255.136719 202.976562 C 255.007812 202.636719 254.695312 202.390625 254.335938 202.335938 C 250.476562 201.769531 247.84375 200.28125 246.515625 197.90625 C 245.488281 196.078125 245.359375 193.953125 245.542969 192.117188 C 245.640625 192.257812 245.734375 192.402344 245.84375 192.539062 C 246.332031 193.164062 246.960938 193.703125 247.6875 194.070312 C 248.410156 194.429688 249.199219 194.679688 249.988281 194.707031 C 250.382812 194.761719 250.761719 194.695312 251.152344 194.679688 C 251.523438 194.621094 251.890625 194.539062 252.253906 194.445312 C 252.496094 194.375 252.695312 194.164062 252.722656 193.898438 C 252.757812 193.550781 252.503906 193.238281 252.15625 193.207031 L 252.046875 193.191406 C 251.722656 193.15625 251.410156 193.179688 251.097656 193.144531 C 250.789062 193.089844 250.484375 193.097656 250.199219 193.007812 C 249.613281 192.90625 249.082031 192.679688 248.585938 192.414062 C 248.089844 192.144531 247.648438 191.78125 247.246094 191.355469 C 246.859375 190.941406 246.46875 190.414062 246.183594 189.953125 L 246.121094 189.851562 C 246.082031 189.789062 246.035156 189.734375 245.980469 189.679688 C 246.277344 188.496094 246.605469 187.714844 246.613281 187.695312 C 246.726562 187.421875 246.722656 187.101562 246.585938 186.835938 C 246.226562 186.117188 245.9375 185.039062 246.101562 184.652344 C 246.117188 184.617188 246.121094 184.613281 246.191406 184.585938 C 247.886719 184.019531 251.328125 183.0625 251.363281 183.054688 C 251.679688 182.964844 251.941406 182.722656 252.054688 182.40625 C 253.328125 178.742188 258.105469 175.167969 260.0625 173.828125 L 270.144531 189.898438 C 270.328125 190.199219 270.65625 190.375 271.011719 190.375 C 272.058594 190.375 275.085938 190.695312 276.464844 192.125 C 276.992188 192.660156 277.230469 193.308594 277.207031 194.101562 C 277.179688 194.972656 276.882812 195.585938 276.253906 196.035156 C 274.507812 197.28125 270.832031 196.878906 269.246094 196.382812 C 268.859375 196.261719 268.4375 196.382812 268.171875 196.6875 L 265.722656 199.527344 C 265.566406 199.703125 265.480469 199.933594 265.472656 200.164062 C 265.429688 201.871094 265.253906 216.921875 271.710938 218.207031 C 273.058594 218.480469 274.671875 218.597656 276.535156 218.730469 C 277.230469 218.78125 277.941406 218.835938 278.683594 218.902344 C 276.488281 221.902344 269.40625 230.203125 258.683594 229.597656 C 255.136719 229.398438 252.59375 228.238281 251.125 226.132812 C 248.988281 223.078125 249.550781 218.738281 249.945312 216.8125 C 250.273438 216.941406 250.585938 217.078125 250.878906 217.203125 C 252.414062 217.867188 253.851562 218.488281 255.925781 217.636719 Z M 211.132812 189.566406 C 210.109375 187.640625 207.847656 185.90625 204.941406 184.90625 C 204.429688 184.726562 203.953125 184.617188 203.5 184.558594 C 203.804688 184.074219 204.234375 183.578125 204.769531 183.347656 C 205.28125 183.121094 205.851562 183.15625 206.519531 183.449219 C 208.824219 184.476562 210.976562 186.84375 211.21875 188.621094 C 211.261719 188.972656 211.234375 189.285156 211.132812 189.566406 Z M 206.960938 174.09375 C 207.585938 173.34375 208.289062 172.984375 209.0625 173.03125 C 209.425781 173.054688 209.527344 173.132812 209.527344 173.132812 C 209.730469 173.480469 209.136719 175.039062 208.820312 175.875 C 208.328125 177.164062 207.820312 178.496094 207.90625 179.640625 C 207.996094 180.769531 208.667969 181.929688 209.628906 183 C 208.886719 182.421875 208.097656 181.929688 207.34375 181.597656 C 206.738281 181.324219 206.125 181.191406 205.539062 181.175781 C 205.082031 178.515625 205.628906 175.6875 206.960938 174.09375 Z M 201.757812 186.84375 C 202.292969 186.449219 203.144531 186.449219 204.273438 186.835938 C 207.132812 187.816406 209.34375 189.695312 209.648438 191.410156 C 209.714844 191.78125 209.683594 192.144531 209.554688 192.484375 C 208.941406 191.230469 207.832031 190.101562 206.445312 189.464844 C 204.390625 188.515625 202.335938 188.695312 200.851562 189.074219 C 200.878906 188.523438 201.054688 187.359375 201.757812 186.84375 Z M 205.621094 242.359375 C 196.292969 242.492188 194.4375 239.804688 193.625 233.324219 C 192.742188 226.238281 198.804688 212.703125 201.886719 207.261719 C 202.183594 206.730469 202.4375 206.144531 202.628906 205.535156 C 203.402344 203.015625 202.988281 200.191406 201.492188 197.777344 C 199.675781 194.84375 199.0625 192.558594 199.824219 191.59375 C 200.445312 191.292969 203.097656 190.148438 205.601562 191.308594 C 207.265625 192.074219 208.214844 193.804688 208.015625 194.878906 C 207.953125 195.21875 207.785156 195.613281 206.976562 195.683594 C 205.695312 195.785156 205.375 195.320312 204.851562 194.550781 C 204.410156 193.90625 203.8125 193.019531 202.546875 192.851562 C 201.988281 192.777344 201.472656 193.171875 201.394531 193.730469 C 201.320312 194.285156 201.714844 194.804688 202.273438 194.878906 C 202.601562 194.917969 202.769531 195.128906 203.15625 195.703125 C 203.757812 196.585938 204.667969 197.914062 207.132812 197.714844 C 208.683594 197.59375 209.765625 196.667969 210.015625 195.238281 C 210.023438 195.21875 210.023438 195.191406 210.023438 195.171875 C 211.0625 194.273438 211.636719 193.179688 211.703125 192.007812 C 211.746094 191.980469 211.785156 191.96875 211.824219 191.941406 C 212.941406 191.019531 213.425781 189.777344 213.234375 188.339844 C 213.050781 186.992188 212.261719 185.625 211.191406 184.449219 C 212.773438 185.699219 214.621094 186.648438 216.070312 186.933594 C 216.949219 187.109375 217.535156 186.796875 217.859375 186.503906 C 218.984375 185.503906 218.804688 183.378906 218.621094 181.136719 C 218.5625 180.375 218.472656 179.285156 218.527344 178.734375 C 219.433594 179.191406 221.4375 181.84375 221.4375 186.898438 C 221.4375 190.625 220.1875 193.914062 218.859375 197.394531 C 217.859375 200.027344 216.828125 202.742188 216.234375 205.851562 C 214.878906 213.023438 214.859375 226.738281 214.859375 227.316406 C 214.859375 227.882812 215.316406 228.339844 215.878906 228.339844 C 216.445312 228.339844 216.902344 227.882812 216.902344 227.316406 C 216.902344 227.257812 216.902344 224.570312 217.015625 220.984375 C 218.71875 220.570312 223.332031 219.460938 228.417969 218.363281 C 227.828125 221.765625 227.101562 230.1875 231.964844 239.230469 C 224.257812 240.46875 211.894531 242.28125 205.621094 242.359375 Z M 242.140625 256.609375 C 235.882812 243.59375 244.089844 228.816406 244.175781 228.671875 C 244.457031 228.183594 244.285156 227.554688 243.789062 227.285156 C 243.300781 227.003906 242.679688 227.175781 242.402344 227.664062 C 242.210938 228 239.863281 232.222656 238.5625 238.148438 C 238.074219 238.230469 236.449219 238.515625 234.109375 238.890625 C 228.707031 229.359375 230.113281 220.222656 230.597656 217.910156 C 236.292969 216.730469 242.136719 215.699219 244.863281 215.773438 C 246.109375 215.8125 247.121094 215.96875 247.992188 216.179688 C 247.523438 218.289062 246.769531 223.453125 249.441406 227.292969 C 251.285156 229.9375 254.355469 231.394531 258.566406 231.632812 C 258.988281 231.652344 259.410156 231.664062 259.824219 231.664062 C 272.425781 231.664062 279.847656 220.9375 281.011719 219.125 C 286.671875 219.800781 293.277344 221.445312 299.035156 227.203125 C 302.253906 230.421875 306.035156 235.0625 309.730469 239.945312 C 305.722656 239.726562 302.226562 241.542969 300.332031 242.789062 C 299.460938 238.503906 295.660156 235.265625 291.121094 235.265625 L 248.832031 235.265625 C 246.203125 235.265625 244.066406 237.402344 244.066406 240.027344 C 244.066406 240.59375 244.523438 241.046875 245.089844 241.046875 L 246.515625 241.046875 C 246.992188 242.070312 247.652344 243.84375 247.4375 244.992188 C 247.230469 246.089844 246.777344 247.253906 246.429688 248.027344 L 244.824219 248.027344 C 244.257812 248.027344 243.800781 248.484375 243.800781 249.050781 C 243.800781 251.367188 245.382812 253.316406 247.523438 253.894531 C 245.429688 255.382812 243.964844 257.703125 243.625 260.375 C 243.25 259.136719 242.753906 257.878906 242.140625 256.609375 Z M 296.933594 255.898438 L 275.785156 255.898438 C 275.730469 255.898438 275.675781 255.90625 275.621094 255.914062 C 274.710938 255.292969 273.710938 254.710938 272.683594 254.199219 L 295.257812 254.199219 C 296.394531 254.199219 297.375 254.898438 297.777344 255.898438 Z M 278.738281 258.574219 C 278.554688 258.371094 278.359375 258.160156 278.140625 257.949219 L 295.339844 257.949219 C 295.136719 258.464844 294.929688 259.078125 294.78125 259.710938 C 285.570312 260.125 279.625 259.582031 278.738281 258.574219 Z M 262.375 261.851562 C 262.371094 261.777344 262.363281 261.703125 262.363281 261.621094 C 262.363281 259.585938 264.015625 257.933594 266.050781 257.933594 L 266.773438 257.933594 C 267.0625 258.21875 267.371094 258.511719 267.683594 258.804688 C 268.28125 259.363281 269.152344 260.179688 269.425781 260.59375 C 268.914062 261.125 266.445312 262.007812 262.375 261.851562 Z M 265.113281 255.980469 C 262.398438 256.429688 260.320312 258.785156 260.320312 261.621094 C 260.320312 261.640625 260.328125 261.667969 260.328125 261.691406 C 259.730469 261.621094 259.164062 261.535156 258.613281 261.425781 C 258.355469 255.867188 261.820312 254.316406 261.988281 254.246094 C 262.023438 254.234375 262.054688 254.210938 262.089844 254.191406 L 264.75 254.191406 C 264.722656 254.300781 264.710938 254.410156 264.695312 254.503906 C 264.664062 255.003906 264.824219 255.492188 265.113281 255.980469 Z M 248.605469 259.324219 C 247.890625 259.585938 247.410156 260.105469 247.253906 260.769531 C 246.925781 262.125 248.046875 263.71875 248.695312 264.5 C 248.703125 266.113281 249.742188 267.535156 250.90625 268.628906 C 247.84375 267.738281 245.597656 264.914062 245.597656 261.566406 C 245.597656 257.511719 248.898438 254.207031 252.960938 254.207031 L 258.796875 254.207031 C 257.648438 255.511719 256.53125 257.640625 256.558594 260.957031 C 255.503906 260.664062 254.558594 260.34375 253.707031 260.058594 C 251.640625 259.347656 250 258.792969 248.605469 259.324219 Z M 291.128906 252.035156 L 248.832031 252.035156 C 247.542969 252.035156 246.449219 251.21875 246.035156 250.078125 L 246.109375 250.078125 C 246.300781 250.3125 246.585938 250.464844 246.898438 250.464844 L 278.039062 250.464844 C 281.195312 250.464844 283.765625 247.890625 283.765625 244.734375 C 283.765625 241.578125 281.195312 239.007812 278.039062 239.007812 L 246.3125 239.007812 C 246.714844 238.011719 247.695312 237.304688 248.832031 237.304688 L 282.003906 237.304688 C 282.039062 237.328125 282.066406 237.347656 282.101562 237.359375 C 282.304688 237.441406 287.039062 239.539062 284.976562 247.777344 C 284.84375 248.320312 285.175781 248.878906 285.71875 249.015625 C 285.800781 249.035156 285.890625 249.042969 285.972656 249.042969 C 286.425781 249.042969 286.84375 248.730469 286.957031 248.265625 C 288.40625 242.476562 286.84375 239.117188 285.242188 237.304688 L 291.121094 237.304688 C 295.175781 237.304688 298.484375 240.605469 298.484375 244.667969 C 298.484375 248.730469 295.183594 252.035156 291.128906 252.035156 Z M 248.75 241.046875 L 278.039062 241.046875 C 280.074219 241.046875 281.726562 242.699219 281.726562 244.734375 C 281.726562 246.769531 280.074219 248.421875 278.039062 248.421875 L 248.496094 248.421875 C 248.851562 247.574219 249.246094 246.464844 249.449219 245.375 C 249.714844 243.960938 249.21875 242.253906 248.75 241.046875 Z M 234.398438 271.902344 L 234.398438 282.976562 L 171.304688 282.976562 C 171.242188 282.523438 171.269531 282.15625 171.40625 281.945312 C 171.496094 281.800781 171.628906 281.746094 171.679688 281.734375 C 173.542969 281.761719 200.851562 282.121094 206.796875 282.121094 L 207.851562 282.121094 C 213.28125 282.140625 216.886719 282.15625 217.097656 275.523438 C 217.277344 270.003906 213.398438 268.25 211.324219 268.09375 C 211.296875 268.09375 211.269531 268.09375 211.242188 268.09375 L 172.753906 268.09375 C 172.441406 268.09375 171.894531 268.050781 171.738281 267.777344 C 171.488281 267.355469 171.753906 266.351562 172.101562 265.554688 L 216.308594 265.554688 C 216.382812 265.628906 216.460938 265.695312 216.554688 265.75 C 216.832031 265.902344 223.289062 269.589844 220.132812 279.238281 C 219.957031 279.773438 220.25 280.34375 220.785156 280.523438 C 220.894531 280.554688 220.996094 280.570312 221.105469 280.570312 C 221.535156 280.570312 221.9375 280.296875 222.078125 279.871094 C 224.5625 272.28125 221.710938 267.738281 219.535156 265.546875 L 228.050781 265.546875 C 231.554688 265.546875 234.398438 268.398438 234.398438 271.902344 Z M 174.121094 279.726562 C 176.167969 276.710938 175.074219 272.378906 174.269531 270.125 L 211.199219 270.125 C 211.75 270.1875 215.214844 270.746094 215.0625 275.453125 C 214.914062 280.101562 213.429688 280.101562 207.867188 280.078125 L 206.804688 280.078125 C 201.757812 280.078125 181.304688 279.816406 174.121094 279.726562 Z M 174.929688 174.074219 C 175.074219 181.019531 175.207031 186.769531 175.222656 187.320312 C 175.234375 187.878906 175.691406 188.3125 176.242188 188.3125 C 176.25 188.3125 176.257812 188.3125 176.269531 188.3125 C 176.835938 188.300781 177.277344 187.832031 177.261719 187.265625 C 177.257812 186.945312 176.496094 154.921875 176.683594 148.832031 C 176.816406 144.75 177.726562 143.292969 178.1875 143.097656 C 178.398438 143.007812 178.699219 143.234375 178.855469 143.375 C 179.339844 143.804688 179.339844 145.109375 179.332031 146.371094 C 179.332031 148.273438 179.324219 150.4375 180.664062 152.140625 C 181.371094 153.042969 184.769531 157.738281 181.820312 161.519531 C 181.476562 161.964844 181.558594 162.609375 182 162.949219 C 182.441406 163.296875 183.085938 163.214844 183.425781 162.773438 C 186.074219 159.378906 185.035156 155.132812 183.101562 152.0625 C 185.734375 149.289062 196.75 142.164062 198.90625 141.449219 C 199.613281 141.21875 200.042969 141.339844 200.117188 141.457031 C 200.207031 141.601562 200.125 142.199219 199.292969 143.0625 C 197.175781 145.265625 193.515625 147.628906 193.484375 147.648438 C 193.09375 147.898438 192.925781 148.375 193.0625 148.8125 C 193.203125 149.253906 193.597656 149.554688 194.074219 149.527344 C 196.660156 149.417969 203.804688 149.292969 205.796875 149.953125 C 206.28125 150.117188 206.347656 150.316406 206.371094 150.382812 C 206.484375 150.730469 206.292969 151.316406 206.050781 151.792969 C 202.789062 151.664062 193.199219 152.328125 192.027344 152.417969 C 191.460938 152.457031 191.039062 152.949219 191.082031 153.507812 C 191.121094 154.042969 191.566406 154.453125 192.09375 154.453125 C 192.121094 154.453125 192.144531 154.453125 192.171875 154.453125 C 195.308594 154.226562 203.394531 153.722656 205.960938 153.824219 C 206.191406 154.328125 206.238281 154.75 206.105469 155.078125 C 205.878906 155.617188 205.171875 155.933594 204.785156 156.0625 C 200.027344 155.4375 192.460938 156.527344 192.144531 156.574219 C 191.585938 156.65625 191.199219 157.171875 191.277344 157.730469 C 191.355469 158.242188 191.789062 158.601562 192.285156 158.601562 C 192.332031 158.601562 192.386719 158.601562 192.4375 158.589844 C 192.511719 158.574219 199.253906 157.609375 203.761719 157.996094 C 203.355469 158.839844 201.769531 159.277344 198.871094 159.902344 C 195.742188 160.574219 192.199219 161.34375 189.992188 163.753906 C 186.488281 167.574219 187.929688 178.742188 189.210938 188.59375 C 189.597656 191.605469 189.972656 194.457031 190.117188 196.613281 C 190.441406 201.5 189.460938 205.164062 187.367188 206.941406 C 185.769531 208.296875 183.46875 208.628906 180.542969 207.929688 C 175.65625 206.765625 168.203125 196.125 163.445312 188.359375 C 163.464844 188.257812 163.472656 188.15625 163.464844 188.054688 C 163.464844 188.019531 163.117188 184.605469 164.242188 180.828125 C 165.691406 175.945312 168.828125 172.734375 173.554688 171.269531 C 173.949219 172.078125 174.34375 172.910156 174.746094 173.765625 C 174.78125 173.902344 174.847656 173.992188 174.929688 174.074219 Z M 110.140625 131.320312 C 110.023438 129.742188 109.75 127.9375 109.460938 126.035156 C 108.214844 117.902344 106.664062 107.78125 114.976562 101.246094 C 121.570312 96.0625 130.925781 95.609375 137.484375 96.902344 C 145.707031 98.527344 154.273438 104.960938 153.953125 113.699219 C 153.90625 115.085938 153.464844 116.605469 152.566406 118.476562 L 152.226562 119.183594 C 150.109375 123.578125 148.109375 127.726562 148.816406 133.082031 C 149.445312 137.808594 150.933594 141.890625 153.261719 145.273438 C 148.769531 144.015625 144.832031 144.941406 141.539062 145.722656 C 140.285156 146.023438 139.09375 146.300781 138.019531 146.421875 C 136.273438 146.628906 135.039062 146.289062 134.25 145.382812 C 132.808594 143.734375 133.054688 140.429688 133.375 138.675781 C 140.019531 137.660156 144.46875 134.945312 146.601562 130.585938 C 151.0625 121.449219 143.59375 108.582031 143.273438 108.039062 C 143.089844 107.726562 142.761719 107.515625 142.375 107.535156 C 142.007812 107.542969 141.675781 107.746094 141.496094 108.066406 C 138.578125 113.414062 125.617188 120.296875 122.632812 121.835938 C 121.542969 120.910156 119.277344 119.285156 117.378906 119.875 C 116.628906 120.113281 115.65625 120.789062 115.277344 122.664062 C 114.351562 127.285156 117.835938 130.855469 118.976562 131.882812 C 119.488281 137.523438 119.105469 146.457031 115.921875 147.632812 C 114.820312 148.042969 112.929688 148.160156 110.746094 148.292969 C 108.574219 148.429688 106.085938 148.585938 103.585938 149.070312 C 105.886719 145.6875 110.609375 137.851562 110.140625 131.320312 Z M 120.972656 131.292969 C 120.945312 131.019531 120.808594 130.769531 120.589844 130.597656 C 120.550781 130.566406 116.445312 127.265625 117.285156 123.085938 C 117.386719 122.589844 117.589844 121.972656 117.992188 121.84375 C 118.875 121.570312 120.765625 122.855469 121.765625 123.816406 C 122.078125 124.113281 122.542969 124.183594 122.921875 123.992188 C 123.238281 123.835938 126.792969 122.066406 130.902344 119.5625 C 130.746094 119.820312 130.625 120.128906 130.578125 120.476562 C 130.429688 121.449219 130.851562 122.324219 131.503906 122.421875 C 132.164062 122.523438 132.816406 121.808594 132.964844 120.835938 C 133.113281 119.863281 132.699219 118.984375 132.039062 118.890625 C 132.027344 118.890625 132.007812 118.890625 131.992188 118.890625 C 135.878906 116.445312 140.035156 113.433594 142.292969 110.554688 C 144.046875 114.074219 147.941406 123.210938 144.769531 129.707031 C 142.886719 133.566406 138.722656 135.945312 132.402344 136.769531 C 131.984375 136.824219 131.644531 137.125 131.542969 137.53125 C 131.480469 137.78125 130.027344 143.660156 132.71875 146.742188 C 133.972656 148.171875 135.835938 148.757812 138.265625 148.472656 C 139.464844 148.335938 140.703125 148.035156 142.019531 147.730469 C 142.824219 147.539062 143.652344 147.34375 144.511719 147.179688 C 145.375 149.34375 149.878906 161.351562 146.152344 168.636719 C 144.742188 171.386719 142.257812 173.167969 138.777344 173.9375 C 124.570312 177.058594 112.542969 155.554688 109.902344 150.429688 C 110.242188 150.410156 110.574219 150.390625 110.902344 150.371094 C 113.25 150.226562 115.277344 150.097656 116.65625 149.585938 C 122.425781 147.417969 121.132812 132.9375 120.972656 131.292969 Z M 107.667969 150.582031 C 108.453125 152.171875 111.636719 158.410156 116.515625 164.386719 C 122.902344 172.210938 129.558594 176.257812 135.953125 176.257812 C 137.039062 176.257812 138.117188 176.140625 139.183594 175.902344 C 143.292969 175 146.238281 172.863281 147.941406 169.542969 C 151.898438 161.804688 147.816406 150.0625 146.558594 146.839844 C 153.398438 146.078125 161.996094 148.53125 172.617188 169.453125 C 163.710938 172.386719 161.785156 180.460938 161.4375 185.039062 C 160.929688 184.15625 160.480469 183.355469 160.113281 182.679688 C 160.089844 182.644531 160.0625 182.613281 160.042969 182.578125 C 160.894531 179.441406 160.722656 176.082031 159.492188 172.636719 C 158.125 168.800781 155.953125 166.234375 155.859375 166.125 C 155.492188 165.699219 154.851562 165.652344 154.425781 166.019531 C 153.996094 166.386719 153.949219 167.023438 154.308594 167.453125 C 154.636719 167.835938 162.222656 176.925781 156.296875 185.960938 C 150.484375 194.8125 152.363281 209.859375 155.558594 217.71875 C 159.085938 226.398438 169.753906 259.480469 170.414062 264.324219 C 169.976562 265.179688 169.09375 267.296875 169.96875 268.804688 C 170.269531 269.316406 170.875 269.910156 172.050781 270.078125 C 172.765625 271.839844 174.699219 277.523438 171.179688 279.761719 C 170.8125 279.855469 170.1875 280.113281 169.730469 280.765625 C 169.324219 281.351562 169.167969 282.09375 169.242188 282.976562 L 159.851562 282.976562 L 143.074219 241.597656 C 146.816406 236.429688 149.738281 232.183594 150.824219 230.121094 C 154.234375 223.664062 154.527344 222.875 152.042969 220.453125 C 151.90625 220.324219 151.765625 220.179688 151.605469 220.023438 C 150.757812 219.175781 150.632812 218.636719 150.5 218.011719 C 150.253906 216.914062 149.921875 215.996094 148.078125 215.011719 C 147.070312 214.472656 146.917969 214.011719 146.722656 213.378906 C 146.46875 212.574219 146.15625 211.847656 145.230469 211.277344 C 147.367188 208.757812 151.464844 203.246094 149.164062 200.382812 C 148.816406 199.949219 148.308594 199.710938 147.714844 199.710938 C 147.714844 199.710938 147.707031 199.710938 147.707031 199.710938 C 144.203125 199.710938 135.046875 210.171875 130.660156 215.433594 C 130.441406 213.988281 130.140625 212.042969 129.84375 210.144531 C 129.378906 207.226562 128.167969 205.980469 127.238281 205.453125 C 126.269531 204.902344 125.121094 204.847656 124.003906 205.296875 C 122.324219 205.96875 122.441406 207.824219 122.550781 209.621094 C 122.582031 210.179688 122.617188 210.757812 122.617188 211.355469 C 120.921875 211.078125 119.011719 210.96875 116.996094 210.847656 C 113.976562 210.671875 110.847656 210.480469 108.445312 209.71875 C 108.269531 209.664062 108.015625 209.539062 107.800781 209.097656 C 106.738281 206.90625 108.289062 200.757812 109.636719 196.96875 C 115.242188 196.539062 118.855469 194.484375 120.390625 190.871094 C 123.910156 182.589844 114.882812 169.003906 112.785156 166.371094 C 112.460938 162.886719 111.050781 160.4375 108.5625 159.125 C 104.015625 156.722656 97.136719 158.792969 92.292969 161.4375 C 94.445312 152.859375 101.425781 151.160156 107.667969 150.582031 Z M 135.777344 282.976562 L 128 261.746094 C 132.585938 255.769531 137.523438 249.234375 141.675781 243.542969 L 157.664062 282.976562 Z M 108.828125 282.976562 C 111.003906 282.101562 113.179688 280.488281 115.324219 277.875 C 117.601562 275.101562 121.746094 269.847656 126.421875 263.785156 L 121.761719 282.972656 L 108.828125 282.972656 Z M 91.199219 244.980469 L 103.949219 257.832031 C 104.160156 258.050781 104.453125 258.160156 104.757812 258.132812 C 105.058594 258.105469 105.335938 257.949219 105.507812 257.695312 L 126.394531 227.71875 C 126.707031 227.265625 126.605469 226.644531 126.160156 226.3125 C 122.984375 223.972656 122.5625 218.886719 123.992188 215.324219 C 124.828125 213.226562 124.707031 211.160156 124.605469 209.5 C 124.542969 208.527344 124.46875 207.316406 124.78125 207.191406 C 125.324219 206.976562 125.816406 206.988281 126.242188 207.226562 C 127.011719 207.664062 127.582031 208.8125 127.84375 210.464844 C 128.421875 214.132812 129 217.996094 129 218.003906 C 129.058594 218.40625 129.347656 218.730469 129.742188 218.835938 C 130.128906 218.9375 130.542969 218.808594 130.800781 218.492188 C 137.421875 210.355469 145.679688 201.796875 147.65625 201.75 C 148.675781 203.355469 145.394531 208.160156 142.804688 210.96875 C 142.566406 211.226562 142.476562 211.59375 142.570312 211.933594 C 142.667969 212.277344 142.925781 212.539062 143.265625 212.644531 C 144.476562 212.996094 144.578125 213.316406 144.796875 214.003906 C 144.816406 214.070312 144.84375 214.140625 144.863281 214.207031 C 144.449219 214.5 140.121094 217.625 137.835938 220.664062 C 137.496094 221.113281 137.59375 221.753906 138.039062 222.09375 C 138.226562 222.230469 138.441406 222.296875 138.652344 222.296875 C 138.964844 222.296875 139.273438 222.15625 139.46875 221.890625 C 141.402344 219.308594 145.152344 216.519531 145.925781 215.957031 C 146.234375 216.25 146.613281 216.542969 147.128906 216.820312 C 148.292969 217.441406 148.363281 217.757812 148.519531 218.460938 C 148.550781 218.609375 148.585938 218.765625 148.632812 218.9375 C 147.945312 219.277344 146.070312 220.386719 144.097656 223.011719 C 143.757812 223.460938 143.851562 224.101562 144.300781 224.441406 C 144.484375 224.578125 144.703125 224.644531 144.914062 224.644531 C 145.226562 224.644531 145.53125 224.5 145.730469 224.234375 C 147.492188 221.882812 149.125 220.96875 149.550781 220.757812 C 149.730469 220.992188 149.925781 221.222656 150.179688 221.472656 C 150.335938 221.636719 150.492188 221.78125 150.628906 221.917969 C 152.097656 223.351562 152.097656 223.351562 149.027344 229.167969 C 145.382812 236.082031 120.765625 268.039062 113.746094 276.578125 C 107.171875 284.5625 100.582031 282.359375 92.703125 276.597656 C 89.054688 273.929688 82.277344 267.269531 75.691406 259.390625 C 75.699219 259.347656 75.707031 259.308594 75.707031 259.261719 C 75.707031 259.1875 75.953125 251.53125 80.761719 247.421875 C 83.320312 245.230469 86.769531 244.410156 90.996094 244.972656 C 91.070312 244.988281 91.136719 244.988281 91.199219 244.980469 Z M 127.746094 266.988281 L 133.597656 282.976562 L 123.863281 282.976562 Z M 111.515625 219.132812 C 110.644531 220.894531 108.730469 222.078125 105.832031 222.652344 C 97.621094 224.257812 89.777344 215.621094 87.121094 212.316406 C 87.21875 212.304688 87.320312 212.296875 87.410156 212.28125 C 95.144531 211.207031 95.621094 195.523438 95.640625 194.859375 C 95.65625 194.429688 95.390625 194.035156 94.988281 193.886719 C 94.925781 193.859375 88.824219 191.367188 89.4375 187.859375 C 89.625 186.75 90.15625 186.386719 91.523438 186.386719 C 91.980469 186.386719 92.53125 186.429688 93.191406 186.496094 C 94.816406 186.660156 96.5 186.835938 97.390625 185.566406 C 97.65625 185.183594 97.632812 184.679688 97.335938 184.328125 C 95.757812 182.441406 91.816406 176.882812 92.519531 173.792969 C 92.871094 172.230469 93.6875 172.078125 96.210938 171.835938 C 98.238281 171.636719 100.757812 171.394531 103.613281 169.820312 C 105.226562 168.9375 106.40625 168.175781 107.355469 167.5625 C 109.785156 165.996094 109.785156 165.996094 111.058594 167.460938 C 113.390625 170.15625 121.488281 183.144531 118.542969 190.074219 C 117.277344 193.054688 114.023438 194.707031 108.875 194.980469 C 108.472656 195 108.117188 195.261719 107.976562 195.640625 C 107.574219 196.703125 104.117188 206.140625 105.988281 209.996094 C 106.398438 210.832031 107.035156 211.410156 107.855469 211.671875 C 108.875 211.996094 109.988281 212.222656 111.152344 212.390625 C 111.390625 212.929688 112.867188 216.386719 111.515625 219.132812 Z M 71.027344 182.140625 C 69.398438 180.515625 68.890625 177.953125 69.507812 174.515625 C 69.984375 171.867188 71.167969 170.011719 73.03125 168.996094 C 76.542969 167.085938 81.632812 168.46875 83.667969 169.148438 C 81.203125 172.78125 79.429688 177.707031 79.800781 184.273438 C 77.910156 184.460938 73.480469 184.59375 71.027344 182.140625 Z M 81.898438 185.074219 C 80.796875 172.480469 88.136719 166.222656 92.613281 163.609375 C 97.363281 160.839844 103.847656 158.933594 107.621094 160.929688 C 108.933594 161.621094 109.839844 162.792969 110.351562 164.398438 C 109.085938 164.011719 107.941406 164.746094 106.242188 165.835938 C 105.324219 166.425781 104.171875 167.167969 102.628906 168.019531 C 100.136719 169.386719 97.84375 169.609375 96.007812 169.789062 C 93.546875 170.023438 91.21875 170.257812 90.519531 173.332031 C 89.667969 177.058594 93.191406 182.285156 94.914062 184.558594 C 94.429688 184.570312 93.824219 184.503906 93.382812 184.457031 C 91.382812 184.25 88.035156 183.910156 87.410156 187.496094 C 86.652344 191.84375 91.679688 194.613281 93.558594 195.484375 C 93.511719 196.367188 93.417969 197.449219 93.261719 198.628906 C 90.835938 197.667969 82.667969 193.789062 81.898438 185.074219 Z M 87.386719 197.761719 C 89.785156 199.472656 92.035156 200.375 92.941406 200.703125 C 92.117188 205.0625 90.402344 209.8125 87.121094 210.269531 C 86.476562 210.355469 85.742188 210.433594 84.933594 210.507812 Z M 82.761719 212.71875 C 83.457031 212.664062 84.109375 212.617188 84.726562 212.5625 C 85.429688 213.507812 87.695312 216.4375 90.960938 219.230469 C 95.328125 222.957031 99.722656 224.882812 103.8125 224.882812 C 104.636719 224.882812 105.4375 224.808594 106.234375 224.652344 C 109.800781 223.949219 112.195312 222.390625 113.359375 220.023438 C 114.683594 217.316406 114.015625 214.304688 113.453125 212.648438 C 114.597656 212.75 115.757812 212.820312 116.902344 212.886719 C 118.921875 213.011719 120.835938 213.121094 122.460938 213.398438 C 122.378906 213.792969 122.261719 214.179688 122.113281 214.570312 C 120.535156 218.515625 120.808594 224.121094 124.203125 227.316406 L 104.546875 255.527344 L 81.617188 232.414062 C 81.222656 232.011719 80.578125 232.011719 80.175781 232.40625 C 79.773438 232.800781 79.773438 233.449219 80.167969 233.851562 L 89.027344 242.78125 C 85.199219 242.679688 81.972656 243.707031 79.433594 245.886719 C 75.542969 249.21875 74.277344 254.335938 73.875 257.164062 C 66.023438 247.429688 58.894531 236.300781 58.308594 228.605469 C 57.25 214.664062 72.597656 213.492188 82.761719 212.71875 Z M 62.515625 244.730469 C 71.019531 258.886719 85.789062 274.074219 91.496094 278.25 C 94.164062 280.203125 96.996094 281.984375 99.914062 282.984375 L 55.011719 282.984375 Z M 297.714844 279.132812 C 297.816406 279.25 299.640625 281.265625 301.871094 282.976562 L 241.375 282.976562 C 242.542969 280.789062 245.515625 274.289062 244.804688 266.214844 C 246.421875 269.042969 249.46875 270.964844 252.960938 270.964844 L 254.117188 270.964844 C 257.605469 274.09375 266.933594 275.617188 274.867188 275.734375 C 283.707031 275.863281 288.128906 276.40625 294.605469 278.148438 C 295.441406 278.371094 296.449219 278.628906 297.585938 278.902344 C 297.617188 278.984375 297.652344 279.066406 297.714844 279.132812 Z M 326.480469 273.792969 C 325.765625 275.8125 324.410156 277.242188 322.464844 278.023438 C 314.859375 281.09375 299.621094 277.386719 295.136719 276.179688 C 288.46875 274.386719 283.929688 273.828125 274.902344 273.699219 C 267.929688 273.597656 261.4375 272.460938 257.75 270.820312 C 259.0625 270.984375 260.476562 271.105469 261.765625 271.105469 C 262.847656 271.105469 263.839844 271.019531 264.59375 270.800781 C 265.132812 270.644531 265.445312 270.070312 265.289062 269.535156 C 265.132812 268.988281 264.566406 268.683594 264.023438 268.839844 C 261.6875 269.519531 255.585938 268.5 253.429688 268.042969 C 253.429688 268.042969 253.421875 268.042969 253.421875 268.042969 C 252.484375 267.351562 251.464844 266.425781 251 265.472656 C 253.734375 266.066406 259.554688 267.234375 263.144531 267.234375 C 263.289062 267.234375 263.429688 267.234375 263.566406 267.226562 C 264.132812 267.214844 264.574219 266.746094 264.558594 266.179688 C 264.546875 265.617188 264.085938 265.160156 263.511719 265.1875 C 259.640625 265.289062 251.953125 263.601562 250.300781 263.226562 C 249.675781 262.472656 249.164062 261.554688 249.21875 261.289062 C 249.21875 261.289062 249.246094 261.261719 249.328125 261.234375 C 250.042969 260.960938 251.375 261.417969 253.0625 261.988281 C 254.933594 262.621094 257.265625 263.417969 260.207031 263.746094 C 264.738281 264.25 268.933594 263.640625 270.648438 262.234375 C 271.300781 261.695312 271.488281 261.132812 271.519531 260.757812 C 271.617188 259.691406 270.554688 258.695312 269.085938 257.320312 C 268.328125 256.621094 266.96875 255.34375 266.765625 254.765625 C 268.199219 254 274.546875 256.867188 277.214844 259.921875 C 280.046875 263.160156 298.925781 261.59375 304.648438 261.035156 C 305.203125 260.980469 305.621094 260.484375 305.566406 259.921875 C 305.511719 259.355469 305.007812 258.949219 304.449219 259.003906 C 301.78125 259.261719 299.273438 259.457031 296.945312 259.59375 C 297.148438 258.941406 297.394531 258.347656 297.578125 257.949219 L 299.007812 257.949219 C 299.570312 257.949219 300.027344 257.492188 300.027344 256.925781 C 300.027344 254.75 298.558594 252.914062 296.558594 252.347656 C 298.828125 250.734375 300.355469 248.144531 300.515625 245.191406 C 301.753906 244.246094 306.429688 241.046875 311.402344 242.253906 C 311.421875 242.257812 311.449219 242.257812 311.472656 242.257812 C 318.226562 251.402344 324.296875 260.75 325.453125 262.832031 C 326.648438 265.015625 327.820312 270.003906 326.480469 273.792969 Z M 336.945312 246.605469 C 335.910156 250.566406 333.554688 253.710938 330.488281 255.234375 C 328.222656 256.363281 325.777344 256.484375 323.621094 255.59375 C 323.492188 255.539062 323.355469 255.511719 323.222656 255.519531 C 317.683594 247.136719 307.8125 233.101562 300.484375 225.773438 C 297.75 223.039062 294.816406 221.167969 291.882812 219.867188 C 291.875 219.863281 291.875 219.847656 291.871094 219.839844 C 289.421875 217.105469 287.292969 205.402344 286.582031 200.554688 C 287.671875 199.421875 288.441406 198.28125 288.964844 197.300781 C 292.375 190.980469 291.175781 182.300781 285.984375 175.699219 C 285.847656 175.523438 285.707031 175.351562 285.5625 175.183594 C 286.921875 174.085938 292.277344 170.425781 298.898438 174.433594 C 302.042969 176.332031 302.90625 181.351562 303.90625 187.171875 C 305.273438 195.144531 306.980469 205.070312 315.96875 209.851562 C 321.070312 212.574219 325.453125 214.261719 328.96875 215.617188 C 335.699219 218.214844 339.074219 219.515625 339.414062 224.496094 C 339.921875 232.027344 333.664062 233.808594 333.398438 233.882812 C 333.003906 233.984375 332.710938 234.320312 332.652344 234.71875 C 332.589844 235.121094 332.78125 235.523438 333.125 235.742188 C 333.378906 235.882812 338.847656 239.347656 336.945312 246.605469 Z M 336.945312 246.605469 " fill-opacity="1" fill-rule="nonzero"/></g><path fill="#7c009f" d="M 105.554688 180.273438 C 105.097656 179.378906 104.242188 178.902344 103.636719 179.21875 C 103.03125 179.523438 102.914062 180.496094 103.371094 181.386719 C 103.824219 182.277344 104.683594 182.753906 105.289062 182.441406 C 105.894531 182.128906 106.007812 181.164062 105.554688 180.273438 Z M 105.554688 180.273438 " fill-opacity="1" fill-rule="nonzero"/><path fill="#7c009f" d="M 111.710938 175 C 111.105469 175.304688 110.988281 176.277344 111.445312 177.167969 C 111.902344 178.058594 112.757812 178.535156 113.363281 178.222656 C 113.96875 177.917969 114.085938 176.945312 113.628906 176.054688 C 113.167969 175.160156 112.308594 174.691406 111.710938 175 Z M 111.710938 175 " fill-opacity="1" fill-rule="nonzero"/><path fill="#7c009f" d="M 109.398438 183.007812 C 109.722656 183.074219 110.070312 183.109375 110.433594 183.089844 C 110.792969 183.046875 111.171875 182.972656 111.554688 182.769531 C 111.921875 182.570312 112.304688 182.25 112.507812 181.824219 C 112.710938 181.378906 112.753906 180.953125 112.570312 180.460938 C 112.535156 180.367188 112.433594 180.3125 112.332031 180.339844 L 111.335938 180.613281 C 111.261719 180.632812 111.199219 180.746094 111.152344 180.796875 C 111.097656 180.855469 111.050781 180.910156 111.003906 180.953125 C 110.914062 181.035156 110.832031 181.121094 110.691406 181.203125 C 110.5625 181.300781 110.355469 181.367188 110.144531 181.441406 C 109.921875 181.511719 109.675781 181.570312 109.417969 181.652344 L 109.351562 181.671875 C 109.117188 181.742188 108.929688 181.929688 108.875 182.191406 C 108.785156 182.558594 109.023438 182.925781 109.398438 183.007812 Z M 109.398438 183.007812 " fill-opacity="1" fill-rule="nonzero"/><path fill="#7c009f" d="M 111.398438 188.0625 C 111.132812 188.144531 110.839844 188.136719 110.554688 188.191406 C 110.261719 188.226562 109.96875 188.203125 109.664062 188.238281 L 109.5625 188.253906 C 109.324219 188.28125 109.113281 188.449219 109.050781 188.695312 C 108.96875 189.015625 109.160156 189.339844 109.480469 189.421875 C 109.820312 189.511719 110.167969 189.59375 110.519531 189.648438 C 110.882812 189.667969 111.242188 189.726562 111.609375 189.675781 C 112.351562 189.652344 113.09375 189.414062 113.773438 189.074219 C 114.453125 188.726562 115.042969 188.226562 115.507812 187.632812 C 115.976562 187.035156 116.289062 186.410156 116.488281 185.625 C 116.554688 185.347656 116.441406 185.039062 116.179688 184.878906 C 115.863281 184.679688 115.441406 184.777344 115.242188 185.101562 L 115.179688 185.199219 C 114.914062 185.625 114.546875 186.121094 114.179688 186.511719 C 113.808594 186.910156 113.386719 187.253906 112.921875 187.511719 C 112.453125 187.75 111.957031 187.964844 111.398438 188.0625 Z M 111.398438 188.0625 " fill-opacity="1" fill-rule="nonzero"/><path fill="#7c009f" d="M 109.160156 174.871094 L 109.226562 174.800781 C 109.511719 174.503906 109.710938 174.222656 109.941406 173.992188 C 110.152344 173.746094 110.382812 173.5625 110.621094 173.371094 C 110.867188 173.1875 111.144531 173.03125 111.472656 172.890625 C 111.785156 172.753906 112.167969 172.636719 112.515625 172.515625 L 112.609375 172.480469 C 112.71875 172.441406 112.804688 172.367188 112.859375 172.25 C 112.957031 172.03125 112.859375 171.773438 112.644531 171.679688 C 112.152344 171.453125 111.675781 171.394531 111.167969 171.421875 C 110.664062 171.449219 110.140625 171.605469 109.675781 171.875 C 109.207031 172.140625 108.804688 172.535156 108.539062 172.992188 C 108.269531 173.449219 108.140625 173.949219 108.140625 174.449219 C 108.140625 174.605469 108.199219 174.761719 108.316406 174.875 C 108.554688 175.109375 108.929688 175.109375 109.160156 174.871094 Z M 109.160156 174.871094 " fill-opacity="1" fill-rule="nonzero"/><path fill="#7c009f" d="M 104.144531 176.789062 C 104.253906 176.746094 104.34375 176.671875 104.398438 176.558594 C 104.492188 176.339844 104.398438 176.082031 104.179688 175.984375 C 103.691406 175.761719 103.214844 175.699219 102.703125 175.726562 C 102.199219 175.753906 101.675781 175.910156 101.214844 176.183594 C 100.742188 176.449219 100.34375 176.84375 100.078125 177.296875 C 99.804688 177.753906 99.675781 178.257812 99.675781 178.753906 C 99.675781 178.910156 99.738281 179.066406 99.859375 179.183594 C 100.097656 179.414062 100.472656 179.40625 100.695312 179.167969 L 100.765625 179.101562 C 101.050781 178.800781 101.246094 178.523438 101.480469 178.292969 C 101.691406 178.046875 101.921875 177.863281 102.160156 177.671875 C 102.402344 177.488281 102.683594 177.332031 103.007812 177.191406 C 103.324219 177.054688 103.703125 176.9375 104.050781 176.816406 Z M 104.144531 176.789062 " fill-opacity="1" fill-rule="nonzero"/><path fill="#7c009f" d="M 258.738281 185.910156 C 259.21875 184.964844 259.097656 183.933594 258.449219 183.605469 C 257.8125 183.277344 256.898438 183.78125 256.410156 184.726562 C 255.917969 185.671875 256.050781 186.707031 256.695312 187.035156 C 257.339844 187.359375 258.253906 186.855469 258.738281 185.910156 Z M 258.738281 185.910156 " fill-opacity="1" fill-rule="nonzero"/><path fill="#7c009f" d="M 257.914062 181.027344 L 258.015625 181.0625 C 258.390625 181.191406 258.789062 181.3125 259.125 181.457031 C 259.464844 181.605469 259.765625 181.769531 260.023438 181.964844 C 260.28125 182.167969 260.527344 182.359375 260.742188 182.625 C 260.988281 182.863281 261.199219 183.167969 261.503906 183.484375 L 261.574219 183.558594 C 261.6875 183.671875 261.847656 183.75 262.023438 183.75 C 262.371094 183.75 262.65625 183.46875 262.65625 183.117188 C 262.65625 182.589844 262.519531 182.054688 262.226562 181.570312 C 261.949219 181.089844 261.519531 180.667969 261.023438 180.378906 C 260.53125 180.085938 259.976562 179.925781 259.4375 179.898438 C 258.894531 179.871094 258.390625 179.9375 257.867188 180.167969 C 257.757812 180.21875 257.660156 180.3125 257.621094 180.433594 C 257.546875 180.679688 257.675781 180.9375 257.914062 181.027344 Z M 257.914062 181.027344 " fill-opacity="1" fill-rule="nonzero"/><path fill="#7c009f" d="M 140.917969 120.148438 C 140.257812 120.046875 139.605469 120.761719 139.457031 121.734375 C 139.304688 122.707031 139.722656 123.585938 140.382812 123.679688 C 141.042969 123.78125 141.695312 123.066406 141.84375 122.09375 C 141.992188 121.121094 141.578125 120.25 140.917969 120.148438 Z M 140.917969 120.148438 " fill-opacity="1" fill-rule="nonzero"/><path fill="#7c009f" d="M 135.246094 125.890625 C 135.558594 126.066406 135.90625 126.222656 136.328125 126.277344 C 136.734375 126.332031 137.222656 126.292969 137.632812 126.066406 C 138.046875 125.828125 138.328125 125.515625 138.460938 125.019531 C 138.488281 124.925781 138.4375 124.824219 138.339844 124.789062 L 137.386719 124.433594 C 137.3125 124.40625 137.203125 124.460938 137.136719 124.476562 C 137.054688 124.488281 136.988281 124.507812 136.925781 124.507812 C 136.804688 124.523438 136.695312 124.550781 136.53125 124.53125 C 136.375 124.53125 136.171875 124.46875 135.960938 124.40625 C 135.742188 124.339844 135.511719 124.242188 135.25 124.15625 L 135.191406 124.136719 C 134.964844 124.054688 134.699219 124.101562 134.511719 124.269531 C 134.230469 124.523438 134.210938 124.953125 134.460938 125.230469 C 134.6875 125.476562 134.945312 125.699219 135.246094 125.890625 Z M 135.246094 125.890625 " fill-opacity="1" fill-rule="nonzero"/><path fill="#7c009f" d="M 131.550781 131.175781 C 131.828125 131.394531 132.082031 131.652344 132.40625 131.824219 C 133.011719 132.230469 133.746094 132.46875 134.484375 132.585938 C 135.222656 132.699219 135.992188 132.632812 136.695312 132.429688 C 137.414062 132.21875 138.027344 131.898438 138.632812 131.386719 C 138.851562 131.203125 138.933594 130.890625 138.816406 130.613281 C 138.671875 130.273438 138.277344 130.109375 137.9375 130.25 L 137.835938 130.292969 C 137.382812 130.484375 136.804688 130.671875 136.285156 130.777344 C 135.753906 130.878906 135.222656 130.910156 134.699219 130.851562 C 134.183594 130.78125 133.660156 130.667969 133.164062 130.429688 C 132.90625 130.339844 132.671875 130.171875 132.414062 130.046875 C 132.164062 129.90625 131.9375 129.722656 131.671875 129.570312 L 131.585938 129.523438 C 131.378906 129.40625 131.113281 129.421875 130.917969 129.585938 C 130.664062 129.789062 130.632812 130.164062 130.84375 130.414062 C 131.066406 130.667969 131.296875 130.933594 131.550781 131.175781 Z M 131.550781 131.175781 " fill-opacity="1" fill-rule="nonzero"/><path fill="#7c009f" d="M 138.953125 118.582031 L 139.042969 118.570312 C 139.441406 118.496094 139.761719 118.378906 140.074219 118.332031 C 140.382812 118.25 140.675781 118.238281 140.972656 118.222656 C 141.273438 118.214844 141.59375 118.257812 141.925781 118.324219 C 142.257812 118.394531 142.625 118.523438 142.972656 118.625 L 143.070312 118.652344 C 143.175781 118.683594 143.292969 118.671875 143.402344 118.609375 C 143.605469 118.496094 143.675781 118.230469 143.558594 118.03125 C 143.292969 117.578125 142.953125 117.25 142.523438 116.976562 C 142.101562 116.707031 141.597656 116.535156 141.070312 116.488281 C 140.542969 116.433594 139.988281 116.515625 139.515625 116.734375 C 139.035156 116.9375 138.648438 117.269531 138.359375 117.664062 C 138.273438 117.789062 138.230469 117.949219 138.257812 118.105469 C 138.328125 118.425781 138.632812 118.636719 138.953125 118.582031 Z M 138.953125 118.582031 " fill-opacity="1" fill-rule="nonzero"/><path fill="#7c009f" d="M 179.945312 121.917969 C 180.25 122.375 181.578125 124.714844 181.847656 125.53125 C 181.835938 125.558594 181.84375 125.589844 181.835938 125.625 C 181.347656 126.191406 180.945312 126.972656 181.019531 127.816406 C 181.058594 128.265625 181.238281 128.679688 181.535156 129.011719 C 181.332031 129.589844 181.269531 130.277344 181.542969 130.882812 C 181.800781 131.457031 182.324219 131.835938 183.003906 131.960938 C 183.632812 132.066406 184.292969 132.148438 184.957031 132.210938 C 184.957031 132.21875 184.953125 132.226562 184.953125 132.230469 C 184.953125 133.75 186.183594 134.980469 187.699219 134.980469 L 188.863281 134.980469 C 190.382812 134.980469 191.613281 133.75 191.613281 132.230469 L 191.613281 132.101562 C 191.613281 132.074219 191.597656 132.046875 191.597656 132.019531 C 191.777344 131.992188 191.953125 131.964844 192.128906 131.9375 C 192.246094 131.917969 195.015625 131.386719 195.476562 129.796875 C 195.585938 129.414062 195.605469 128.871094 195.171875 128.277344 C 195.328125 127.753906 195.476562 126.917969 195.183594 126.175781 C 195.070312 125.882812 194.890625 125.640625 194.675781 125.429688 C 194.769531 123.570312 195.804688 122 196.914062 120.34375 C 198.007812 118.699219 199.144531 117 199.417969 114.894531 C 199.660156 112.976562 199.496094 110.914062 198.941406 108.929688 C 197.632812 104.296875 194.265625 101.078125 190.136719 100.527344 C 186.429688 100.035156 182.5625 101.1875 179.816406 103.601562 C 177.261719 105.847656 175.863281 108.949219 175.867188 112.34375 C 175.882812 115.761719 177.890625 118.945312 179.945312 121.917969 Z M 186.496094 115.589844 C 187.019531 115.414062 187.5625 115.160156 188.121094 114.8125 C 188.679688 115.15625 189.222656 115.414062 189.75 115.589844 C 189.066406 118.542969 189.488281 123.636719 189.613281 124.925781 C 188.632812 124.929688 187.597656 124.945312 186.625 124.953125 C 186.746094 123.707031 187.183594 118.554688 186.496094 115.589844 Z M 193.429688 126.523438 C 193.585938 126.597656 193.640625 126.6875 193.675781 126.769531 C 193.804688 127.09375 193.679688 127.625 193.570312 127.953125 L 182.789062 127.953125 C 182.6875 127.851562 182.660156 127.746094 182.652344 127.667969 C 182.625 127.367188 182.835938 126.953125 183.148438 126.617188 C 185.054688 126.597656 191.679688 126.535156 193.429688 126.523438 Z M 189.992188 132.230469 C 189.992188 132.851562 189.488281 133.347656 188.878906 133.347656 L 187.714844 133.347656 C 187.121094 133.347656 186.644531 132.882812 186.605469 132.304688 C 186.917969 132.3125 187.230469 132.328125 187.550781 132.328125 C 188.375 132.328125 189.195312 132.292969 189.992188 132.21875 Z M 191.835938 130.332031 C 189.277344 130.808594 185.925781 130.808594 183.292969 130.347656 C 183.074219 130.304688 183.039062 130.230469 183.027344 130.203125 C 182.972656 130.082031 182.984375 129.84375 183.066406 129.585938 L 193.695312 129.585938 C 193.355469 129.851562 192.625 130.191406 191.835938 130.332031 Z M 180.898438 104.832031 C 182.929688 103.042969 185.667969 102.050781 188.433594 102.050781 C 188.933594 102.050781 189.433594 102.085938 189.933594 102.144531 C 193.449219 102.617188 196.230469 105.316406 197.375 109.371094 C 197.871094 111.148438 198.019531 112.984375 197.804688 114.683594 C 197.585938 116.40625 196.597656 117.875 195.566406 119.433594 C 194.464844 121.085938 193.320312 122.792969 193.082031 124.890625 C 192.625 124.898438 191.988281 124.902344 191.257812 124.910156 C 190.992188 122.277344 190.835938 118.019531 191.339844 115.910156 C 193.046875 116.03125 194.410156 115.367188 195.117188 114.625 C 195.945312 113.746094 196.074219 112.65625 195.4375 111.855469 C 194.808594 111.058594 194.144531 110.921875 193.695312 110.949219 C 192.488281 111.019531 191.484375 112.242188 190.347656 114.066406 C 189.796875 113.890625 189.203125 113.601562 188.589844 113.175781 C 188.511719 113.121094 188.421875 113.085938 188.328125 113.058594 C 188.3125 113.050781 188.300781 113.046875 188.285156 113.046875 C 188.230469 113.039062 188.183594 113.046875 188.128906 113.046875 C 188.074219 113.046875 188.019531 113.039062 187.964844 113.046875 C 187.953125 113.046875 187.945312 113.050781 187.933594 113.058594 C 187.835938 113.078125 187.746094 113.121094 187.667969 113.175781 C 187.054688 113.601562 186.460938 113.890625 185.910156 114.066406 C 184.773438 112.242188 183.769531 111.019531 182.5625 110.949219 C 182.109375 110.921875 181.449219 111.058594 180.820312 111.855469 C 180.1875 112.664062 180.3125 113.746094 181.140625 114.625 C 181.847656 115.371094 183.210938 116.03125 184.917969 115.910156 C 185.421875 118.03125 185.265625 122.339844 185 124.964844 C 184.351562 124.972656 183.78125 124.980469 183.375 124.980469 C 182.890625 123.386719 181.324219 121.011719 181.304688 120.984375 C 179.394531 118.222656 177.527344 115.285156 177.515625 112.335938 C 177.5 109.425781 178.699219 106.757812 180.898438 104.832031 Z M 192.15625 114.261719 C 193.117188 112.835938 193.585938 112.582031 193.78125 112.574219 C 193.78125 112.574219 193.789062 112.574219 193.789062 112.574219 C 193.917969 112.574219 194.09375 112.792969 194.148438 112.863281 C 194.320312 113.074219 193.964844 113.460938 193.925781 113.5 C 193.585938 113.863281 192.964844 114.179688 192.15625 114.261719 Z M 184.09375 114.261719 C 183.285156 114.179688 182.664062 113.863281 182.320312 113.5 C 182.277344 113.460938 181.925781 113.074219 182.09375 112.863281 C 182.148438 112.792969 182.324219 112.574219 182.453125 112.574219 C 182.453125 112.574219 182.460938 112.574219 182.460938 112.574219 C 182.664062 112.589844 183.136719 112.839844 184.09375 114.261719 Z M 184.09375 114.261719 " fill-opacity="1" fill-rule="nonzero"/><path fill="#7c009f" d="M 169.625 116 C 169.179688 115.921875 168.757812 116.222656 168.683594 116.671875 C 168.609375 117.113281 168.910156 117.535156 169.359375 117.609375 L 173.167969 118.242188 C 173.214844 118.25 173.257812 118.257812 173.304688 118.257812 C 173.699219 118.257812 174.039062 117.972656 174.105469 117.578125 C 174.179688 117.132812 173.882812 116.710938 173.433594 116.636719 Z M 169.625 116 " fill-opacity="1" fill-rule="nonzero"/><path fill="#7c009f" d="M 176.257812 99.875 C 176.40625 99.984375 176.578125 100.035156 176.746094 100.035156 C 176.992188 100.035156 177.238281 99.929688 177.398438 99.710938 C 177.671875 99.351562 177.605469 98.839844 177.242188 98.566406 L 174.160156 96.234375 C 173.800781 95.960938 173.289062 96.03125 173.019531 96.390625 C 172.746094 96.75 172.8125 97.261719 173.175781 97.535156 Z M 176.257812 99.875 " fill-opacity="1" fill-rule="nonzero"/><path fill="#7c009f" d="M 202.613281 116.210938 C 202.171875 116.285156 201.867188 116.707031 201.941406 117.148438 C 202.007812 117.550781 202.355469 117.828125 202.742188 117.828125 C 202.789062 117.828125 202.832031 117.820312 202.878906 117.816406 L 206.6875 117.183594 C 207.132812 117.105469 207.4375 116.683594 207.363281 116.242188 C 207.289062 115.800781 206.871094 115.5 206.421875 115.570312 Z M 202.613281 116.210938 " fill-opacity="1" fill-rule="nonzero"/><path fill="#7c009f" d="M 166.996094 105.949219 L 172.078125 107.855469 C 172.175781 107.886719 172.269531 107.910156 172.363281 107.910156 C 172.699219 107.910156 173.003906 107.703125 173.128906 107.378906 C 173.285156 106.957031 173.074219 106.488281 172.652344 106.332031 L 167.570312 104.425781 C 167.148438 104.269531 166.675781 104.480469 166.519531 104.902344 C 166.363281 105.316406 166.574219 105.785156 166.996094 105.949219 Z M 166.996094 105.949219 " fill-opacity="1" fill-rule="nonzero"/><path fill="#7c009f" d="M 198.621094 99.785156 C 198.789062 99.785156 198.96875 99.730469 199.109375 99.621094 L 202.191406 97.289062 C 202.550781 97.015625 202.621094 96.507812 202.347656 96.144531 C 202.078125 95.785156 201.566406 95.714844 201.207031 95.988281 L 198.125 98.324219 C 197.761719 98.59375 197.695312 99.105469 197.96875 99.464844 C 198.128906 99.667969 198.375 99.785156 198.621094 99.785156 Z M 198.621094 99.785156 " fill-opacity="1" fill-rule="nonzero"/><path fill="#7c009f" d="M 202.234375 107.121094 C 202.355469 107.445312 202.667969 107.648438 202.996094 107.648438 C 203.089844 107.648438 203.183594 107.636719 203.28125 107.597656 L 208.363281 105.691406 C 208.785156 105.535156 208.996094 105.066406 208.839844 104.644531 C 208.683594 104.222656 208.214844 104.011719 207.785156 104.167969 L 202.703125 106.070312 C 202.289062 106.226562 202.078125 106.699219 202.234375 107.121094 Z M 202.234375 107.121094 " fill-opacity="1" fill-rule="nonzero"/><g clip-path="url(#2d985abd11)"><path fill="#7c009f" d="M 188.515625 97.535156 C 188.964844 97.535156 189.332031 97.164062 189.332031 96.714844 L 189.332031 90.785156 C 189.332031 90.335938 188.964844 89.96875 188.515625 89.96875 C 188.066406 89.96875 187.699219 90.335938 187.699219 90.785156 L 187.699219 96.714844 C 187.699219 97.164062 188.066406 97.535156 188.515625 97.535156 Z M 188.515625 97.535156 " fill-opacity="1" fill-rule="nonzero"/></g></svg>